<?xml version="1.0" encoding="UTF-8"?>
<!DOCTYPE svg PUBLIC "-//W3C//DTD SVG 1.1//EN"
    "http://www.w3.org/Graphics/SVG/1.1/DTD/svg11.dtd"><svg xmlns="http://www.w3.org/2000/svg" height="512.0000" stroke-opacity="1" viewBox="0.0 0.0 497.0 512.0" font-size="1" width="497.0000" xmlns:xlink="http://www.w3.org/1999/xlink" stroke="rgb(0,0,0)" version="1.1"><defs></defs><g stroke-linejoin="miter" stroke-opacity="1.0" fill-opacity="0.0" stroke="rgb(0,0,0)" stroke-width="2.017776994615609" fill="rgb(0,0,0)" stroke-linecap="square" stroke-miterlimit="10.0"><path d="M 52.0000,460.0000 v -400.0000 M 452.0000,460.0000 v -400.0000 "/></g><g stroke-linejoin="miter" stroke-opacity="1.0" fill-opacity="0.0" stroke="rgb(0,0,0)" stroke-width="0.4" fill="rgb(0,0,0)" stroke-linecap="butt" stroke-miterlimit="10.0"><path d="M 452.0000,418.2278 h 5.0000 M 452.0000,397.1308 h 5.0000 M 452.0000,376.0338 h 5.0000 M 452.0000,354.9367 h 5.0000 M 452.0000,333.8397 h 5.0000 M 452.0000,312.7426 h 5.0000 M 452.0000,291.6456 h 5.0000 M 452.0000,270.5485 h 5.0000 M 452.0000,249.4515 h 5.0000 M 452.0000,228.3544 h 5.0000 M 452.0000,207.2574 h 5.0000 M 452.0000,186.1603 h 5.0000 M 452.0000,165.0633 h 5.0000 M 452.0000,143.9662 h 5.0000 M 452.0000,122.8692 h 5.0000 M 452.0000,101.7722 h 5.0000 "/></g><g stroke-linejoin="miter" stroke-opacity="1.0" fill-opacity="0.0" stroke="rgb(0,0,0)" stroke-width="0.4" fill="rgb(0,0,0)" stroke-linecap="butt" stroke-miterlimit="10.0"><path d="M 47.0000,418.2278 h 5.0000 M 47.0000,397.1308 h 5.0000 M 47.0000,376.0338 h 5.0000 M 47.0000,354.9367 h 5.0000 M 47.0000,333.8397 h 5.0000 M 47.0000,312.7426 h 5.0000 M 47.0000,291.6456 h 5.0000 M 47.0000,270.5485 h 5.0000 M 47.0000,249.4515 h 5.0000 M 47.0000,228.3544 h 5.0000 M 47.0000,207.2574 h 5.0000 M 47.0000,186.1603 h 5.0000 M 47.0000,165.0633 h 5.0000 M 47.0000,143.9662 h 5.0000 M 47.0000,122.8692 h 5.0000 M 47.0000,101.7722 h 5.0000 "/></g><g stroke-linejoin="miter" stroke-opacity="1.0" fill-opacity="1.0" font-size="11.0px" stroke="rgb(0,0,0)" stroke-width="2.017776994615609" fill="rgb(0,0,0)" stroke-linecap="butt" stroke-miterlimit="10.0"><text dominant-baseline="middle" transform="matrix(1.0000,0.0000,0.0000,1.0000,40.0000,101.7722)" stroke="none" text-anchor="end">0</text></g><g stroke-linejoin="miter" stroke-opacity="1.0" fill-opacity="1.0" font-size="11.0px" stroke="rgb(0,0,0)" stroke-width="2.017776994615609" fill="rgb(0,0,0)" stroke-linecap="butt" stroke-miterlimit="10.0"><text dominant-baseline="middle" transform="matrix(1.0000,0.0000,0.0000,1.0000,40.0000,122.8692)" stroke="none" text-anchor="end">1</text></g><g stroke-linejoin="miter" stroke-opacity="1.0" fill-opacity="1.0" font-size="11.0px" stroke="rgb(0,0,0)" stroke-width="2.017776994615609" fill="rgb(0,0,0)" stroke-linecap="butt" stroke-miterlimit="10.0"><text dominant-baseline="middle" transform="matrix(1.0000,0.0000,0.0000,1.0000,40.0000,143.9662)" stroke="none" text-anchor="end">2</text></g><g stroke-linejoin="miter" stroke-opacity="1.0" fill-opacity="1.0" font-size="11.0px" stroke="rgb(0,0,0)" stroke-width="2.017776994615609" fill="rgb(0,0,0)" stroke-linecap="butt" stroke-miterlimit="10.0"><text dominant-baseline="middle" transform="matrix(1.0000,0.0000,0.0000,1.0000,40.0000,165.0633)" stroke="none" text-anchor="end">3</text></g><g stroke-linejoin="miter" stroke-opacity="1.0" fill-opacity="1.0" font-size="11.0px" stroke="rgb(0,0,0)" stroke-width="2.017776994615609" fill="rgb(0,0,0)" stroke-linecap="butt" stroke-miterlimit="10.0"><text dominant-baseline="middle" transform="matrix(1.0000,0.0000,0.0000,1.0000,40.0000,186.1603)" stroke="none" text-anchor="end">4</text></g><g stroke-linejoin="miter" stroke-opacity="1.0" fill-opacity="1.0" font-size="11.0px" stroke="rgb(0,0,0)" stroke-width="2.017776994615609" fill="rgb(0,0,0)" stroke-linecap="butt" stroke-miterlimit="10.0"><text dominant-baseline="middle" transform="matrix(1.0000,0.0000,0.0000,1.0000,40.0000,207.2574)" stroke="none" text-anchor="end">5</text></g><g stroke-linejoin="miter" stroke-opacity="1.0" fill-opacity="1.0" font-size="11.0px" stroke="rgb(0,0,0)" stroke-width="2.017776994615609" fill="rgb(0,0,0)" stroke-linecap="butt" stroke-miterlimit="10.0"><text dominant-baseline="middle" transform="matrix(1.0000,0.0000,0.0000,1.0000,40.0000,228.3544)" stroke="none" text-anchor="end">6</text></g><g stroke-linejoin="miter" stroke-opacity="1.0" fill-opacity="1.0" font-size="11.0px" stroke="rgb(0,0,0)" stroke-width="2.017776994615609" fill="rgb(0,0,0)" stroke-linecap="butt" stroke-miterlimit="10.0"><text dominant-baseline="middle" transform="matrix(1.0000,0.0000,0.0000,1.0000,40.0000,249.4515)" stroke="none" text-anchor="end">7</text></g><g stroke-linejoin="miter" stroke-opacity="1.0" fill-opacity="1.0" font-size="11.0px" stroke="rgb(0,0,0)" stroke-width="2.017776994615609" fill="rgb(0,0,0)" stroke-linecap="butt" stroke-miterlimit="10.0"><text dominant-baseline="middle" transform="matrix(1.0000,0.0000,0.0000,1.0000,40.0000,270.5485)" stroke="none" text-anchor="end">8</text></g><g stroke-linejoin="miter" stroke-opacity="1.0" fill-opacity="1.0" font-size="11.0px" stroke="rgb(0,0,0)" stroke-width="2.017776994615609" fill="rgb(0,0,0)" stroke-linecap="butt" stroke-miterlimit="10.0"><text dominant-baseline="middle" transform="matrix(1.0000,0.0000,0.0000,1.0000,40.0000,291.6456)" stroke="none" text-anchor="end">9</text></g><g stroke-linejoin="miter" stroke-opacity="1.0" fill-opacity="1.0" font-size="11.0px" stroke="rgb(0,0,0)" stroke-width="2.017776994615609" fill="rgb(0,0,0)" stroke-linecap="butt" stroke-miterlimit="10.0"><text dominant-baseline="middle" transform="matrix(1.0000,0.0000,0.0000,1.0000,40.0000,312.7426)" stroke="none" text-anchor="end">10</text></g><g stroke-linejoin="miter" stroke-opacity="1.0" fill-opacity="1.0" font-size="11.0px" stroke="rgb(0,0,0)" stroke-width="2.017776994615609" fill="rgb(0,0,0)" stroke-linecap="butt" stroke-miterlimit="10.0"><text dominant-baseline="middle" transform="matrix(1.0000,0.0000,0.0000,1.0000,40.0000,333.8397)" stroke="none" text-anchor="end">11</text></g><g stroke-linejoin="miter" stroke-opacity="1.0" fill-opacity="1.0" font-size="11.0px" stroke="rgb(0,0,0)" stroke-width="2.017776994615609" fill="rgb(0,0,0)" stroke-linecap="butt" stroke-miterlimit="10.0"><text dominant-baseline="middle" transform="matrix(1.0000,0.0000,0.0000,1.0000,40.0000,354.9367)" stroke="none" text-anchor="end">12</text></g><g stroke-linejoin="miter" stroke-opacity="1.0" fill-opacity="1.0" font-size="11.0px" stroke="rgb(0,0,0)" stroke-width="2.017776994615609" fill="rgb(0,0,0)" stroke-linecap="butt" stroke-miterlimit="10.0"><text dominant-baseline="middle" transform="matrix(1.0000,0.0000,0.0000,1.0000,40.0000,376.0338)" stroke="none" text-anchor="end">13</text></g><g stroke-linejoin="miter" stroke-opacity="1.0" fill-opacity="1.0" font-size="11.0px" stroke="rgb(0,0,0)" stroke-width="2.017776994615609" fill="rgb(0,0,0)" stroke-linecap="butt" stroke-miterlimit="10.0"><text dominant-baseline="middle" transform="matrix(1.0000,0.0000,0.0000,1.0000,40.0000,397.1308)" stroke="none" text-anchor="end">15</text></g><g stroke-linejoin="miter" stroke-opacity="1.0" fill-opacity="1.0" font-size="11.0px" stroke="rgb(0,0,0)" stroke-width="2.017776994615609" fill="rgb(0,0,0)" stroke-linecap="butt" stroke-miterlimit="10.0"><text dominant-baseline="middle" transform="matrix(1.0000,0.0000,0.0000,1.0000,40.0000,418.2278)" stroke="none" text-anchor="end">14</text></g><g stroke-linejoin="miter" stroke-opacity="1.0" fill-opacity="0.0" stroke="rgb(0,0,0)" stroke-width="2.017776994615609" fill="rgb(0,0,0)" stroke-linecap="square" stroke-miterlimit="10.0"><path d="M 52.0000,460.0000 h 400.0000 M 52.0000,60.0000 h 400.0000 "/></g><g stroke-linejoin="miter" stroke-opacity="1.0" fill-opacity="0.0" stroke="rgb(0,0,0)" stroke-width="0.4" fill="rgb(0,0,0)" stroke-linecap="butt" stroke-miterlimit="10.0"><path d="M 85.3333,60.0000 v -5.0000 M 162.1280,60.0000 v -5.0000 M 238.9227,60.0000 v -5.0000 M 315.7174,60.0000 v -5.0000 M 392.5121,60.0000 v -5.0000 "/></g><g stroke-linejoin="miter" stroke-opacity="1.0" fill-opacity="0.0" stroke="rgb(0,0,0)" stroke-width="0.4" fill="rgb(0,0,0)" stroke-linecap="butt" stroke-miterlimit="10.0"><path d="M 85.3333,465.0000 v -5.0000 M 162.1280,465.0000 v -5.0000 M 238.9227,465.0000 v -5.0000 M 315.7174,465.0000 v -5.0000 M 392.5121,465.0000 v -5.0000 "/></g><g stroke-linejoin="miter" stroke-opacity="1.0" fill-opacity="1.0" font-size="11.0px" stroke="rgb(0,0,0)" stroke-width="2.017776994615609" fill="rgb(0,0,0)" stroke-linecap="butt" stroke-miterlimit="10.0"><text dominant-baseline="text-before-edge" transform="matrix(1.0000,0.0000,0.0000,1.0000,392.5121,472.0000)" stroke="none" text-anchor="middle">100</text></g><g stroke-linejoin="miter" stroke-opacity="1.0" fill-opacity="1.0" font-size="11.0px" stroke="rgb(0,0,0)" stroke-width="2.017776994615609" fill="rgb(0,0,0)" stroke-linecap="butt" stroke-miterlimit="10.0"><text dominant-baseline="text-before-edge" transform="matrix(1.0000,0.0000,0.0000,1.0000,315.7174,472.0000)" stroke="none" text-anchor="middle">75</text></g><g stroke-linejoin="miter" stroke-opacity="1.0" fill-opacity="1.0" font-size="11.0px" stroke="rgb(0,0,0)" stroke-width="2.017776994615609" fill="rgb(0,0,0)" stroke-linecap="butt" stroke-miterlimit="10.0"><text dominant-baseline="text-before-edge" transform="matrix(1.0000,0.0000,0.0000,1.0000,238.9227,472.0000)" stroke="none" text-anchor="middle">50</text></g><g stroke-linejoin="miter" stroke-opacity="1.0" fill-opacity="1.0" font-size="11.0px" stroke="rgb(0,0,0)" stroke-width="2.017776994615609" fill="rgb(0,0,0)" stroke-linecap="butt" stroke-miterlimit="10.0"><text dominant-baseline="text-before-edge" transform="matrix(1.0000,0.0000,0.0000,1.0000,162.1280,472.0000)" stroke="none" text-anchor="middle">25</text></g><g stroke-linejoin="miter" stroke-opacity="1.0" fill-opacity="1.0" font-size="11.0px" stroke="rgb(0,0,0)" stroke-width="2.017776994615609" fill="rgb(0,0,0)" stroke-linecap="butt" stroke-miterlimit="10.0"><text dominant-baseline="text-before-edge" transform="matrix(1.0000,0.0000,0.0000,1.0000,85.3333,472.0000)" stroke="none" text-anchor="middle">0</text></g><g stroke-linejoin="miter" stroke-opacity="1.0" fill-opacity="1.0" stroke="rgb(0,0,0)" stroke-width="2.017776994615609" fill="rgb(0,0,0)" stroke-linecap="butt" stroke-miterlimit="10.0"><defs><clipPath id="agreementTotalsmyClip1"><path d="M 452.0000,460.0000 l -0.0000,-400.0000 h -400.0000 l -0.0000,400.0000 Z"/></clipPath></defs><g clip-path="url(#agreementTotalsmyClip1)"><path d="M 85.3333,110.2110 v -16.8776 h 333.3333 v 16.8776 Z"/></g></g><g stroke-linejoin="miter" stroke-opacity="1.0" fill-opacity="1.0" stroke="rgb(0,0,0)" stroke-width="2.017776994615609" fill="rgb(0,0,0)" stroke-linecap="butt" stroke-miterlimit="10.0"><defs><clipPath id="agreementTotalsmyClip2"><path d="M 452.0000,460.0000 l -0.0000,-400.0000 h -400.0000 l -0.0000,400.0000 Z"/></clipPath></defs><g clip-path="url(#agreementTotalsmyClip2)"><path d="M 85.3333,131.3080 v -16.8776 h 80.1464 v 16.8776 Z"/></g></g><g stroke-linejoin="miter" stroke-opacity="1.0" fill-opacity="1.0" stroke="rgb(0,0,0)" stroke-width="2.017776994615609" fill="rgb(0,0,0)" stroke-linecap="butt" stroke-miterlimit="10.0"><defs><clipPath id="agreementTotalsmyClip3"><path d="M 452.0000,460.0000 l -0.0000,-400.0000 h -400.0000 l -0.0000,400.0000 Z"/></clipPath></defs><g clip-path="url(#agreementTotalsmyClip3)"><path d="M 85.3333,152.4051 v -16.8776 h 41.3147 v 16.8776 Z"/></g></g><g stroke-linejoin="miter" stroke-opacity="1.0" fill-opacity="1.0" stroke="rgb(0,0,0)" stroke-width="2.017776994615609" fill="rgb(0,0,0)" stroke-linecap="butt" stroke-miterlimit="10.0"><defs><clipPath id="agreementTotalsmyClip4"><path d="M 452.0000,460.0000 l -0.0000,-400.0000 h -400.0000 l -0.0000,400.0000 Z"/></clipPath></defs><g clip-path="url(#agreementTotalsmyClip4)"><path d="M 85.3333,173.5021 v -16.8776 h 32.1522 v 16.8776 Z"/></g></g><g stroke-linejoin="miter" stroke-opacity="1.0" fill-opacity="1.0" stroke="rgb(0,0,0)" stroke-width="2.017776994615609" fill="rgb(0,0,0)" stroke-linecap="butt" stroke-miterlimit="10.0"><defs><clipPath id="agreementTotalsmyClip5"><path d="M 452.0000,460.0000 l -0.0000,-400.0000 h -400.0000 l -0.0000,400.0000 Z"/></clipPath></defs><g clip-path="url(#agreementTotalsmyClip5)"><path d="M 85.3333,194.5992 v -16.8776 h 22.4923 v 16.8776 Z"/></g></g><g stroke-linejoin="miter" stroke-opacity="1.0" fill-opacity="1.0" stroke="rgb(0,0,0)" stroke-width="2.017776994615609" fill="rgb(0,0,0)" stroke-linecap="butt" stroke-miterlimit="10.0"><defs><clipPath id="agreementTotalsmyClip6"><path d="M 452.0000,460.0000 l -0.0000,-400.0000 h -400.0000 l -0.0000,400.0000 Z"/></clipPath></defs><g clip-path="url(#agreementTotalsmyClip6)"><path d="M 85.3333,215.6962 v -16.8776 h 19.4214 v 16.8776 Z"/></g></g><g stroke-linejoin="miter" stroke-opacity="1.0" fill-opacity="1.0" stroke="rgb(0,0,0)" stroke-width="2.017776994615609" fill="rgb(0,0,0)" stroke-linecap="butt" stroke-miterlimit="10.0"><defs><clipPath id="agreementTotalsmyClip7"><path d="M 452.0000,460.0000 l -0.0000,-400.0000 h -400.0000 l -0.0000,400.0000 Z"/></clipPath></defs><g clip-path="url(#agreementTotalsmyClip7)"><path d="M 85.3333,236.7932 v -16.8776 h 12.0150 v 16.8776 Z"/></g></g><g stroke-linejoin="miter" stroke-opacity="1.0" fill-opacity="1.0" stroke="rgb(0,0,0)" stroke-width="2.017776994615609" fill="rgb(0,0,0)" stroke-linecap="butt" stroke-miterlimit="10.0"><defs><clipPath id="agreementTotalsmyClip8"><path d="M 452.0000,460.0000 l -0.0000,-400.0000 h -400.0000 l -0.0000,400.0000 Z"/></clipPath></defs><g clip-path="url(#agreementTotalsmyClip8)"><path d="M 85.3333,257.8903 v -16.8776 h 8.1820 v 16.8776 Z"/></g></g><g stroke-linejoin="miter" stroke-opacity="1.0" fill-opacity="1.0" stroke="rgb(0,0,0)" stroke-width="2.017776994615609" fill="rgb(0,0,0)" stroke-linecap="butt" stroke-miterlimit="10.0"><defs><clipPath id="agreementTotalsmyClip9"><path d="M 452.0000,460.0000 l -0.0000,-400.0000 h -400.0000 l -0.0000,400.0000 Z"/></clipPath></defs><g clip-path="url(#agreementTotalsmyClip9)"><path d="M 85.3333,278.9873 v -16.8776 h 2.9899 v 16.8776 Z"/></g></g><g stroke-linejoin="miter" stroke-opacity="1.0" fill-opacity="1.0" stroke="rgb(0,0,0)" stroke-width="2.017776994615609" fill="rgb(0,0,0)" stroke-linecap="butt" stroke-miterlimit="10.0"><defs><clipPath id="agreementTotalsmyClip10"><path d="M 452.0000,460.0000 l -0.0000,-400.0000 h -400.0000 l -0.0000,400.0000 Z"/></clipPath></defs><g clip-path="url(#agreementTotalsmyClip10)"><path d="M 85.3333,300.0844 v -16.8776 h 2.1332 v 16.8776 Z"/></g></g><g stroke-linejoin="miter" stroke-opacity="1.0" fill-opacity="1.0" stroke="rgb(0,0,0)" stroke-width="2.017776994615609" fill="rgb(0,0,0)" stroke-linecap="butt" stroke-miterlimit="10.0"><defs><clipPath id="agreementTotalsmyClip11"><path d="M 452.0000,460.0000 l -0.0000,-400.0000 h -400.0000 l -0.0000,400.0000 Z"/></clipPath></defs><g clip-path="url(#agreementTotalsmyClip11)"><path d="M 85.3333,321.1814 v -16.8776 h 1.2099 v 16.8776 Z"/></g></g><g stroke-linejoin="miter" stroke-opacity="1.0" fill-opacity="1.0" stroke="rgb(0,0,0)" stroke-width="2.017776994615609" fill="rgb(0,0,0)" stroke-linecap="butt" stroke-miterlimit="10.0"><defs><clipPath id="agreementTotalsmyClip12"><path d="M 452.0000,460.0000 l -0.0000,-400.0000 h -400.0000 l -0.0000,400.0000 Z"/></clipPath></defs><g clip-path="url(#agreementTotalsmyClip12)"><path d="M 85.3333,342.2785 v -16.8776 h 0.6732 v 16.8776 Z"/></g></g><g stroke-linejoin="miter" stroke-opacity="1.0" fill-opacity="1.0" stroke="rgb(0,0,0)" stroke-width="2.017776994615609" fill="rgb(0,0,0)" stroke-linecap="butt" stroke-miterlimit="10.0"><defs><clipPath id="agreementTotalsmyClip13"><path d="M 452.0000,460.0000 l -0.0000,-400.0000 h -400.0000 l -0.0000,400.0000 Z"/></clipPath></defs><g clip-path="url(#agreementTotalsmyClip13)"><path d="M 85.3333,363.3755 v -16.8776 h 0.3831 v 16.8776 Z"/></g></g><g stroke-linejoin="miter" stroke-opacity="1.0" fill-opacity="1.0" stroke="rgb(0,0,0)" stroke-width="2.017776994615609" fill="rgb(0,0,0)" stroke-linecap="butt" stroke-miterlimit="10.0"><defs><clipPath id="agreementTotalsmyClip14"><path d="M 452.0000,460.0000 l -0.0000,-400.0000 h -400.0000 l -0.0000,400.0000 Z"/></clipPath></defs><g clip-path="url(#agreementTotalsmyClip14)"><path d="M 85.3333,384.4726 v -16.8776 h 0.2790 v 16.8776 Z"/></g></g><g stroke-linejoin="miter" stroke-opacity="1.0" fill-opacity="1.0" stroke="rgb(0,0,0)" stroke-width="2.017776994615609" fill="rgb(0,0,0)" stroke-linecap="butt" stroke-miterlimit="10.0"><defs><clipPath id="agreementTotalsmyClip15"><path d="M 452.0000,460.0000 l -0.0000,-400.0000 h -400.0000 l -0.0000,400.0000 Z"/></clipPath></defs><g clip-path="url(#agreementTotalsmyClip15)"><path d="M 85.3333,405.5696 v -16.8776 h 0.2039 v 16.8776 Z"/></g></g><g stroke-linejoin="miter" stroke-opacity="1.0" fill-opacity="1.0" stroke="rgb(0,0,0)" stroke-width="2.017776994615609" fill="rgb(0,0,0)" stroke-linecap="butt" stroke-miterlimit="10.0"><defs><clipPath id="agreementTotalsmyClip16"><path d="M 452.0000,460.0000 l -0.0000,-400.0000 h -400.0000 l -0.0000,400.0000 Z"/></clipPath></defs><g clip-path="url(#agreementTotalsmyClip16)"><path d="M 85.3333,426.6667 v -16.8776 h 0.1348 v 16.8776 Z"/></g></g><g stroke-linejoin="miter" stroke-opacity="1.0" fill-opacity="1.0" font-size="11.0px" stroke="rgb(0,0,0)" stroke-width="2.017776994615609" fill="rgb(0,0,0)" stroke-linecap="butt" stroke-miterlimit="10.0"><text dominant-baseline="text-after-edge" transform="matrix(1.0000,0.0000,0.0000,1.0000,252.0000,40.0000)" stroke="none" text-anchor="middle"></text></g></svg>