<?xml version="1.0" encoding="UTF-8"?>
<!DOCTYPE svg PUBLIC "-//W3C//DTD SVG 1.1//EN"
    "http://www.w3.org/Graphics/SVG/1.1/DTD/svg11.dtd"><svg xmlns="http://www.w3.org/2000/svg" height="530.0000" stroke-opacity="1" viewBox="0.0 0.0 544.0 530.0" font-size="1" width="544.0000" xmlns:xlink="http://www.w3.org/1999/xlink" stroke="rgb(0,0,0)" version="1.1"><defs></defs><g stroke-linejoin="miter" stroke-opacity="1.0" fill-opacity="0.0" stroke="rgb(0,0,0)" stroke-width="0.8" fill="rgb(0,0,0)" stroke-linecap="butt" stroke-miterlimit="10.0"><path d="M 52.0000,460.0000 h 400.0000 M 52.0000,360.0000 h 400.0000 M 52.0000,260.0000 h 400.0000 M 52.0000,160.0000 h 400.0000 M 52.0000,60.0000 h 400.0000 "/></g><g stroke-linejoin="miter" stroke-opacity="1.0" fill-opacity="0.0" stroke="rgb(0,0,0)" stroke-width="2.147817496902379" fill="rgb(0,0,0)" stroke-linecap="square" stroke-miterlimit="10.0"><path d="M 52.0000,460.0000 v -400.0000 M 452.0000,460.0000 v -400.0000 "/></g><g stroke-linejoin="miter" stroke-opacity="1.0" fill-opacity="1.0" font-size="11.0px" stroke="rgb(0,0,0)" stroke-width="2.147817496902379" fill="rgb(0,0,0)" stroke-linecap="butt" stroke-miterlimit="10.0"><text dominant-baseline="middle" transform="matrix(1.0000,0.0000,0.0000,1.0000,40.0000,160.0000)" stroke="none" text-anchor="end">technologist</text></g><g stroke-linejoin="miter" stroke-opacity="1.0" fill-opacity="1.0" font-size="11.0px" stroke="rgb(0,0,0)" stroke-width="2.147817496902379" fill="rgb(0,0,0)" stroke-linecap="butt" stroke-miterlimit="10.0"><text dominant-baseline="middle" transform="matrix(1.0000,0.0000,0.0000,1.0000,40.0000,360.0000)" stroke="none" text-anchor="end">technician</text></g><g stroke-linejoin="miter" stroke-opacity="1.0" fill-opacity="0.0" stroke="rgb(0,0,0)" stroke-width="0.8" fill="rgb(0,0,0)" stroke-linecap="butt" stroke-miterlimit="10.0"><path d="M 52.0000,460.0000 v -400.0000 M 128.9231,460.0000 v -400.0000 M 205.8462,460.0000 v -400.0000 M 282.7692,460.0000 v -400.0000 M 359.6923,460.0000 v -400.0000 M 436.6154,460.0000 v -400.0000 "/></g><g stroke-linejoin="miter" stroke-opacity="1.0" fill-opacity="0.0" stroke="rgb(0,0,0)" stroke-width="2.147817496902379" fill="rgb(0,0,0)" stroke-linecap="square" stroke-miterlimit="10.0"><path d="M 52.0000,460.0000 h 400.0000 M 52.0000,60.0000 h 400.0000 "/></g><g stroke-linejoin="miter" stroke-opacity="1.0" fill-opacity="1.0" font-size="11.0px" stroke="rgb(0,0,0)" stroke-width="2.147817496902379" fill="rgb(0,0,0)" stroke-linecap="butt" stroke-miterlimit="10.0"><text dominant-baseline="text-before-edge" transform="matrix(1.0000,0.0000,0.0000,1.0000,252.0000,490.0000)" stroke="none" text-anchor="middle">Participating sleeper</text></g><g stroke-linejoin="miter" stroke-opacity="1.0" fill-opacity="1.0" stroke="rgb(0,0,0)" stroke-width="0.0" fill="rgb(254,253,1)" stroke-linecap="butt" stroke-miterlimit="10.0"><defs><clipPath id="distributionmyClip1"><path d="M 452.0000,460.0000 l -0.0000,-400.0000 h -400.0000 l -0.0000,400.0000 Z"/></clipPath></defs><g clip-path="url(#distributionmyClip1)"><path d="M 452.0000,360.0000 l -0.0000,-300.0000 h -23.0769 l -0.0000,300.0000 Z"/></g></g><g stroke-linejoin="miter" stroke-opacity="1.0" fill-opacity="1.0" stroke="rgb(0,0,0)" stroke-width="0.0" fill="rgb(255,255,0)" stroke-linecap="butt" stroke-miterlimit="10.0"><defs><clipPath id="distributionmyClip2"><path d="M 452.0000,460.0000 l -0.0000,-400.0000 h -400.0000 l -0.0000,400.0000 Z"/></clipPath></defs><g clip-path="url(#distributionmyClip2)"><path d="M 436.6154,360.0000 l -0.0000,-300.0000 h -23.0769 l -0.0000,300.0000 Z"/></g></g><g stroke-linejoin="miter" stroke-opacity="1.0" fill-opacity="1.0" stroke="rgb(0,0,0)" stroke-width="0.0" fill="rgb(249,245,7)" stroke-linecap="butt" stroke-miterlimit="10.0"><defs><clipPath id="distributionmyClip3"><path d="M 452.0000,460.0000 l -0.0000,-400.0000 h -400.0000 l -0.0000,400.0000 Z"/></clipPath></defs><g clip-path="url(#distributionmyClip3)"><path d="M 421.2308,360.0000 l -0.0000,-300.0000 h -23.0769 l -0.0000,300.0000 Z"/></g></g><g stroke-linejoin="miter" stroke-opacity="1.0" fill-opacity="1.0" stroke="rgb(0,0,0)" stroke-width="0.0" fill="rgb(244,237,12)" stroke-linecap="butt" stroke-miterlimit="10.0"><defs><clipPath id="distributionmyClip4"><path d="M 452.0000,460.0000 l -0.0000,-400.0000 h -400.0000 l -0.0000,400.0000 Z"/></clipPath></defs><g clip-path="url(#distributionmyClip4)"><path d="M 405.8462,360.0000 l -0.0000,-300.0000 h -23.0769 l -0.0000,300.0000 Z"/></g></g><g stroke-linejoin="miter" stroke-opacity="1.0" fill-opacity="1.0" stroke="rgb(0,0,0)" stroke-width="0.0" fill="rgb(255,255,0)" stroke-linecap="butt" stroke-miterlimit="10.0"><defs><clipPath id="distributionmyClip5"><path d="M 452.0000,460.0000 l -0.0000,-400.0000 h -400.0000 l -0.0000,400.0000 Z"/></clipPath></defs><g clip-path="url(#distributionmyClip5)"><path d="M 390.4615,360.0000 l -0.0000,-300.0000 h -23.0769 l -0.0000,300.0000 Z"/></g></g><g stroke-linejoin="miter" stroke-opacity="1.0" fill-opacity="1.0" stroke="rgb(0,0,0)" stroke-width="0.0" fill="rgb(248,244,7)" stroke-linecap="butt" stroke-miterlimit="10.0"><defs><clipPath id="distributionmyClip6"><path d="M 452.0000,460.0000 l -0.0000,-400.0000 h -400.0000 l -0.0000,400.0000 Z"/></clipPath></defs><g clip-path="url(#distributionmyClip6)"><path d="M 375.0769,360.0000 l -0.0000,-300.0000 h -23.0769 l -0.0000,300.0000 Z"/></g></g><g stroke-linejoin="miter" stroke-opacity="1.0" fill-opacity="1.0" stroke="rgb(0,0,0)" stroke-width="0.0" fill="rgb(243,235,13)" stroke-linecap="butt" stroke-miterlimit="10.0"><defs><clipPath id="distributionmyClip7"><path d="M 452.0000,460.0000 l -0.0000,-400.0000 h -400.0000 l -0.0000,400.0000 Z"/></clipPath></defs><g clip-path="url(#distributionmyClip7)"><path d="M 359.6923,360.0000 l -0.0000,-300.0000 h -23.0769 l -0.0000,300.0000 Z"/></g></g><g stroke-linejoin="miter" stroke-opacity="1.0" fill-opacity="1.0" stroke="rgb(0,0,0)" stroke-width="0.0" fill="rgb(244,237,12)" stroke-linecap="butt" stroke-miterlimit="10.0"><defs><clipPath id="distributionmyClip8"><path d="M 452.0000,460.0000 l -0.0000,-400.0000 h -400.0000 l -0.0000,400.0000 Z"/></clipPath></defs><g clip-path="url(#distributionmyClip8)"><path d="M 344.3077,360.0000 l -0.0000,-300.0000 h -23.0769 l -0.0000,300.0000 Z"/></g></g><g stroke-linejoin="miter" stroke-opacity="1.0" fill-opacity="1.0" stroke="rgb(0,0,0)" stroke-width="0.0" fill="rgb(248,245,7)" stroke-linecap="butt" stroke-miterlimit="10.0"><defs><clipPath id="distributionmyClip9"><path d="M 452.0000,460.0000 l -0.0000,-400.0000 h -400.0000 l -0.0000,400.0000 Z"/></clipPath></defs><g clip-path="url(#distributionmyClip9)"><path d="M 328.9231,360.0000 l -0.0000,-300.0000 h -23.0769 l -0.0000,300.0000 Z"/></g></g><g stroke-linejoin="miter" stroke-opacity="1.0" fill-opacity="1.0" stroke="rgb(0,0,0)" stroke-width="0.0" fill="rgb(231,216,21)" stroke-linecap="butt" stroke-miterlimit="10.0"><defs><clipPath id="distributionmyClip10"><path d="M 452.0000,460.0000 l -0.0000,-400.0000 h -400.0000 l -0.0000,400.0000 Z"/></clipPath></defs><g clip-path="url(#distributionmyClip10)"><path d="M 313.5385,360.0000 l -0.0000,-300.0000 h -23.0769 l -0.0000,300.0000 Z"/></g></g><g stroke-linejoin="miter" stroke-opacity="1.0" fill-opacity="1.0" stroke="rgb(0,0,0)" stroke-width="0.0" fill="rgb(245,239,10)" stroke-linecap="butt" stroke-miterlimit="10.0"><defs><clipPath id="distributionmyClip11"><path d="M 452.0000,460.0000 l -0.0000,-400.0000 h -400.0000 l -0.0000,400.0000 Z"/></clipPath></defs><g clip-path="url(#distributionmyClip11)"><path d="M 298.1538,360.0000 l -0.0000,-300.0000 h -23.0769 l -0.0000,300.0000 Z"/></g></g><g stroke-linejoin="miter" stroke-opacity="1.0" fill-opacity="1.0" stroke="rgb(0,0,0)" stroke-width="0.0" fill="rgb(231,216,21)" stroke-linecap="butt" stroke-miterlimit="10.0"><defs><clipPath id="distributionmyClip12"><path d="M 452.0000,460.0000 l -0.0000,-400.0000 h -400.0000 l -0.0000,400.0000 Z"/></clipPath></defs><g clip-path="url(#distributionmyClip12)"><path d="M 282.7692,360.0000 l -0.0000,-300.0000 h -23.0769 l -0.0000,300.0000 Z"/></g></g><g stroke-linejoin="miter" stroke-opacity="1.0" fill-opacity="1.0" stroke="rgb(0,0,0)" stroke-width="0.0" fill="rgb(250,248,5)" stroke-linecap="butt" stroke-miterlimit="10.0"><defs><clipPath id="distributionmyClip13"><path d="M 452.0000,460.0000 l -0.0000,-400.0000 h -400.0000 l -0.0000,400.0000 Z"/></clipPath></defs><g clip-path="url(#distributionmyClip13)"><path d="M 267.3846,360.0000 l -0.0000,-300.0000 h -23.0769 l -0.0000,300.0000 Z"/></g></g><g stroke-linejoin="miter" stroke-opacity="1.0" fill-opacity="1.0" stroke="rgb(0,0,0)" stroke-width="0.0" fill="rgb(232,217,20)" stroke-linecap="butt" stroke-miterlimit="10.0"><defs><clipPath id="distributionmyClip14"><path d="M 452.0000,460.0000 l -0.0000,-400.0000 h -400.0000 l -0.0000,400.0000 Z"/></clipPath></defs><g clip-path="url(#distributionmyClip14)"><path d="M 252.0000,360.0000 l -0.0000,-300.0000 h -23.0769 l -0.0000,300.0000 Z"/></g></g><g stroke-linejoin="miter" stroke-opacity="1.0" fill-opacity="1.0" stroke="rgb(0,0,0)" stroke-width="0.0" fill="rgb(232,218,20)" stroke-linecap="butt" stroke-miterlimit="10.0"><defs><clipPath id="distributionmyClip15"><path d="M 452.0000,460.0000 l -0.0000,-400.0000 h -400.0000 l -0.0000,400.0000 Z"/></clipPath></defs><g clip-path="url(#distributionmyClip15)"><path d="M 236.6154,360.0000 l -0.0000,-300.0000 h -23.0769 l -0.0000,300.0000 Z"/></g></g><g stroke-linejoin="miter" stroke-opacity="1.0" fill-opacity="1.0" stroke="rgb(0,0,0)" stroke-width="0.0" fill="rgb(229,212,22)" stroke-linecap="butt" stroke-miterlimit="10.0"><defs><clipPath id="distributionmyClip16"><path d="M 452.0000,460.0000 l -0.0000,-400.0000 h -400.0000 l -0.0000,400.0000 Z"/></clipPath></defs><g clip-path="url(#distributionmyClip16)"><path d="M 221.2308,360.0000 l -0.0000,-300.0000 h -23.0769 l -0.0000,300.0000 Z"/></g></g><g stroke-linejoin="miter" stroke-opacity="1.0" fill-opacity="1.0" stroke="rgb(0,0,0)" stroke-width="0.0" fill="rgb(233,219,20)" stroke-linecap="butt" stroke-miterlimit="10.0"><defs><clipPath id="distributionmyClip17"><path d="M 452.0000,460.0000 l -0.0000,-400.0000 h -400.0000 l -0.0000,400.0000 Z"/></clipPath></defs><g clip-path="url(#distributionmyClip17)"><path d="M 205.8462,360.0000 l -0.0000,-300.0000 h -23.0769 l -0.0000,300.0000 Z"/></g></g><g stroke-linejoin="miter" stroke-opacity="1.0" fill-opacity="1.0" stroke="rgb(0,0,0)" stroke-width="0.0" fill="rgb(250,247,5)" stroke-linecap="butt" stroke-miterlimit="10.0"><defs><clipPath id="distributionmyClip18"><path d="M 452.0000,460.0000 l -0.0000,-400.0000 h -400.0000 l -0.0000,400.0000 Z"/></clipPath></defs><g clip-path="url(#distributionmyClip18)"><path d="M 190.4615,360.0000 l -0.0000,-300.0000 h -23.0769 l -0.0000,300.0000 Z"/></g></g><g stroke-linejoin="miter" stroke-opacity="1.0" fill-opacity="1.0" stroke="rgb(0,0,0)" stroke-width="0.0" fill="rgb(220,196,27)" stroke-linecap="butt" stroke-miterlimit="10.0"><defs><clipPath id="distributionmyClip19"><path d="M 452.0000,460.0000 l -0.0000,-400.0000 h -400.0000 l -0.0000,400.0000 Z"/></clipPath></defs><g clip-path="url(#distributionmyClip19)"><path d="M 175.0769,360.0000 l -0.0000,-300.0000 h -23.0769 l -0.0000,300.0000 Z"/></g></g><g stroke-linejoin="miter" stroke-opacity="1.0" fill-opacity="1.0" stroke="rgb(0,0,0)" stroke-width="0.0" fill="rgb(230,215,21)" stroke-linecap="butt" stroke-miterlimit="10.0"><defs><clipPath id="distributionmyClip20"><path d="M 452.0000,460.0000 l -0.0000,-400.0000 h -400.0000 l -0.0000,400.0000 Z"/></clipPath></defs><g clip-path="url(#distributionmyClip20)"><path d="M 159.6923,360.0000 l -0.0000,-300.0000 h -23.0769 l -0.0000,300.0000 Z"/></g></g><g stroke-linejoin="miter" stroke-opacity="1.0" fill-opacity="1.0" stroke="rgb(0,0,0)" stroke-width="0.0" fill="rgb(234,221,19)" stroke-linecap="butt" stroke-miterlimit="10.0"><defs><clipPath id="distributionmyClip21"><path d="M 452.0000,460.0000 l -0.0000,-400.0000 h -400.0000 l -0.0000,400.0000 Z"/></clipPath></defs><g clip-path="url(#distributionmyClip21)"><path d="M 144.3077,360.0000 l -0.0000,-300.0000 h -23.0769 l -0.0000,300.0000 Z"/></g></g><g stroke-linejoin="miter" stroke-opacity="1.0" fill-opacity="1.0" stroke="rgb(0,0,0)" stroke-width="0.0" fill="rgb(194,143,35)" stroke-linecap="butt" stroke-miterlimit="10.0"><defs><clipPath id="distributionmyClip22"><path d="M 452.0000,460.0000 l -0.0000,-400.0000 h -400.0000 l -0.0000,400.0000 Z"/></clipPath></defs><g clip-path="url(#distributionmyClip22)"><path d="M 128.9231,360.0000 l -0.0000,-300.0000 h -23.0769 l -0.0000,300.0000 Z"/></g></g><g stroke-linejoin="miter" stroke-opacity="1.0" fill-opacity="1.0" stroke="rgb(0,0,0)" stroke-width="0.0" fill="rgb(212,182,29)" stroke-linecap="butt" stroke-miterlimit="10.0"><defs><clipPath id="distributionmyClip23"><path d="M 452.0000,460.0000 l -0.0000,-400.0000 h -400.0000 l -0.0000,400.0000 Z"/></clipPath></defs><g clip-path="url(#distributionmyClip23)"><path d="M 113.5385,360.0000 l -0.0000,-300.0000 h -23.0769 l -0.0000,300.0000 Z"/></g></g><g stroke-linejoin="miter" stroke-opacity="1.0" fill-opacity="1.0" stroke="rgb(0,0,0)" stroke-width="0.0" fill="rgb(225,205,24)" stroke-linecap="butt" stroke-miterlimit="10.0"><defs><clipPath id="distributionmyClip24"><path d="M 452.0000,460.0000 l -0.0000,-400.0000 h -400.0000 l -0.0000,400.0000 Z"/></clipPath></defs><g clip-path="url(#distributionmyClip24)"><path d="M 98.1538,360.0000 l -0.0000,-300.0000 h -23.0769 l -0.0000,300.0000 Z"/></g></g><g stroke-linejoin="miter" stroke-opacity="1.0" fill-opacity="1.0" stroke="rgb(0,0,0)" stroke-width="0.0" fill="rgb(165,42,42)" stroke-linecap="butt" stroke-miterlimit="10.0"><defs><clipPath id="distributionmyClip25"><path d="M 452.0000,460.0000 l -0.0000,-400.0000 h -400.0000 l -0.0000,400.0000 Z"/></clipPath></defs><g clip-path="url(#distributionmyClip25)"><path d="M 82.7692,360.0000 l -0.0000,-300.0000 h -23.0769 l -0.0000,300.0000 Z"/></g></g><g stroke-linejoin="miter" stroke-opacity="1.0" fill-opacity="1.0" stroke="rgb(0,0,0)" stroke-width="0.0" fill="rgb(193,143,35)" stroke-linecap="butt" stroke-miterlimit="10.0"><defs><clipPath id="distributionmyClip26"><path d="M 452.0000,460.0000 l -0.0000,-400.0000 h -400.0000 l -0.0000,400.0000 Z"/></clipPath></defs><g clip-path="url(#distributionmyClip26)"><path d="M 67.3846,360.0000 l -0.0000,-300.0000 h -15.3846 l -0.0000,300.0000 Z"/></g></g><g stroke-linejoin="miter" stroke-opacity="1.0" fill-opacity="1.0" stroke="rgb(0,0,0)" stroke-width="0.0" fill="rgb(255,255,0)" stroke-linecap="butt" stroke-miterlimit="10.0"><defs><clipPath id="distributionmyClip27"><path d="M 452.0000,460.0000 l -0.0000,-400.0000 h -400.0000 l -0.0000,400.0000 Z"/></clipPath></defs><g clip-path="url(#distributionmyClip27)"><path d="M 452.0000,460.0000 l -0.0000,-200.0000 h -23.0769 l -0.0000,200.0000 Z"/></g></g><g stroke-linejoin="miter" stroke-opacity="1.0" fill-opacity="1.0" stroke="rgb(0,0,0)" stroke-width="0.0" fill="rgb(248,244,7)" stroke-linecap="butt" stroke-miterlimit="10.0"><defs><clipPath id="distributionmyClip28"><path d="M 452.0000,460.0000 l -0.0000,-400.0000 h -400.0000 l -0.0000,400.0000 Z"/></clipPath></defs><g clip-path="url(#distributionmyClip28)"><path d="M 436.6154,460.0000 l -0.0000,-200.0000 h -23.0769 l -0.0000,200.0000 Z"/></g></g><g stroke-linejoin="miter" stroke-opacity="1.0" fill-opacity="1.0" stroke="rgb(0,0,0)" stroke-width="0.0" fill="rgb(249,246,6)" stroke-linecap="butt" stroke-miterlimit="10.0"><defs><clipPath id="distributionmyClip29"><path d="M 452.0000,460.0000 l -0.0000,-400.0000 h -400.0000 l -0.0000,400.0000 Z"/></clipPath></defs><g clip-path="url(#distributionmyClip29)"><path d="M 421.2308,460.0000 l -0.0000,-200.0000 h -23.0769 l -0.0000,200.0000 Z"/></g></g><g stroke-linejoin="miter" stroke-opacity="1.0" fill-opacity="1.0" stroke="rgb(0,0,0)" stroke-width="0.0" fill="rgb(251,249,4)" stroke-linecap="butt" stroke-miterlimit="10.0"><defs><clipPath id="distributionmyClip30"><path d="M 452.0000,460.0000 l -0.0000,-400.0000 h -400.0000 l -0.0000,400.0000 Z"/></clipPath></defs><g clip-path="url(#distributionmyClip30)"><path d="M 405.8462,460.0000 l -0.0000,-200.0000 h -23.0769 l -0.0000,200.0000 Z"/></g></g><g stroke-linejoin="miter" stroke-opacity="1.0" fill-opacity="1.0" stroke="rgb(0,0,0)" stroke-width="0.0" fill="rgb(244,237,12)" stroke-linecap="butt" stroke-miterlimit="10.0"><defs><clipPath id="distributionmyClip31"><path d="M 452.0000,460.0000 l -0.0000,-400.0000 h -400.0000 l -0.0000,400.0000 Z"/></clipPath></defs><g clip-path="url(#distributionmyClip31)"><path d="M 390.4615,460.0000 l -0.0000,-200.0000 h -23.0769 l -0.0000,200.0000 Z"/></g></g><g stroke-linejoin="miter" stroke-opacity="1.0" fill-opacity="1.0" stroke="rgb(0,0,0)" stroke-width="0.0" fill="rgb(245,240,10)" stroke-linecap="butt" stroke-miterlimit="10.0"><defs><clipPath id="distributionmyClip32"><path d="M 452.0000,460.0000 l -0.0000,-400.0000 h -400.0000 l -0.0000,400.0000 Z"/></clipPath></defs><g clip-path="url(#distributionmyClip32)"><path d="M 375.0769,460.0000 l -0.0000,-200.0000 h -23.0769 l -0.0000,200.0000 Z"/></g></g><g stroke-linejoin="miter" stroke-opacity="1.0" fill-opacity="1.0" stroke="rgb(0,0,0)" stroke-width="0.0" fill="rgb(247,243,8)" stroke-linecap="butt" stroke-miterlimit="10.0"><defs><clipPath id="distributionmyClip33"><path d="M 452.0000,460.0000 l -0.0000,-400.0000 h -400.0000 l -0.0000,400.0000 Z"/></clipPath></defs><g clip-path="url(#distributionmyClip33)"><path d="M 359.6923,460.0000 l -0.0000,-200.0000 h -23.0769 l -0.0000,200.0000 Z"/></g></g><g stroke-linejoin="miter" stroke-opacity="1.0" fill-opacity="1.0" stroke="rgb(0,0,0)" stroke-width="0.0" fill="rgb(245,239,10)" stroke-linecap="butt" stroke-miterlimit="10.0"><defs><clipPath id="distributionmyClip34"><path d="M 452.0000,460.0000 l -0.0000,-400.0000 h -400.0000 l -0.0000,400.0000 Z"/></clipPath></defs><g clip-path="url(#distributionmyClip34)"><path d="M 344.3077,460.0000 l -0.0000,-200.0000 h -23.0769 l -0.0000,200.0000 Z"/></g></g><g stroke-linejoin="miter" stroke-opacity="1.0" fill-opacity="1.0" stroke="rgb(0,0,0)" stroke-width="0.0" fill="rgb(242,234,14)" stroke-linecap="butt" stroke-miterlimit="10.0"><defs><clipPath id="distributionmyClip35"><path d="M 452.0000,460.0000 l -0.0000,-400.0000 h -400.0000 l -0.0000,400.0000 Z"/></clipPath></defs><g clip-path="url(#distributionmyClip35)"><path d="M 328.9231,460.0000 l -0.0000,-200.0000 h -23.0769 l -0.0000,200.0000 Z"/></g></g><g stroke-linejoin="miter" stroke-opacity="1.0" fill-opacity="1.0" stroke="rgb(0,0,0)" stroke-width="0.0" fill="rgb(248,244,7)" stroke-linecap="butt" stroke-miterlimit="10.0"><defs><clipPath id="distributionmyClip36"><path d="M 452.0000,460.0000 l -0.0000,-400.0000 h -400.0000 l -0.0000,400.0000 Z"/></clipPath></defs><g clip-path="url(#distributionmyClip36)"><path d="M 313.5385,460.0000 l -0.0000,-200.0000 h -23.0769 l -0.0000,200.0000 Z"/></g></g><g stroke-linejoin="miter" stroke-opacity="1.0" fill-opacity="1.0" stroke="rgb(0,0,0)" stroke-width="0.0" fill="rgb(238,228,16)" stroke-linecap="butt" stroke-miterlimit="10.0"><defs><clipPath id="distributionmyClip37"><path d="M 452.0000,460.0000 l -0.0000,-400.0000 h -400.0000 l -0.0000,400.0000 Z"/></clipPath></defs><g clip-path="url(#distributionmyClip37)"><path d="M 298.1538,460.0000 l -0.0000,-200.0000 h -23.0769 l -0.0000,200.0000 Z"/></g></g><g stroke-linejoin="miter" stroke-opacity="1.0" fill-opacity="1.0" stroke="rgb(0,0,0)" stroke-width="0.0" fill="rgb(244,237,12)" stroke-linecap="butt" stroke-miterlimit="10.0"><defs><clipPath id="distributionmyClip38"><path d="M 452.0000,460.0000 l -0.0000,-400.0000 h -400.0000 l -0.0000,400.0000 Z"/></clipPath></defs><g clip-path="url(#distributionmyClip38)"><path d="M 282.7692,460.0000 l -0.0000,-200.0000 h -23.0769 l -0.0000,200.0000 Z"/></g></g><g stroke-linejoin="miter" stroke-opacity="1.0" fill-opacity="1.0" stroke="rgb(0,0,0)" stroke-width="0.0" fill="rgb(233,219,20)" stroke-linecap="butt" stroke-miterlimit="10.0"><defs><clipPath id="distributionmyClip39"><path d="M 452.0000,460.0000 l -0.0000,-400.0000 h -400.0000 l -0.0000,400.0000 Z"/></clipPath></defs><g clip-path="url(#distributionmyClip39)"><path d="M 267.3846,460.0000 l -0.0000,-200.0000 h -23.0769 l -0.0000,200.0000 Z"/></g></g><g stroke-linejoin="miter" stroke-opacity="1.0" fill-opacity="1.0" stroke="rgb(0,0,0)" stroke-width="0.0" fill="rgb(242,234,13)" stroke-linecap="butt" stroke-miterlimit="10.0"><defs><clipPath id="distributionmyClip40"><path d="M 452.0000,460.0000 l -0.0000,-400.0000 h -400.0000 l -0.0000,400.0000 Z"/></clipPath></defs><g clip-path="url(#distributionmyClip40)"><path d="M 252.0000,460.0000 l -0.0000,-200.0000 h -23.0769 l -0.0000,200.0000 Z"/></g></g><g stroke-linejoin="miter" stroke-opacity="1.0" fill-opacity="1.0" stroke="rgb(0,0,0)" stroke-width="0.0" fill="rgb(239,229,16)" stroke-linecap="butt" stroke-miterlimit="10.0"><defs><clipPath id="distributionmyClip41"><path d="M 452.0000,460.0000 l -0.0000,-400.0000 h -400.0000 l -0.0000,400.0000 Z"/></clipPath></defs><g clip-path="url(#distributionmyClip41)"><path d="M 236.6154,460.0000 l -0.0000,-200.0000 h -23.0769 l -0.0000,200.0000 Z"/></g></g><g stroke-linejoin="miter" stroke-opacity="1.0" fill-opacity="1.0" stroke="rgb(0,0,0)" stroke-width="0.0" fill="rgb(240,231,15)" stroke-linecap="butt" stroke-miterlimit="10.0"><defs><clipPath id="distributionmyClip42"><path d="M 452.0000,460.0000 l -0.0000,-400.0000 h -400.0000 l -0.0000,400.0000 Z"/></clipPath></defs><g clip-path="url(#distributionmyClip42)"><path d="M 221.2308,460.0000 l -0.0000,-200.0000 h -23.0769 l -0.0000,200.0000 Z"/></g></g><g stroke-linejoin="miter" stroke-opacity="1.0" fill-opacity="1.0" stroke="rgb(0,0,0)" stroke-width="0.0" fill="rgb(238,227,17)" stroke-linecap="butt" stroke-miterlimit="10.0"><defs><clipPath id="distributionmyClip43"><path d="M 452.0000,460.0000 l -0.0000,-400.0000 h -400.0000 l -0.0000,400.0000 Z"/></clipPath></defs><g clip-path="url(#distributionmyClip43)"><path d="M 205.8462,460.0000 l -0.0000,-200.0000 h -23.0769 l -0.0000,200.0000 Z"/></g></g><g stroke-linejoin="miter" stroke-opacity="1.0" fill-opacity="1.0" stroke="rgb(0,0,0)" stroke-width="0.0" fill="rgb(228,211,22)" stroke-linecap="butt" stroke-miterlimit="10.0"><defs><clipPath id="distributionmyClip44"><path d="M 452.0000,460.0000 l -0.0000,-400.0000 h -400.0000 l -0.0000,400.0000 Z"/></clipPath></defs><g clip-path="url(#distributionmyClip44)"><path d="M 190.4615,460.0000 l -0.0000,-200.0000 h -23.0769 l -0.0000,200.0000 Z"/></g></g><g stroke-linejoin="miter" stroke-opacity="1.0" fill-opacity="1.0" stroke="rgb(0,0,0)" stroke-width="0.0" fill="rgb(233,220,19)" stroke-linecap="butt" stroke-miterlimit="10.0"><defs><clipPath id="distributionmyClip45"><path d="M 452.0000,460.0000 l -0.0000,-400.0000 h -400.0000 l -0.0000,400.0000 Z"/></clipPath></defs><g clip-path="url(#distributionmyClip45)"><path d="M 175.0769,460.0000 l -0.0000,-200.0000 h -23.0769 l -0.0000,200.0000 Z"/></g></g><g stroke-linejoin="miter" stroke-opacity="1.0" fill-opacity="1.0" stroke="rgb(0,0,0)" stroke-width="0.0" fill="rgb(220,197,26)" stroke-linecap="butt" stroke-miterlimit="10.0"><defs><clipPath id="distributionmyClip46"><path d="M 452.0000,460.0000 l -0.0000,-400.0000 h -400.0000 l -0.0000,400.0000 Z"/></clipPath></defs><g clip-path="url(#distributionmyClip46)"><path d="M 159.6923,460.0000 l -0.0000,-200.0000 h -23.0769 l -0.0000,200.0000 Z"/></g></g><g stroke-linejoin="miter" stroke-opacity="1.0" fill-opacity="1.0" stroke="rgb(0,0,0)" stroke-width="0.0" fill="rgb(214,185,29)" stroke-linecap="butt" stroke-miterlimit="10.0"><defs><clipPath id="distributionmyClip47"><path d="M 452.0000,460.0000 l -0.0000,-400.0000 h -400.0000 l -0.0000,400.0000 Z"/></clipPath></defs><g clip-path="url(#distributionmyClip47)"><path d="M 144.3077,460.0000 l -0.0000,-200.0000 h -23.0769 l -0.0000,200.0000 Z"/></g></g><g stroke-linejoin="miter" stroke-opacity="1.0" fill-opacity="1.0" stroke="rgb(0,0,0)" stroke-width="0.0" fill="rgb(226,207,23)" stroke-linecap="butt" stroke-miterlimit="10.0"><defs><clipPath id="distributionmyClip48"><path d="M 452.0000,460.0000 l -0.0000,-400.0000 h -400.0000 l -0.0000,400.0000 Z"/></clipPath></defs><g clip-path="url(#distributionmyClip48)"><path d="M 128.9231,460.0000 l -0.0000,-200.0000 h -23.0769 l -0.0000,200.0000 Z"/></g></g><g stroke-linejoin="miter" stroke-opacity="1.0" fill-opacity="1.0" stroke="rgb(0,0,0)" stroke-width="0.0" fill="rgb(210,178,30)" stroke-linecap="butt" stroke-miterlimit="10.0"><defs><clipPath id="distributionmyClip49"><path d="M 452.0000,460.0000 l -0.0000,-400.0000 h -400.0000 l -0.0000,400.0000 Z"/></clipPath></defs><g clip-path="url(#distributionmyClip49)"><path d="M 113.5385,460.0000 l -0.0000,-200.0000 h -23.0769 l -0.0000,200.0000 Z"/></g></g><g stroke-linejoin="miter" stroke-opacity="1.0" fill-opacity="1.0" stroke="rgb(0,0,0)" stroke-width="0.0" fill="rgb(188,129,37)" stroke-linecap="butt" stroke-miterlimit="10.0"><defs><clipPath id="distributionmyClip50"><path d="M 452.0000,460.0000 l -0.0000,-400.0000 h -400.0000 l -0.0000,400.0000 Z"/></clipPath></defs><g clip-path="url(#distributionmyClip50)"><path d="M 98.1538,460.0000 l -0.0000,-200.0000 h -23.0769 l -0.0000,200.0000 Z"/></g></g><g stroke-linejoin="miter" stroke-opacity="1.0" fill-opacity="1.0" stroke="rgb(0,0,0)" stroke-width="0.0" fill="rgb(214,184,29)" stroke-linecap="butt" stroke-miterlimit="10.0"><defs><clipPath id="distributionmyClip51"><path d="M 452.0000,460.0000 l -0.0000,-400.0000 h -400.0000 l -0.0000,400.0000 Z"/></clipPath></defs><g clip-path="url(#distributionmyClip51)"><path d="M 82.7692,460.0000 l -0.0000,-200.0000 h -23.0769 l -0.0000,200.0000 Z"/></g></g><g stroke-linejoin="miter" stroke-opacity="1.0" fill-opacity="1.0" stroke="rgb(0,0,0)" stroke-width="0.0" fill="rgb(167,56,42)" stroke-linecap="butt" stroke-miterlimit="10.0"><defs><clipPath id="distributionmyClip52"><path d="M 452.0000,460.0000 l -0.0000,-400.0000 h -400.0000 l -0.0000,400.0000 Z"/></clipPath></defs><g clip-path="url(#distributionmyClip52)"><path d="M 67.3846,460.0000 l -0.0000,-200.0000 h -15.3846 l -0.0000,200.0000 Z"/></g></g><g stroke-linejoin="miter" stroke-opacity="1.0" fill-opacity="1.0" font-size="11.0px" stroke="rgb(0,0,0)" stroke-width="2.147817496902379" fill="rgb(0,0,0)" stroke-linecap="butt" stroke-miterlimit="10.0"><text dominant-baseline="middle" transform="matrix(1.0000,0.0000,0.0000,1.0000,504.0000,86.9836)" stroke="none" text-anchor="start">0.125</text></g><g stroke-linejoin="miter" stroke-opacity="1.0" fill-opacity="1.0" font-size="11.0px" stroke="rgb(0,0,0)" stroke-width="2.147817496902379" fill="rgb(0,0,0)" stroke-linecap="butt" stroke-miterlimit="10.0"><text dominant-baseline="middle" transform="matrix(1.0000,0.0000,0.0000,1.0000,504.0000,161.5869)" stroke="none" text-anchor="start">0.1</text></g><g stroke-linejoin="miter" stroke-opacity="1.0" fill-opacity="1.0" font-size="11.0px" stroke="rgb(0,0,0)" stroke-width="2.147817496902379" fill="rgb(0,0,0)" stroke-linecap="butt" stroke-miterlimit="10.0"><text dominant-baseline="middle" transform="matrix(1.0000,0.0000,0.0000,1.0000,504.0000,236.1902)" stroke="none" text-anchor="start">7.5e-2</text></g><g stroke-linejoin="miter" stroke-opacity="1.0" fill-opacity="1.0" font-size="11.0px" stroke="rgb(0,0,0)" stroke-width="2.147817496902379" fill="rgb(0,0,0)" stroke-linecap="butt" stroke-miterlimit="10.0"><text dominant-baseline="middle" transform="matrix(1.0000,0.0000,0.0000,1.0000,504.0000,310.7934)" stroke="none" text-anchor="start">5.0e-2</text></g><g stroke-linejoin="miter" stroke-opacity="1.0" fill-opacity="1.0" font-size="11.0px" stroke="rgb(0,0,0)" stroke-width="2.147817496902379" fill="rgb(0,0,0)" stroke-linecap="butt" stroke-miterlimit="10.0"><text dominant-baseline="middle" transform="matrix(1.0000,0.0000,0.0000,1.0000,504.0000,385.3967)" stroke="none" text-anchor="start">2.5e-2</text></g><g stroke-linejoin="miter" stroke-opacity="1.0" fill-opacity="1.0" font-size="11.0px" stroke="rgb(0,0,0)" stroke-width="2.147817496902379" fill="rgb(0,0,0)" stroke-linecap="butt" stroke-miterlimit="10.0"><text dominant-baseline="middle" transform="matrix(1.0000,0.0000,0.0000,1.0000,504.0000,460.0000)" stroke="none" text-anchor="start">0.0</text></g><defs><linearGradient x2="0.5000" y1="0.0000" gradientUnits="userSpaceOnUse" spreadMethod="pad" gradientTransform="matrix(-0.0000,-400.0000,-20.0000,-0.0000,482.0000,260.0000)" id="gradient130" y2="0.0000" x1="-0.5000"><stop stop-opacity="1.0000" offset="0.0000" stop-color="rgb(255,255,0)"/><stop stop-opacity="1.0000" offset="1.0000" stop-color="rgb(165,42,42)"/></linearGradient></defs><g stroke-linejoin="miter" stroke-opacity="1.0" fill-opacity="1" stroke="rgb(0,0,0)" stroke-width="0.0" fill="url(#gradient130)" stroke-linecap="butt" stroke-miterlimit="10.0"><path d="M 492.0000,60.0000 l -20.0000,0.0000 v 400.0000 l 20.0000,0.0000 Z"/></g><g stroke-linejoin="miter" stroke-opacity="1.0" fill-opacity="0.0" stroke="rgb(0,0,0)" stroke-width="0.8" fill="rgb(0,0,0)" stroke-linecap="butt" stroke-miterlimit="10.0"><path d="M 492.0000,460.0000 h -20.0000 M 492.0000,385.3967 h -20.0000 M 492.0000,310.7934 h -20.0000 M 492.0000,236.1902 h -20.0000 M 492.0000,161.5869 h -20.0000 M 492.0000,86.9836 h -20.0000 "/></g><g stroke-linejoin="miter" stroke-opacity="1.0" fill-opacity="0.0" stroke="rgb(0,0,0)" stroke-width="0.4" fill="rgb(0,0,0)" stroke-linecap="butt" stroke-miterlimit="10.0"><path d="M 497.0000,86.9836 h -10.0000 "/></g><g stroke-linejoin="miter" stroke-opacity="1.0" fill-opacity="0.0" stroke="rgb(0,0,0)" stroke-width="0.4" fill="rgb(0,0,0)" stroke-linecap="butt" stroke-miterlimit="10.0"><path d="M 497.0000,161.5869 h -10.0000 "/></g><g stroke-linejoin="miter" stroke-opacity="1.0" fill-opacity="0.0" stroke="rgb(0,0,0)" stroke-width="0.4" fill="rgb(0,0,0)" stroke-linecap="butt" stroke-miterlimit="10.0"><path d="M 497.0000,236.1902 h -10.0000 "/></g><g stroke-linejoin="miter" stroke-opacity="1.0" fill-opacity="0.0" stroke="rgb(0,0,0)" stroke-width="0.4" fill="rgb(0,0,0)" stroke-linecap="butt" stroke-miterlimit="10.0"><path d="M 497.0000,310.7934 h -10.0000 "/></g><g stroke-linejoin="miter" stroke-opacity="1.0" fill-opacity="0.0" stroke="rgb(0,0,0)" stroke-width="0.4" fill="rgb(0,0,0)" stroke-linecap="butt" stroke-miterlimit="10.0"><path d="M 497.0000,385.3967 h -10.0000 "/></g><g stroke-linejoin="miter" stroke-opacity="1.0" fill-opacity="0.0" stroke="rgb(0,0,0)" stroke-width="0.4" fill="rgb(0,0,0)" stroke-linecap="butt" stroke-miterlimit="10.0"><path d="M 497.0000,460.0000 h -10.0000 "/></g><g stroke-linejoin="miter" stroke-opacity="1.0" fill-opacity="0.0" stroke="rgb(0,0,0)" stroke-width="2.147817496902379" fill="rgb(0,0,0)" stroke-linecap="butt" stroke-miterlimit="10.0"><path d="M 492.0000,60.0000 l -20.0000,0.0000 v 400.0000 l 20.0000,0.0000 Z"/></g><g stroke-linejoin="miter" stroke-opacity="1.0" fill-opacity="1.0" font-size="11.0px" stroke="rgb(0,0,0)" stroke-width="2.147817496902379" fill="rgb(0,0,0)" stroke-linecap="butt" stroke-miterlimit="10.0"><text dominant-baseline="text-after-edge" transform="matrix(1.0000,0.0000,0.0000,1.0000,252.0000,40.0000)" stroke="none" text-anchor="middle"></text></g></svg>