<?xml version="1.0" encoding="UTF-8"?>
<!DOCTYPE svg PUBLIC "-//W3C//DTD SVG 1.1//EN"
    "http://www.w3.org/Graphics/SVG/1.1/DTD/svg11.dtd"><svg xmlns="http://www.w3.org/2000/svg" height="530.0000" stroke-opacity="1" viewBox="0.0 0.0 544.0 530.0" font-size="1" width="544.0000" xmlns:xlink="http://www.w3.org/1999/xlink" stroke="rgb(0,0,0)" version="1.1"><defs></defs><g stroke-linejoin="miter" stroke-opacity="1.0" fill-opacity="0.0" stroke="rgb(0,0,0)" stroke-width="0.8" fill="rgb(0,0,0)" stroke-linecap="butt" stroke-miterlimit="10.0"><path d="M 52.0000,460.0000 h 400.0000 M 52.0000,360.0000 h 400.0000 M 52.0000,260.0000 h 400.0000 M 52.0000,160.0000 h 400.0000 M 52.0000,60.0000 h 400.0000 "/></g><g stroke-linejoin="miter" stroke-opacity="1.0" fill-opacity="0.0" stroke="rgb(0,0,0)" stroke-width="2.147817496902379" fill="rgb(0,0,0)" stroke-linecap="square" stroke-miterlimit="10.0"><path d="M 52.0000,460.0000 v -400.0000 M 452.0000,460.0000 v -400.0000 "/></g><g stroke-linejoin="miter" stroke-opacity="1.0" fill-opacity="1.0" font-size="11.0px" stroke="rgb(0,0,0)" stroke-width="2.147817496902379" fill="rgb(0,0,0)" stroke-linecap="butt" stroke-miterlimit="10.0"><text dominant-baseline="middle" transform="matrix(1.0000,0.0000,0.0000,1.0000,40.0000,160.0000)" stroke="none" text-anchor="end">technologist</text></g><g stroke-linejoin="miter" stroke-opacity="1.0" fill-opacity="1.0" font-size="11.0px" stroke="rgb(0,0,0)" stroke-width="2.147817496902379" fill="rgb(0,0,0)" stroke-linecap="butt" stroke-miterlimit="10.0"><text dominant-baseline="middle" transform="matrix(1.0000,0.0000,0.0000,1.0000,40.0000,360.0000)" stroke="none" text-anchor="end">technician</text></g><g stroke-linejoin="miter" stroke-opacity="1.0" fill-opacity="0.0" stroke="rgb(0,0,0)" stroke-width="0.8" fill="rgb(0,0,0)" stroke-linecap="butt" stroke-miterlimit="10.0"><path d="M 52.0000,460.0000 v -400.0000 M 128.9231,460.0000 v -400.0000 M 205.8462,460.0000 v -400.0000 M 282.7692,460.0000 v -400.0000 M 359.6923,460.0000 v -400.0000 M 436.6154,460.0000 v -400.0000 "/></g><g stroke-linejoin="miter" stroke-opacity="1.0" fill-opacity="0.0" stroke="rgb(0,0,0)" stroke-width="2.147817496902379" fill="rgb(0,0,0)" stroke-linecap="square" stroke-miterlimit="10.0"><path d="M 52.0000,460.0000 h 400.0000 M 52.0000,60.0000 h 400.0000 "/></g><g stroke-linejoin="miter" stroke-opacity="1.0" fill-opacity="1.0" font-size="11.0px" stroke="rgb(0,0,0)" stroke-width="2.147817496902379" fill="rgb(0,0,0)" stroke-linecap="butt" stroke-miterlimit="10.0"><text dominant-baseline="text-before-edge" transform="matrix(1.0000,0.0000,0.0000,1.0000,252.0000,490.0000)" stroke="none" text-anchor="middle">Participating sleeper</text></g><g stroke-linejoin="miter" stroke-opacity="1.0" fill-opacity="1.0" font-size="11.0px" stroke="rgb(0,0,0)" stroke-width="2.147817496902379" fill="rgb(0,0,0)" stroke-linecap="butt" stroke-miterlimit="10.0"><text dominant-baseline="text-before-edge" transform="matrix(1.0000,0.0000,0.0000,1.0000,444.3077,472.0000)" stroke="none" text-anchor="middle">#26</text></g><g stroke-linejoin="miter" stroke-opacity="1.0" fill-opacity="1.0" font-size="11.0px" stroke="rgb(0,0,0)" stroke-width="2.147817496902379" fill="rgb(0,0,0)" stroke-linecap="butt" stroke-miterlimit="10.0"><text dominant-baseline="text-before-edge" transform="matrix(1.0000,0.0000,0.0000,1.0000,367.3846,472.0000)" stroke="none" text-anchor="middle">#21</text></g><g stroke-linejoin="miter" stroke-opacity="1.0" fill-opacity="1.0" font-size="11.0px" stroke="rgb(0,0,0)" stroke-width="2.147817496902379" fill="rgb(0,0,0)" stroke-linecap="butt" stroke-miterlimit="10.0"><text dominant-baseline="text-before-edge" transform="matrix(1.0000,0.0000,0.0000,1.0000,290.4615,472.0000)" stroke="none" text-anchor="middle">#16</text></g><g stroke-linejoin="miter" stroke-opacity="1.0" fill-opacity="1.0" font-size="11.0px" stroke="rgb(0,0,0)" stroke-width="2.147817496902379" fill="rgb(0,0,0)" stroke-linecap="butt" stroke-miterlimit="10.0"><text dominant-baseline="text-before-edge" transform="matrix(1.0000,0.0000,0.0000,1.0000,213.5385,472.0000)" stroke="none" text-anchor="middle">#11</text></g><g stroke-linejoin="miter" stroke-opacity="1.0" fill-opacity="1.0" font-size="11.0px" stroke="rgb(0,0,0)" stroke-width="2.147817496902379" fill="rgb(0,0,0)" stroke-linecap="butt" stroke-miterlimit="10.0"><text dominant-baseline="text-before-edge" transform="matrix(1.0000,0.0000,0.0000,1.0000,136.6154,472.0000)" stroke="none" text-anchor="middle">#6</text></g><g stroke-linejoin="miter" stroke-opacity="1.0" fill-opacity="1.0" font-size="11.0px" stroke="rgb(0,0,0)" stroke-width="2.147817496902379" fill="rgb(0,0,0)" stroke-linecap="butt" stroke-miterlimit="10.0"><text dominant-baseline="text-before-edge" transform="matrix(1.0000,0.0000,0.0000,1.0000,59.6923,472.0000)" stroke="none" text-anchor="middle">#1</text></g><g stroke-linejoin="miter" stroke-opacity="1.0" fill-opacity="1.0" stroke="rgb(0,0,0)" stroke-width="0.0" fill="rgb(255,204,204)" stroke-linecap="butt" stroke-miterlimit="10.0"><defs><clipPath id="manualmyClip1"><path d="M 452.0000,460.0000 l -0.0000,-400.0000 h -400.0000 l -0.0000,400.0000 Z"/></clipPath></defs><g clip-path="url(#manualmyClip1)"><path d="M 452.0000,360.0000 l -0.0000,-300.0000 h -23.0769 l -0.0000,300.0000 Z"/></g></g><g stroke-linejoin="miter" stroke-opacity="1.0" fill-opacity="1.0" stroke="rgb(0,0,0)" stroke-width="0.0" fill="rgb(255,194,194)" stroke-linecap="butt" stroke-miterlimit="10.0"><defs><clipPath id="manualmyClip2"><path d="M 452.0000,460.0000 l -0.0000,-400.0000 h -400.0000 l -0.0000,400.0000 Z"/></clipPath></defs><g clip-path="url(#manualmyClip2)"><path d="M 436.6154,360.0000 l -0.0000,-300.0000 h -23.0769 l -0.0000,300.0000 Z"/></g></g><g stroke-linejoin="miter" stroke-opacity="1.0" fill-opacity="1.0" stroke="rgb(0,0,0)" stroke-width="0.0" fill="rgb(255,200,200)" stroke-linecap="butt" stroke-miterlimit="10.0"><defs><clipPath id="manualmyClip3"><path d="M 452.0000,460.0000 l -0.0000,-400.0000 h -400.0000 l -0.0000,400.0000 Z"/></clipPath></defs><g clip-path="url(#manualmyClip3)"><path d="M 421.2308,360.0000 l -0.0000,-300.0000 h -23.0769 l -0.0000,300.0000 Z"/></g></g><g stroke-linejoin="miter" stroke-opacity="1.0" fill-opacity="1.0" stroke="rgb(0,0,0)" stroke-width="0.0" fill="rgb(255,221,221)" stroke-linecap="butt" stroke-miterlimit="10.0"><defs><clipPath id="manualmyClip4"><path d="M 452.0000,460.0000 l -0.0000,-400.0000 h -400.0000 l -0.0000,400.0000 Z"/></clipPath></defs><g clip-path="url(#manualmyClip4)"><path d="M 405.8462,360.0000 l -0.0000,-300.0000 h -23.0769 l -0.0000,300.0000 Z"/></g></g><g stroke-linejoin="miter" stroke-opacity="1.0" fill-opacity="1.0" stroke="rgb(0,0,0)" stroke-width="0.0" fill="rgb(255,236,236)" stroke-linecap="butt" stroke-miterlimit="10.0"><defs><clipPath id="manualmyClip5"><path d="M 452.0000,460.0000 l -0.0000,-400.0000 h -400.0000 l -0.0000,400.0000 Z"/></clipPath></defs><g clip-path="url(#manualmyClip5)"><path d="M 390.4615,360.0000 l -0.0000,-300.0000 h -23.0769 l -0.0000,300.0000 Z"/></g></g><g stroke-linejoin="miter" stroke-opacity="1.0" fill-opacity="1.0" stroke="rgb(0,0,0)" stroke-width="0.0" fill="rgb(255,237,237)" stroke-linecap="butt" stroke-miterlimit="10.0"><defs><clipPath id="manualmyClip6"><path d="M 452.0000,460.0000 l -0.0000,-400.0000 h -400.0000 l -0.0000,400.0000 Z"/></clipPath></defs><g clip-path="url(#manualmyClip6)"><path d="M 375.0769,360.0000 l -0.0000,-300.0000 h -23.0769 l -0.0000,300.0000 Z"/></g></g><g stroke-linejoin="miter" stroke-opacity="1.0" fill-opacity="1.0" stroke="rgb(0,0,0)" stroke-width="0.0" fill="rgb(255,226,226)" stroke-linecap="butt" stroke-miterlimit="10.0"><defs><clipPath id="manualmyClip7"><path d="M 452.0000,460.0000 l -0.0000,-400.0000 h -400.0000 l -0.0000,400.0000 Z"/></clipPath></defs><g clip-path="url(#manualmyClip7)"><path d="M 359.6923,360.0000 l -0.0000,-300.0000 h -23.0769 l -0.0000,300.0000 Z"/></g></g><g stroke-linejoin="miter" stroke-opacity="1.0" fill-opacity="1.0" stroke="rgb(0,0,0)" stroke-width="0.0" fill="rgb(255,234,234)" stroke-linecap="butt" stroke-miterlimit="10.0"><defs><clipPath id="manualmyClip8"><path d="M 452.0000,460.0000 l -0.0000,-400.0000 h -400.0000 l -0.0000,400.0000 Z"/></clipPath></defs><g clip-path="url(#manualmyClip8)"><path d="M 344.3077,360.0000 l -0.0000,-300.0000 h -23.0769 l -0.0000,300.0000 Z"/></g></g><g stroke-linejoin="miter" stroke-opacity="1.0" fill-opacity="1.0" stroke="rgb(0,0,0)" stroke-width="0.0" fill="rgb(255,250,250)" stroke-linecap="butt" stroke-miterlimit="10.0"><defs><clipPath id="manualmyClip9"><path d="M 452.0000,460.0000 l -0.0000,-400.0000 h -400.0000 l -0.0000,400.0000 Z"/></clipPath></defs><g clip-path="url(#manualmyClip9)"><path d="M 328.9231,360.0000 l -0.0000,-300.0000 h -23.0769 l -0.0000,300.0000 Z"/></g></g><g stroke-linejoin="miter" stroke-opacity="1.0" fill-opacity="1.0" stroke="rgb(0,0,0)" stroke-width="0.0" fill="rgb(255,234,234)" stroke-linecap="butt" stroke-miterlimit="10.0"><defs><clipPath id="manualmyClip10"><path d="M 452.0000,460.0000 l -0.0000,-400.0000 h -400.0000 l -0.0000,400.0000 Z"/></clipPath></defs><g clip-path="url(#manualmyClip10)"><path d="M 313.5385,360.0000 l -0.0000,-300.0000 h -23.0769 l -0.0000,300.0000 Z"/></g></g><g stroke-linejoin="miter" stroke-opacity="1.0" fill-opacity="1.0" stroke="rgb(0,0,0)" stroke-width="0.0" fill="rgb(255,232,232)" stroke-linecap="butt" stroke-miterlimit="10.0"><defs><clipPath id="manualmyClip11"><path d="M 452.0000,460.0000 l -0.0000,-400.0000 h -400.0000 l -0.0000,400.0000 Z"/></clipPath></defs><g clip-path="url(#manualmyClip11)"><path d="M 298.1538,360.0000 l -0.0000,-300.0000 h -23.0769 l -0.0000,300.0000 Z"/></g></g><g stroke-linejoin="miter" stroke-opacity="1.0" fill-opacity="1.0" stroke="rgb(0,0,0)" stroke-width="0.0" fill="rgb(255,234,234)" stroke-linecap="butt" stroke-miterlimit="10.0"><defs><clipPath id="manualmyClip12"><path d="M 452.0000,460.0000 l -0.0000,-400.0000 h -400.0000 l -0.0000,400.0000 Z"/></clipPath></defs><g clip-path="url(#manualmyClip12)"><path d="M 282.7692,360.0000 l -0.0000,-300.0000 h -23.0769 l -0.0000,300.0000 Z"/></g></g><g stroke-linejoin="miter" stroke-opacity="1.0" fill-opacity="1.0" stroke="rgb(0,0,0)" stroke-width="0.0" fill="rgb(255,251,251)" stroke-linecap="butt" stroke-miterlimit="10.0"><defs><clipPath id="manualmyClip13"><path d="M 452.0000,460.0000 l -0.0000,-400.0000 h -400.0000 l -0.0000,400.0000 Z"/></clipPath></defs><g clip-path="url(#manualmyClip13)"><path d="M 267.3846,360.0000 l -0.0000,-300.0000 h -23.0769 l -0.0000,300.0000 Z"/></g></g><g stroke-linejoin="miter" stroke-opacity="1.0" fill-opacity="1.0" stroke="rgb(0,0,0)" stroke-width="0.0" fill="rgb(255,237,237)" stroke-linecap="butt" stroke-miterlimit="10.0"><defs><clipPath id="manualmyClip14"><path d="M 452.0000,460.0000 l -0.0000,-400.0000 h -400.0000 l -0.0000,400.0000 Z"/></clipPath></defs><g clip-path="url(#manualmyClip14)"><path d="M 252.0000,360.0000 l -0.0000,-300.0000 h -23.0769 l -0.0000,300.0000 Z"/></g></g><g stroke-linejoin="miter" stroke-opacity="1.0" fill-opacity="1.0" stroke="rgb(0,0,0)" stroke-width="0.0" fill="rgb(255,233,233)" stroke-linecap="butt" stroke-miterlimit="10.0"><defs><clipPath id="manualmyClip15"><path d="M 452.0000,460.0000 l -0.0000,-400.0000 h -400.0000 l -0.0000,400.0000 Z"/></clipPath></defs><g clip-path="url(#manualmyClip15)"><path d="M 236.6154,360.0000 l -0.0000,-300.0000 h -23.0769 l -0.0000,300.0000 Z"/></g></g><g stroke-linejoin="miter" stroke-opacity="1.0" fill-opacity="1.0" stroke="rgb(0,0,0)" stroke-width="0.0" fill="rgb(255,249,249)" stroke-linecap="butt" stroke-miterlimit="10.0"><defs><clipPath id="manualmyClip16"><path d="M 452.0000,460.0000 l -0.0000,-400.0000 h -400.0000 l -0.0000,400.0000 Z"/></clipPath></defs><g clip-path="url(#manualmyClip16)"><path d="M 221.2308,360.0000 l -0.0000,-300.0000 h -23.0769 l -0.0000,300.0000 Z"/></g></g><g stroke-linejoin="miter" stroke-opacity="1.0" fill-opacity="1.0" stroke="rgb(0,0,0)" stroke-width="0.0" fill="rgb(255,249,249)" stroke-linecap="butt" stroke-miterlimit="10.0"><defs><clipPath id="manualmyClip17"><path d="M 452.0000,460.0000 l -0.0000,-400.0000 h -400.0000 l -0.0000,400.0000 Z"/></clipPath></defs><g clip-path="url(#manualmyClip17)"><path d="M 205.8462,360.0000 l -0.0000,-300.0000 h -23.0769 l -0.0000,300.0000 Z"/></g></g><g stroke-linejoin="miter" stroke-opacity="1.0" fill-opacity="1.0" stroke="rgb(0,0,0)" stroke-width="0.0" fill="rgb(255,249,249)" stroke-linecap="butt" stroke-miterlimit="10.0"><defs><clipPath id="manualmyClip18"><path d="M 452.0000,460.0000 l -0.0000,-400.0000 h -400.0000 l -0.0000,400.0000 Z"/></clipPath></defs><g clip-path="url(#manualmyClip18)"><path d="M 190.4615,360.0000 l -0.0000,-300.0000 h -23.0769 l -0.0000,300.0000 Z"/></g></g><g stroke-linejoin="miter" stroke-opacity="1.0" fill-opacity="1.0" stroke="rgb(0,0,0)" stroke-width="0.0" fill="rgb(255,245,245)" stroke-linecap="butt" stroke-miterlimit="10.0"><defs><clipPath id="manualmyClip19"><path d="M 452.0000,460.0000 l -0.0000,-400.0000 h -400.0000 l -0.0000,400.0000 Z"/></clipPath></defs><g clip-path="url(#manualmyClip19)"><path d="M 175.0769,360.0000 l -0.0000,-300.0000 h -23.0769 l -0.0000,300.0000 Z"/></g></g><g stroke-linejoin="miter" stroke-opacity="1.0" fill-opacity="1.0" stroke="rgb(0,0,0)" stroke-width="0.0" fill="rgb(255,248,248)" stroke-linecap="butt" stroke-miterlimit="10.0"><defs><clipPath id="manualmyClip20"><path d="M 452.0000,460.0000 l -0.0000,-400.0000 h -400.0000 l -0.0000,400.0000 Z"/></clipPath></defs><g clip-path="url(#manualmyClip20)"><path d="M 159.6923,360.0000 l -0.0000,-300.0000 h -23.0769 l -0.0000,300.0000 Z"/></g></g><g stroke-linejoin="miter" stroke-opacity="1.0" fill-opacity="1.0" stroke="rgb(0,0,0)" stroke-width="0.0" fill="rgb(255,255,255)" stroke-linecap="butt" stroke-miterlimit="10.0"><defs><clipPath id="manualmyClip21"><path d="M 452.0000,460.0000 l -0.0000,-400.0000 h -400.0000 l -0.0000,400.0000 Z"/></clipPath></defs><g clip-path="url(#manualmyClip21)"><path d="M 144.3077,360.0000 l -0.0000,-300.0000 h -23.0769 l -0.0000,300.0000 Z"/></g></g><g stroke-linejoin="miter" stroke-opacity="1.0" fill-opacity="1.0" stroke="rgb(0,0,0)" stroke-width="0.0" fill="rgb(255,249,249)" stroke-linecap="butt" stroke-miterlimit="10.0"><defs><clipPath id="manualmyClip22"><path d="M 452.0000,460.0000 l -0.0000,-400.0000 h -400.0000 l -0.0000,400.0000 Z"/></clipPath></defs><g clip-path="url(#manualmyClip22)"><path d="M 128.9231,360.0000 l -0.0000,-300.0000 h -23.0769 l -0.0000,300.0000 Z"/></g></g><g stroke-linejoin="miter" stroke-opacity="1.0" fill-opacity="1.0" stroke="rgb(0,0,0)" stroke-width="0.0" fill="rgb(255,245,245)" stroke-linecap="butt" stroke-miterlimit="10.0"><defs><clipPath id="manualmyClip23"><path d="M 452.0000,460.0000 l -0.0000,-400.0000 h -400.0000 l -0.0000,400.0000 Z"/></clipPath></defs><g clip-path="url(#manualmyClip23)"><path d="M 113.5385,360.0000 l -0.0000,-300.0000 h -23.0769 l -0.0000,300.0000 Z"/></g></g><g stroke-linejoin="miter" stroke-opacity="1.0" fill-opacity="1.0" stroke="rgb(0,0,0)" stroke-width="0.0" fill="rgb(255,248,248)" stroke-linecap="butt" stroke-miterlimit="10.0"><defs><clipPath id="manualmyClip24"><path d="M 452.0000,460.0000 l -0.0000,-400.0000 h -400.0000 l -0.0000,400.0000 Z"/></clipPath></defs><g clip-path="url(#manualmyClip24)"><path d="M 98.1538,360.0000 l -0.0000,-300.0000 h -23.0769 l -0.0000,300.0000 Z"/></g></g><g stroke-linejoin="miter" stroke-opacity="1.0" fill-opacity="1.0" stroke="rgb(0,0,0)" stroke-width="0.0" fill="rgb(255,255,255)" stroke-linecap="butt" stroke-miterlimit="10.0"><defs><clipPath id="manualmyClip25"><path d="M 452.0000,460.0000 l -0.0000,-400.0000 h -400.0000 l -0.0000,400.0000 Z"/></clipPath></defs><g clip-path="url(#manualmyClip25)"><path d="M 82.7692,360.0000 l -0.0000,-300.0000 h -23.0769 l -0.0000,300.0000 Z"/></g></g><g stroke-linejoin="miter" stroke-opacity="1.0" fill-opacity="1.0" stroke="rgb(0,0,0)" stroke-width="0.0" fill="rgb(255,254,254)" stroke-linecap="butt" stroke-miterlimit="10.0"><defs><clipPath id="manualmyClip26"><path d="M 452.0000,460.0000 l -0.0000,-400.0000 h -400.0000 l -0.0000,400.0000 Z"/></clipPath></defs><g clip-path="url(#manualmyClip26)"><path d="M 67.3846,360.0000 l -0.0000,-300.0000 h -15.3846 l -0.0000,300.0000 Z"/></g></g><g stroke-linejoin="miter" stroke-opacity="1.0" fill-opacity="1.0" stroke="rgb(0,0,0)" stroke-width="0.0" fill="rgb(255,0,0)" stroke-linecap="butt" stroke-miterlimit="10.0"><defs><clipPath id="manualmyClip27"><path d="M 452.0000,460.0000 l -0.0000,-400.0000 h -400.0000 l -0.0000,400.0000 Z"/></clipPath></defs><g clip-path="url(#manualmyClip27)"><path d="M 452.0000,460.0000 l -0.0000,-200.0000 h -23.0769 l -0.0000,200.0000 Z"/></g></g><g stroke-linejoin="miter" stroke-opacity="1.0" fill-opacity="1.0" stroke="rgb(0,0,0)" stroke-width="0.0" fill="rgb(255,194,194)" stroke-linecap="butt" stroke-miterlimit="10.0"><defs><clipPath id="manualmyClip28"><path d="M 452.0000,460.0000 l -0.0000,-400.0000 h -400.0000 l -0.0000,400.0000 Z"/></clipPath></defs><g clip-path="url(#manualmyClip28)"><path d="M 436.6154,460.0000 l -0.0000,-200.0000 h -23.0769 l -0.0000,200.0000 Z"/></g></g><g stroke-linejoin="miter" stroke-opacity="1.0" fill-opacity="1.0" stroke="rgb(0,0,0)" stroke-width="0.0" fill="rgb(255,202,202)" stroke-linecap="butt" stroke-miterlimit="10.0"><defs><clipPath id="manualmyClip29"><path d="M 452.0000,460.0000 l -0.0000,-400.0000 h -400.0000 l -0.0000,400.0000 Z"/></clipPath></defs><g clip-path="url(#manualmyClip29)"><path d="M 421.2308,460.0000 l -0.0000,-200.0000 h -23.0769 l -0.0000,200.0000 Z"/></g></g><g stroke-linejoin="miter" stroke-opacity="1.0" fill-opacity="1.0" stroke="rgb(0,0,0)" stroke-width="0.0" fill="rgb(255,180,180)" stroke-linecap="butt" stroke-miterlimit="10.0"><defs><clipPath id="manualmyClip30"><path d="M 452.0000,460.0000 l -0.0000,-400.0000 h -400.0000 l -0.0000,400.0000 Z"/></clipPath></defs><g clip-path="url(#manualmyClip30)"><path d="M 405.8462,460.0000 l -0.0000,-200.0000 h -23.0769 l -0.0000,200.0000 Z"/></g></g><g stroke-linejoin="miter" stroke-opacity="1.0" fill-opacity="1.0" stroke="rgb(0,0,0)" stroke-width="0.0" fill="rgb(255,175,175)" stroke-linecap="butt" stroke-miterlimit="10.0"><defs><clipPath id="manualmyClip31"><path d="M 452.0000,460.0000 l -0.0000,-400.0000 h -400.0000 l -0.0000,400.0000 Z"/></clipPath></defs><g clip-path="url(#manualmyClip31)"><path d="M 390.4615,460.0000 l -0.0000,-200.0000 h -23.0769 l -0.0000,200.0000 Z"/></g></g><g stroke-linejoin="miter" stroke-opacity="1.0" fill-opacity="1.0" stroke="rgb(0,0,0)" stroke-width="0.0" fill="rgb(255,204,204)" stroke-linecap="butt" stroke-miterlimit="10.0"><defs><clipPath id="manualmyClip32"><path d="M 452.0000,460.0000 l -0.0000,-400.0000 h -400.0000 l -0.0000,400.0000 Z"/></clipPath></defs><g clip-path="url(#manualmyClip32)"><path d="M 375.0769,460.0000 l -0.0000,-200.0000 h -23.0769 l -0.0000,200.0000 Z"/></g></g><g stroke-linejoin="miter" stroke-opacity="1.0" fill-opacity="1.0" stroke="rgb(0,0,0)" stroke-width="0.0" fill="rgb(255,220,220)" stroke-linecap="butt" stroke-miterlimit="10.0"><defs><clipPath id="manualmyClip33"><path d="M 452.0000,460.0000 l -0.0000,-400.0000 h -400.0000 l -0.0000,400.0000 Z"/></clipPath></defs><g clip-path="url(#manualmyClip33)"><path d="M 359.6923,460.0000 l -0.0000,-200.0000 h -23.0769 l -0.0000,200.0000 Z"/></g></g><g stroke-linejoin="miter" stroke-opacity="1.0" fill-opacity="1.0" stroke="rgb(0,0,0)" stroke-width="0.0" fill="rgb(255,222,222)" stroke-linecap="butt" stroke-miterlimit="10.0"><defs><clipPath id="manualmyClip34"><path d="M 452.0000,460.0000 l -0.0000,-400.0000 h -400.0000 l -0.0000,400.0000 Z"/></clipPath></defs><g clip-path="url(#manualmyClip34)"><path d="M 344.3077,460.0000 l -0.0000,-200.0000 h -23.0769 l -0.0000,200.0000 Z"/></g></g><g stroke-linejoin="miter" stroke-opacity="1.0" fill-opacity="1.0" stroke="rgb(0,0,0)" stroke-width="0.0" fill="rgb(255,206,206)" stroke-linecap="butt" stroke-miterlimit="10.0"><defs><clipPath id="manualmyClip35"><path d="M 452.0000,460.0000 l -0.0000,-400.0000 h -400.0000 l -0.0000,400.0000 Z"/></clipPath></defs><g clip-path="url(#manualmyClip35)"><path d="M 328.9231,460.0000 l -0.0000,-200.0000 h -23.0769 l -0.0000,200.0000 Z"/></g></g><g stroke-linejoin="miter" stroke-opacity="1.0" fill-opacity="1.0" stroke="rgb(0,0,0)" stroke-width="0.0" fill="rgb(255,226,226)" stroke-linecap="butt" stroke-miterlimit="10.0"><defs><clipPath id="manualmyClip36"><path d="M 452.0000,460.0000 l -0.0000,-400.0000 h -400.0000 l -0.0000,400.0000 Z"/></clipPath></defs><g clip-path="url(#manualmyClip36)"><path d="M 313.5385,460.0000 l -0.0000,-200.0000 h -23.0769 l -0.0000,200.0000 Z"/></g></g><g stroke-linejoin="miter" stroke-opacity="1.0" fill-opacity="1.0" stroke="rgb(0,0,0)" stroke-width="0.0" fill="rgb(255,234,234)" stroke-linecap="butt" stroke-miterlimit="10.0"><defs><clipPath id="manualmyClip37"><path d="M 452.0000,460.0000 l -0.0000,-400.0000 h -400.0000 l -0.0000,400.0000 Z"/></clipPath></defs><g clip-path="url(#manualmyClip37)"><path d="M 298.1538,460.0000 l -0.0000,-200.0000 h -23.0769 l -0.0000,200.0000 Z"/></g></g><g stroke-linejoin="miter" stroke-opacity="1.0" fill-opacity="1.0" stroke="rgb(0,0,0)" stroke-width="0.0" fill="rgb(255,232,232)" stroke-linecap="butt" stroke-miterlimit="10.0"><defs><clipPath id="manualmyClip38"><path d="M 452.0000,460.0000 l -0.0000,-400.0000 h -400.0000 l -0.0000,400.0000 Z"/></clipPath></defs><g clip-path="url(#manualmyClip38)"><path d="M 282.7692,460.0000 l -0.0000,-200.0000 h -23.0769 l -0.0000,200.0000 Z"/></g></g><g stroke-linejoin="miter" stroke-opacity="1.0" fill-opacity="1.0" stroke="rgb(0,0,0)" stroke-width="0.0" fill="rgb(255,218,218)" stroke-linecap="butt" stroke-miterlimit="10.0"><defs><clipPath id="manualmyClip39"><path d="M 452.0000,460.0000 l -0.0000,-400.0000 h -400.0000 l -0.0000,400.0000 Z"/></clipPath></defs><g clip-path="url(#manualmyClip39)"><path d="M 267.3846,460.0000 l -0.0000,-200.0000 h -23.0769 l -0.0000,200.0000 Z"/></g></g><g stroke-linejoin="miter" stroke-opacity="1.0" fill-opacity="1.0" stroke="rgb(0,0,0)" stroke-width="0.0" fill="rgb(255,234,234)" stroke-linecap="butt" stroke-miterlimit="10.0"><defs><clipPath id="manualmyClip40"><path d="M 452.0000,460.0000 l -0.0000,-400.0000 h -400.0000 l -0.0000,400.0000 Z"/></clipPath></defs><g clip-path="url(#manualmyClip40)"><path d="M 252.0000,460.0000 l -0.0000,-200.0000 h -23.0769 l -0.0000,200.0000 Z"/></g></g><g stroke-linejoin="miter" stroke-opacity="1.0" fill-opacity="1.0" stroke="rgb(0,0,0)" stroke-width="0.0" fill="rgb(255,243,243)" stroke-linecap="butt" stroke-miterlimit="10.0"><defs><clipPath id="manualmyClip41"><path d="M 452.0000,460.0000 l -0.0000,-400.0000 h -400.0000 l -0.0000,400.0000 Z"/></clipPath></defs><g clip-path="url(#manualmyClip41)"><path d="M 236.6154,460.0000 l -0.0000,-200.0000 h -23.0769 l -0.0000,200.0000 Z"/></g></g><g stroke-linejoin="miter" stroke-opacity="1.0" fill-opacity="1.0" stroke="rgb(0,0,0)" stroke-width="0.0" fill="rgb(255,230,230)" stroke-linecap="butt" stroke-miterlimit="10.0"><defs><clipPath id="manualmyClip42"><path d="M 452.0000,460.0000 l -0.0000,-400.0000 h -400.0000 l -0.0000,400.0000 Z"/></clipPath></defs><g clip-path="url(#manualmyClip42)"><path d="M 221.2308,460.0000 l -0.0000,-200.0000 h -23.0769 l -0.0000,200.0000 Z"/></g></g><g stroke-linejoin="miter" stroke-opacity="1.0" fill-opacity="1.0" stroke="rgb(0,0,0)" stroke-width="0.0" fill="rgb(255,230,230)" stroke-linecap="butt" stroke-miterlimit="10.0"><defs><clipPath id="manualmyClip43"><path d="M 452.0000,460.0000 l -0.0000,-400.0000 h -400.0000 l -0.0000,400.0000 Z"/></clipPath></defs><g clip-path="url(#manualmyClip43)"><path d="M 205.8462,460.0000 l -0.0000,-200.0000 h -23.0769 l -0.0000,200.0000 Z"/></g></g><g stroke-linejoin="miter" stroke-opacity="1.0" fill-opacity="1.0" stroke="rgb(0,0,0)" stroke-width="0.0" fill="rgb(255,234,234)" stroke-linecap="butt" stroke-miterlimit="10.0"><defs><clipPath id="manualmyClip44"><path d="M 452.0000,460.0000 l -0.0000,-400.0000 h -400.0000 l -0.0000,400.0000 Z"/></clipPath></defs><g clip-path="url(#manualmyClip44)"><path d="M 190.4615,460.0000 l -0.0000,-200.0000 h -23.0769 l -0.0000,200.0000 Z"/></g></g><g stroke-linejoin="miter" stroke-opacity="1.0" fill-opacity="1.0" stroke="rgb(0,0,0)" stroke-width="0.0" fill="rgb(255,238,238)" stroke-linecap="butt" stroke-miterlimit="10.0"><defs><clipPath id="manualmyClip45"><path d="M 452.0000,460.0000 l -0.0000,-400.0000 h -400.0000 l -0.0000,400.0000 Z"/></clipPath></defs><g clip-path="url(#manualmyClip45)"><path d="M 175.0769,460.0000 l -0.0000,-200.0000 h -23.0769 l -0.0000,200.0000 Z"/></g></g><g stroke-linejoin="miter" stroke-opacity="1.0" fill-opacity="1.0" stroke="rgb(0,0,0)" stroke-width="0.0" fill="rgb(255,237,237)" stroke-linecap="butt" stroke-miterlimit="10.0"><defs><clipPath id="manualmyClip46"><path d="M 452.0000,460.0000 l -0.0000,-400.0000 h -400.0000 l -0.0000,400.0000 Z"/></clipPath></defs><g clip-path="url(#manualmyClip46)"><path d="M 159.6923,460.0000 l -0.0000,-200.0000 h -23.0769 l -0.0000,200.0000 Z"/></g></g><g stroke-linejoin="miter" stroke-opacity="1.0" fill-opacity="1.0" stroke="rgb(0,0,0)" stroke-width="0.0" fill="rgb(255,234,234)" stroke-linecap="butt" stroke-miterlimit="10.0"><defs><clipPath id="manualmyClip47"><path d="M 452.0000,460.0000 l -0.0000,-400.0000 h -400.0000 l -0.0000,400.0000 Z"/></clipPath></defs><g clip-path="url(#manualmyClip47)"><path d="M 144.3077,460.0000 l -0.0000,-200.0000 h -23.0769 l -0.0000,200.0000 Z"/></g></g><g stroke-linejoin="miter" stroke-opacity="1.0" fill-opacity="1.0" stroke="rgb(0,0,0)" stroke-width="0.0" fill="rgb(255,245,245)" stroke-linecap="butt" stroke-miterlimit="10.0"><defs><clipPath id="manualmyClip48"><path d="M 452.0000,460.0000 l -0.0000,-400.0000 h -400.0000 l -0.0000,400.0000 Z"/></clipPath></defs><g clip-path="url(#manualmyClip48)"><path d="M 128.9231,460.0000 l -0.0000,-200.0000 h -23.0769 l -0.0000,200.0000 Z"/></g></g><g stroke-linejoin="miter" stroke-opacity="1.0" fill-opacity="1.0" stroke="rgb(0,0,0)" stroke-width="0.0" fill="rgb(255,249,249)" stroke-linecap="butt" stroke-miterlimit="10.0"><defs><clipPath id="manualmyClip49"><path d="M 452.0000,460.0000 l -0.0000,-400.0000 h -400.0000 l -0.0000,400.0000 Z"/></clipPath></defs><g clip-path="url(#manualmyClip49)"><path d="M 113.5385,460.0000 l -0.0000,-200.0000 h -23.0769 l -0.0000,200.0000 Z"/></g></g><g stroke-linejoin="miter" stroke-opacity="1.0" fill-opacity="1.0" stroke="rgb(0,0,0)" stroke-width="0.0" fill="rgb(255,247,247)" stroke-linecap="butt" stroke-miterlimit="10.0"><defs><clipPath id="manualmyClip50"><path d="M 452.0000,460.0000 l -0.0000,-400.0000 h -400.0000 l -0.0000,400.0000 Z"/></clipPath></defs><g clip-path="url(#manualmyClip50)"><path d="M 98.1538,460.0000 l -0.0000,-200.0000 h -23.0769 l -0.0000,200.0000 Z"/></g></g><g stroke-linejoin="miter" stroke-opacity="1.0" fill-opacity="1.0" stroke="rgb(0,0,0)" stroke-width="0.0" fill="rgb(255,247,247)" stroke-linecap="butt" stroke-miterlimit="10.0"><defs><clipPath id="manualmyClip51"><path d="M 452.0000,460.0000 l -0.0000,-400.0000 h -400.0000 l -0.0000,400.0000 Z"/></clipPath></defs><g clip-path="url(#manualmyClip51)"><path d="M 82.7692,460.0000 l -0.0000,-200.0000 h -23.0769 l -0.0000,200.0000 Z"/></g></g><g stroke-linejoin="miter" stroke-opacity="1.0" fill-opacity="1.0" stroke="rgb(0,0,0)" stroke-width="0.0" fill="rgb(255,254,254)" stroke-linecap="butt" stroke-miterlimit="10.0"><defs><clipPath id="manualmyClip52"><path d="M 452.0000,460.0000 l -0.0000,-400.0000 h -400.0000 l -0.0000,400.0000 Z"/></clipPath></defs><g clip-path="url(#manualmyClip52)"><path d="M 67.3846,460.0000 l -0.0000,-200.0000 h -15.3846 l -0.0000,200.0000 Z"/></g></g><g stroke-linejoin="miter" stroke-opacity="1.0" fill-opacity="1.0" font-size="11.0px" stroke="rgb(0,0,0)" stroke-width="2.147817496902379" fill="rgb(0,0,0)" stroke-linecap="butt" stroke-miterlimit="10.0"><text dominant-baseline="middle" transform="matrix(1.0000,0.0000,0.0000,1.0000,504.0000,156.9697)" stroke="none" text-anchor="start">300.0</text></g><g stroke-linejoin="miter" stroke-opacity="1.0" fill-opacity="1.0" font-size="11.0px" stroke="rgb(0,0,0)" stroke-width="2.147817496902379" fill="rgb(0,0,0)" stroke-linecap="butt" stroke-miterlimit="10.0"><text dominant-baseline="middle" transform="matrix(1.0000,0.0000,0.0000,1.0000,504.0000,257.9798)" stroke="none" text-anchor="start">200.0</text></g><g stroke-linejoin="miter" stroke-opacity="1.0" fill-opacity="1.0" font-size="11.0px" stroke="rgb(0,0,0)" stroke-width="2.147817496902379" fill="rgb(0,0,0)" stroke-linecap="butt" stroke-miterlimit="10.0"><text dominant-baseline="middle" transform="matrix(1.0000,0.0000,0.0000,1.0000,504.0000,358.9899)" stroke="none" text-anchor="start">100.0</text></g><g stroke-linejoin="miter" stroke-opacity="1.0" fill-opacity="1.0" font-size="11.0px" stroke="rgb(0,0,0)" stroke-width="2.147817496902379" fill="rgb(0,0,0)" stroke-linecap="butt" stroke-miterlimit="10.0"><text dominant-baseline="middle" transform="matrix(1.0000,0.0000,0.0000,1.0000,504.0000,460.0000)" stroke="none" text-anchor="start">0.0</text></g><defs><linearGradient x2="0.5000" y1="0.0000" gradientUnits="userSpaceOnUse" spreadMethod="pad" gradientTransform="matrix(-0.0000,-400.0000,-20.0000,-0.0000,482.0000,260.0000)" id="gradient138" y2="0.0000" x1="-0.5000"><stop stop-opacity="1.0000" offset="0.0000" stop-color="rgb(255,255,255)"/><stop stop-opacity="1.0000" offset="1.0000" stop-color="rgb(255,0,0)"/></linearGradient></defs><g stroke-linejoin="miter" stroke-opacity="1.0" fill-opacity="1" stroke="rgb(0,0,0)" stroke-width="0.0" fill="url(#gradient138)" stroke-linecap="butt" stroke-miterlimit="10.0"><path d="M 492.0000,60.0000 l -20.0000,0.0000 v 400.0000 l 20.0000,0.0000 Z"/></g><g stroke-linejoin="miter" stroke-opacity="1.0" fill-opacity="0.0" stroke="rgb(0,0,0)" stroke-width="0.8" fill="rgb(0,0,0)" stroke-linecap="butt" stroke-miterlimit="10.0"><path d="M 492.0000,460.0000 h -20.0000 M 492.0000,358.9899 h -20.0000 M 492.0000,257.9798 h -20.0000 M 492.0000,156.9697 h -20.0000 "/></g><g stroke-linejoin="miter" stroke-opacity="1.0" fill-opacity="0.0" stroke="rgb(0,0,0)" stroke-width="0.4" fill="rgb(0,0,0)" stroke-linecap="butt" stroke-miterlimit="10.0"><path d="M 497.0000,156.9697 h -10.0000 "/></g><g stroke-linejoin="miter" stroke-opacity="1.0" fill-opacity="0.0" stroke="rgb(0,0,0)" stroke-width="0.4" fill="rgb(0,0,0)" stroke-linecap="butt" stroke-miterlimit="10.0"><path d="M 497.0000,257.9798 h -10.0000 "/></g><g stroke-linejoin="miter" stroke-opacity="1.0" fill-opacity="0.0" stroke="rgb(0,0,0)" stroke-width="0.4" fill="rgb(0,0,0)" stroke-linecap="butt" stroke-miterlimit="10.0"><path d="M 497.0000,358.9899 h -10.0000 "/></g><g stroke-linejoin="miter" stroke-opacity="1.0" fill-opacity="0.0" stroke="rgb(0,0,0)" stroke-width="0.4" fill="rgb(0,0,0)" stroke-linecap="butt" stroke-miterlimit="10.0"><path d="M 497.0000,460.0000 h -10.0000 "/></g><g stroke-linejoin="miter" stroke-opacity="1.0" fill-opacity="0.0" stroke="rgb(0,0,0)" stroke-width="2.147817496902379" fill="rgb(0,0,0)" stroke-linecap="butt" stroke-miterlimit="10.0"><path d="M 492.0000,60.0000 l -20.0000,0.0000 v 400.0000 l 20.0000,0.0000 Z"/></g><g stroke-linejoin="miter" stroke-opacity="1.0" fill-opacity="1.0" font-size="11.0px" stroke="rgb(0,0,0)" stroke-width="2.147817496902379" fill="rgb(0,0,0)" stroke-linecap="butt" stroke-miterlimit="10.0"><text dominant-baseline="text-after-edge" transform="matrix(1.0000,0.0000,0.0000,1.0000,252.0000,40.0000)" stroke="none" text-anchor="middle"></text></g></svg>