<?xml version="1.0" encoding="UTF-8"?>
<!DOCTYPE svg PUBLIC "-//W3C//DTD SVG 1.1//EN"
    "http://www.w3.org/Graphics/SVG/1.1/DTD/svg11.dtd"><svg xmlns="http://www.w3.org/2000/svg" height="530.0000" stroke-opacity="1" viewBox="0.0 0.0 544.0 530.0" font-size="1" width="544.0000" xmlns:xlink="http://www.w3.org/1999/xlink" stroke="rgb(0,0,0)" version="1.1"><defs></defs><g stroke-linejoin="miter" stroke-opacity="1.0" fill-opacity="0.0" stroke="rgb(0,0,0)" stroke-width="0.8" fill="rgb(0,0,0)" stroke-linecap="butt" stroke-miterlimit="10.0"><path d="M 52.0000,460.0000 h 400.0000 M 52.0000,380.0000 h 400.0000 M 52.0000,300.0000 h 400.0000 M 52.0000,220.0000 h 400.0000 M 52.0000,140.0000 h 400.0000 M 52.0000,60.0000 h 400.0000 "/></g><g stroke-linejoin="miter" stroke-opacity="1.0" fill-opacity="0.0" stroke="rgb(0,0,0)" stroke-width="2.147817496902379" fill="rgb(0,0,0)" stroke-linecap="square" stroke-miterlimit="10.0"><path d="M 52.0000,460.0000 v -400.0000 M 452.0000,460.0000 v -400.0000 "/></g><g stroke-linejoin="miter" stroke-opacity="1.0" fill-opacity="1.0" font-size="11.0px" stroke="rgb(0,0,0)" stroke-width="2.147817496902379" fill="rgb(0,0,0)" stroke-linecap="butt" stroke-miterlimit="10.0"><text dominant-baseline="middle" transform="matrix(1.0000,0.0000,0.0000,1.0000,40.0000,260.0000)" stroke="none" text-anchor="end">technician</text></g><g stroke-linejoin="miter" stroke-opacity="1.0" fill-opacity="0.0" stroke="rgb(0,0,0)" stroke-width="0.8" fill="rgb(0,0,0)" stroke-linecap="butt" stroke-miterlimit="10.0"><path d="M 52.0000,460.0000 v -400.0000 M 128.9231,460.0000 v -400.0000 M 205.8462,460.0000 v -400.0000 M 282.7692,460.0000 v -400.0000 M 359.6923,460.0000 v -400.0000 M 436.6154,460.0000 v -400.0000 "/></g><g stroke-linejoin="miter" stroke-opacity="1.0" fill-opacity="0.0" stroke="rgb(0,0,0)" stroke-width="2.147817496902379" fill="rgb(0,0,0)" stroke-linecap="square" stroke-miterlimit="10.0"><path d="M 52.0000,460.0000 h 400.0000 M 52.0000,60.0000 h 400.0000 "/></g><g stroke-linejoin="miter" stroke-opacity="1.0" fill-opacity="1.0" font-size="11.0px" stroke="rgb(0,0,0)" stroke-width="2.147817496902379" fill="rgb(0,0,0)" stroke-linecap="butt" stroke-miterlimit="10.0"><text dominant-baseline="text-before-edge" transform="matrix(1.0000,0.0000,0.0000,1.0000,252.0000,490.0000)" stroke="none" text-anchor="middle">Participating sleeper</text></g><g stroke-linejoin="miter" stroke-opacity="1.0" fill-opacity="1.0" font-size="11.0px" stroke="rgb(0,0,0)" stroke-width="2.147817496902379" fill="rgb(0,0,0)" stroke-linecap="butt" stroke-miterlimit="10.0"><text dominant-baseline="text-before-edge" transform="matrix(1.0000,0.0000,0.0000,1.0000,444.3077,472.0000)" stroke="none" text-anchor="middle">#26</text></g><g stroke-linejoin="miter" stroke-opacity="1.0" fill-opacity="1.0" font-size="11.0px" stroke="rgb(0,0,0)" stroke-width="2.147817496902379" fill="rgb(0,0,0)" stroke-linecap="butt" stroke-miterlimit="10.0"><text dominant-baseline="text-before-edge" transform="matrix(1.0000,0.0000,0.0000,1.0000,367.3846,472.0000)" stroke="none" text-anchor="middle">#21</text></g><g stroke-linejoin="miter" stroke-opacity="1.0" fill-opacity="1.0" font-size="11.0px" stroke="rgb(0,0,0)" stroke-width="2.147817496902379" fill="rgb(0,0,0)" stroke-linecap="butt" stroke-miterlimit="10.0"><text dominant-baseline="text-before-edge" transform="matrix(1.0000,0.0000,0.0000,1.0000,290.4615,472.0000)" stroke="none" text-anchor="middle">#16</text></g><g stroke-linejoin="miter" stroke-opacity="1.0" fill-opacity="1.0" font-size="11.0px" stroke="rgb(0,0,0)" stroke-width="2.147817496902379" fill="rgb(0,0,0)" stroke-linecap="butt" stroke-miterlimit="10.0"><text dominant-baseline="text-before-edge" transform="matrix(1.0000,0.0000,0.0000,1.0000,213.5385,472.0000)" stroke="none" text-anchor="middle">#11</text></g><g stroke-linejoin="miter" stroke-opacity="1.0" fill-opacity="1.0" font-size="11.0px" stroke="rgb(0,0,0)" stroke-width="2.147817496902379" fill="rgb(0,0,0)" stroke-linecap="butt" stroke-miterlimit="10.0"><text dominant-baseline="text-before-edge" transform="matrix(1.0000,0.0000,0.0000,1.0000,136.6154,472.0000)" stroke="none" text-anchor="middle">#6</text></g><g stroke-linejoin="miter" stroke-opacity="1.0" fill-opacity="1.0" font-size="11.0px" stroke="rgb(0,0,0)" stroke-width="2.147817496902379" fill="rgb(0,0,0)" stroke-linecap="butt" stroke-miterlimit="10.0"><text dominant-baseline="text-before-edge" transform="matrix(1.0000,0.0000,0.0000,1.0000,59.6923,472.0000)" stroke="none" text-anchor="middle">#1</text></g><g stroke-linejoin="miter" stroke-opacity="1.0" fill-opacity="1.0" stroke="rgb(0,0,0)" stroke-width="0.0" fill="rgb(255,255,255)" stroke-linecap="butt" stroke-miterlimit="10.0"><defs><clipPath id="martamyClip1"><path d="M 452.0000,460.0000 l -0.0000,-400.0000 h -400.0000 l -0.0000,400.0000 Z"/></clipPath></defs><g clip-path="url(#martamyClip1)"><path d="M 452.0000,460.0000 l -0.0000,-400.0000 h -23.0769 l -0.0000,400.0000 Z"/></g></g><g stroke-linejoin="miter" stroke-opacity="1.0" fill-opacity="1.0" stroke="rgb(0,0,0)" stroke-width="0.0" fill="rgb(255,250,250)" stroke-linecap="butt" stroke-miterlimit="10.0"><defs><clipPath id="martamyClip2"><path d="M 452.0000,460.0000 l -0.0000,-400.0000 h -400.0000 l -0.0000,400.0000 Z"/></clipPath></defs><g clip-path="url(#martamyClip2)"><path d="M 436.6154,460.0000 l -0.0000,-400.0000 h -23.0769 l -0.0000,400.0000 Z"/></g></g><g stroke-linejoin="miter" stroke-opacity="1.0" fill-opacity="1.0" stroke="rgb(0,0,0)" stroke-width="0.0" fill="rgb(255,246,246)" stroke-linecap="butt" stroke-miterlimit="10.0"><defs><clipPath id="martamyClip3"><path d="M 452.0000,460.0000 l -0.0000,-400.0000 h -400.0000 l -0.0000,400.0000 Z"/></clipPath></defs><g clip-path="url(#martamyClip3)"><path d="M 421.2308,460.0000 l -0.0000,-400.0000 h -23.0769 l -0.0000,400.0000 Z"/></g></g><g stroke-linejoin="miter" stroke-opacity="1.0" fill-opacity="1.0" stroke="rgb(0,0,0)" stroke-width="0.0" fill="rgb(255,244,244)" stroke-linecap="butt" stroke-miterlimit="10.0"><defs><clipPath id="martamyClip4"><path d="M 452.0000,460.0000 l -0.0000,-400.0000 h -400.0000 l -0.0000,400.0000 Z"/></clipPath></defs><g clip-path="url(#martamyClip4)"><path d="M 405.8462,460.0000 l -0.0000,-400.0000 h -23.0769 l -0.0000,400.0000 Z"/></g></g><g stroke-linejoin="miter" stroke-opacity="1.0" fill-opacity="1.0" stroke="rgb(0,0,0)" stroke-width="0.0" fill="rgb(255,244,244)" stroke-linecap="butt" stroke-miterlimit="10.0"><defs><clipPath id="martamyClip5"><path d="M 452.0000,460.0000 l -0.0000,-400.0000 h -400.0000 l -0.0000,400.0000 Z"/></clipPath></defs><g clip-path="url(#martamyClip5)"><path d="M 390.4615,460.0000 l -0.0000,-400.0000 h -23.0769 l -0.0000,400.0000 Z"/></g></g><g stroke-linejoin="miter" stroke-opacity="1.0" fill-opacity="1.0" stroke="rgb(0,0,0)" stroke-width="0.0" fill="rgb(255,243,243)" stroke-linecap="butt" stroke-miterlimit="10.0"><defs><clipPath id="martamyClip6"><path d="M 452.0000,460.0000 l -0.0000,-400.0000 h -400.0000 l -0.0000,400.0000 Z"/></clipPath></defs><g clip-path="url(#martamyClip6)"><path d="M 375.0769,460.0000 l -0.0000,-400.0000 h -23.0769 l -0.0000,400.0000 Z"/></g></g><g stroke-linejoin="miter" stroke-opacity="1.0" fill-opacity="1.0" stroke="rgb(0,0,0)" stroke-width="0.0" fill="rgb(255,240,240)" stroke-linecap="butt" stroke-miterlimit="10.0"><defs><clipPath id="martamyClip7"><path d="M 452.0000,460.0000 l -0.0000,-400.0000 h -400.0000 l -0.0000,400.0000 Z"/></clipPath></defs><g clip-path="url(#martamyClip7)"><path d="M 359.6923,460.0000 l -0.0000,-400.0000 h -23.0769 l -0.0000,400.0000 Z"/></g></g><g stroke-linejoin="miter" stroke-opacity="1.0" fill-opacity="1.0" stroke="rgb(0,0,0)" stroke-width="0.0" fill="rgb(255,239,239)" stroke-linecap="butt" stroke-miterlimit="10.0"><defs><clipPath id="martamyClip8"><path d="M 452.0000,460.0000 l -0.0000,-400.0000 h -400.0000 l -0.0000,400.0000 Z"/></clipPath></defs><g clip-path="url(#martamyClip8)"><path d="M 344.3077,460.0000 l -0.0000,-400.0000 h -23.0769 l -0.0000,400.0000 Z"/></g></g><g stroke-linejoin="miter" stroke-opacity="1.0" fill-opacity="1.0" stroke="rgb(0,0,0)" stroke-width="0.0" fill="rgb(255,237,237)" stroke-linecap="butt" stroke-miterlimit="10.0"><defs><clipPath id="martamyClip9"><path d="M 452.0000,460.0000 l -0.0000,-400.0000 h -400.0000 l -0.0000,400.0000 Z"/></clipPath></defs><g clip-path="url(#martamyClip9)"><path d="M 328.9231,460.0000 l -0.0000,-400.0000 h -23.0769 l -0.0000,400.0000 Z"/></g></g><g stroke-linejoin="miter" stroke-opacity="1.0" fill-opacity="1.0" stroke="rgb(0,0,0)" stroke-width="0.0" fill="rgb(255,237,237)" stroke-linecap="butt" stroke-miterlimit="10.0"><defs><clipPath id="martamyClip10"><path d="M 452.0000,460.0000 l -0.0000,-400.0000 h -400.0000 l -0.0000,400.0000 Z"/></clipPath></defs><g clip-path="url(#martamyClip10)"><path d="M 313.5385,460.0000 l -0.0000,-400.0000 h -23.0769 l -0.0000,400.0000 Z"/></g></g><g stroke-linejoin="miter" stroke-opacity="1.0" fill-opacity="1.0" stroke="rgb(0,0,0)" stroke-width="0.0" fill="rgb(255,234,234)" stroke-linecap="butt" stroke-miterlimit="10.0"><defs><clipPath id="martamyClip11"><path d="M 452.0000,460.0000 l -0.0000,-400.0000 h -400.0000 l -0.0000,400.0000 Z"/></clipPath></defs><g clip-path="url(#martamyClip11)"><path d="M 298.1538,460.0000 l -0.0000,-400.0000 h -23.0769 l -0.0000,400.0000 Z"/></g></g><g stroke-linejoin="miter" stroke-opacity="1.0" fill-opacity="1.0" stroke="rgb(0,0,0)" stroke-width="0.0" fill="rgb(255,234,234)" stroke-linecap="butt" stroke-miterlimit="10.0"><defs><clipPath id="martamyClip12"><path d="M 452.0000,460.0000 l -0.0000,-400.0000 h -400.0000 l -0.0000,400.0000 Z"/></clipPath></defs><g clip-path="url(#martamyClip12)"><path d="M 282.7692,460.0000 l -0.0000,-400.0000 h -23.0769 l -0.0000,400.0000 Z"/></g></g><g stroke-linejoin="miter" stroke-opacity="1.0" fill-opacity="1.0" stroke="rgb(0,0,0)" stroke-width="0.0" fill="rgb(255,230,230)" stroke-linecap="butt" stroke-miterlimit="10.0"><defs><clipPath id="martamyClip13"><path d="M 452.0000,460.0000 l -0.0000,-400.0000 h -400.0000 l -0.0000,400.0000 Z"/></clipPath></defs><g clip-path="url(#martamyClip13)"><path d="M 267.3846,460.0000 l -0.0000,-400.0000 h -23.0769 l -0.0000,400.0000 Z"/></g></g><g stroke-linejoin="miter" stroke-opacity="1.0" fill-opacity="1.0" stroke="rgb(0,0,0)" stroke-width="0.0" fill="rgb(255,228,228)" stroke-linecap="butt" stroke-miterlimit="10.0"><defs><clipPath id="martamyClip14"><path d="M 452.0000,460.0000 l -0.0000,-400.0000 h -400.0000 l -0.0000,400.0000 Z"/></clipPath></defs><g clip-path="url(#martamyClip14)"><path d="M 252.0000,460.0000 l -0.0000,-400.0000 h -23.0769 l -0.0000,400.0000 Z"/></g></g><g stroke-linejoin="miter" stroke-opacity="1.0" fill-opacity="1.0" stroke="rgb(0,0,0)" stroke-width="0.0" fill="rgb(255,227,227)" stroke-linecap="butt" stroke-miterlimit="10.0"><defs><clipPath id="martamyClip15"><path d="M 452.0000,460.0000 l -0.0000,-400.0000 h -400.0000 l -0.0000,400.0000 Z"/></clipPath></defs><g clip-path="url(#martamyClip15)"><path d="M 236.6154,460.0000 l -0.0000,-400.0000 h -23.0769 l -0.0000,400.0000 Z"/></g></g><g stroke-linejoin="miter" stroke-opacity="1.0" fill-opacity="1.0" stroke="rgb(0,0,0)" stroke-width="0.0" fill="rgb(255,226,226)" stroke-linecap="butt" stroke-miterlimit="10.0"><defs><clipPath id="martamyClip16"><path d="M 452.0000,460.0000 l -0.0000,-400.0000 h -400.0000 l -0.0000,400.0000 Z"/></clipPath></defs><g clip-path="url(#martamyClip16)"><path d="M 221.2308,460.0000 l -0.0000,-400.0000 h -23.0769 l -0.0000,400.0000 Z"/></g></g><g stroke-linejoin="miter" stroke-opacity="1.0" fill-opacity="1.0" stroke="rgb(0,0,0)" stroke-width="0.0" fill="rgb(255,219,219)" stroke-linecap="butt" stroke-miterlimit="10.0"><defs><clipPath id="martamyClip17"><path d="M 452.0000,460.0000 l -0.0000,-400.0000 h -400.0000 l -0.0000,400.0000 Z"/></clipPath></defs><g clip-path="url(#martamyClip17)"><path d="M 205.8462,460.0000 l -0.0000,-400.0000 h -23.0769 l -0.0000,400.0000 Z"/></g></g><g stroke-linejoin="miter" stroke-opacity="1.0" fill-opacity="1.0" stroke="rgb(0,0,0)" stroke-width="0.0" fill="rgb(255,218,218)" stroke-linecap="butt" stroke-miterlimit="10.0"><defs><clipPath id="martamyClip18"><path d="M 452.0000,460.0000 l -0.0000,-400.0000 h -400.0000 l -0.0000,400.0000 Z"/></clipPath></defs><g clip-path="url(#martamyClip18)"><path d="M 190.4615,460.0000 l -0.0000,-400.0000 h -23.0769 l -0.0000,400.0000 Z"/></g></g><g stroke-linejoin="miter" stroke-opacity="1.0" fill-opacity="1.0" stroke="rgb(0,0,0)" stroke-width="0.0" fill="rgb(255,209,209)" stroke-linecap="butt" stroke-miterlimit="10.0"><defs><clipPath id="martamyClip19"><path d="M 452.0000,460.0000 l -0.0000,-400.0000 h -400.0000 l -0.0000,400.0000 Z"/></clipPath></defs><g clip-path="url(#martamyClip19)"><path d="M 175.0769,460.0000 l -0.0000,-400.0000 h -23.0769 l -0.0000,400.0000 Z"/></g></g><g stroke-linejoin="miter" stroke-opacity="1.0" fill-opacity="1.0" stroke="rgb(0,0,0)" stroke-width="0.0" fill="rgb(255,206,206)" stroke-linecap="butt" stroke-miterlimit="10.0"><defs><clipPath id="martamyClip20"><path d="M 452.0000,460.0000 l -0.0000,-400.0000 h -400.0000 l -0.0000,400.0000 Z"/></clipPath></defs><g clip-path="url(#martamyClip20)"><path d="M 159.6923,460.0000 l -0.0000,-400.0000 h -23.0769 l -0.0000,400.0000 Z"/></g></g><g stroke-linejoin="miter" stroke-opacity="1.0" fill-opacity="1.0" stroke="rgb(0,0,0)" stroke-width="0.0" fill="rgb(255,195,195)" stroke-linecap="butt" stroke-miterlimit="10.0"><defs><clipPath id="martamyClip21"><path d="M 452.0000,460.0000 l -0.0000,-400.0000 h -400.0000 l -0.0000,400.0000 Z"/></clipPath></defs><g clip-path="url(#martamyClip21)"><path d="M 144.3077,460.0000 l -0.0000,-400.0000 h -23.0769 l -0.0000,400.0000 Z"/></g></g><g stroke-linejoin="miter" stroke-opacity="1.0" fill-opacity="1.0" stroke="rgb(0,0,0)" stroke-width="0.0" fill="rgb(255,182,182)" stroke-linecap="butt" stroke-miterlimit="10.0"><defs><clipPath id="martamyClip22"><path d="M 452.0000,460.0000 l -0.0000,-400.0000 h -400.0000 l -0.0000,400.0000 Z"/></clipPath></defs><g clip-path="url(#martamyClip22)"><path d="M 128.9231,460.0000 l -0.0000,-400.0000 h -23.0769 l -0.0000,400.0000 Z"/></g></g><g stroke-linejoin="miter" stroke-opacity="1.0" fill-opacity="1.0" stroke="rgb(0,0,0)" stroke-width="0.0" fill="rgb(255,181,181)" stroke-linecap="butt" stroke-miterlimit="10.0"><defs><clipPath id="martamyClip23"><path d="M 452.0000,460.0000 l -0.0000,-400.0000 h -400.0000 l -0.0000,400.0000 Z"/></clipPath></defs><g clip-path="url(#martamyClip23)"><path d="M 113.5385,460.0000 l -0.0000,-400.0000 h -23.0769 l -0.0000,400.0000 Z"/></g></g><g stroke-linejoin="miter" stroke-opacity="1.0" fill-opacity="1.0" stroke="rgb(0,0,0)" stroke-width="0.0" fill="rgb(255,174,174)" stroke-linecap="butt" stroke-miterlimit="10.0"><defs><clipPath id="martamyClip24"><path d="M 452.0000,460.0000 l -0.0000,-400.0000 h -400.0000 l -0.0000,400.0000 Z"/></clipPath></defs><g clip-path="url(#martamyClip24)"><path d="M 98.1538,460.0000 l -0.0000,-400.0000 h -23.0769 l -0.0000,400.0000 Z"/></g></g><g stroke-linejoin="miter" stroke-opacity="1.0" fill-opacity="1.0" stroke="rgb(0,0,0)" stroke-width="0.0" fill="rgb(255,120,120)" stroke-linecap="butt" stroke-miterlimit="10.0"><defs><clipPath id="martamyClip25"><path d="M 452.0000,460.0000 l -0.0000,-400.0000 h -400.0000 l -0.0000,400.0000 Z"/></clipPath></defs><g clip-path="url(#martamyClip25)"><path d="M 82.7692,460.0000 l -0.0000,-400.0000 h -23.0769 l -0.0000,400.0000 Z"/></g></g><g stroke-linejoin="miter" stroke-opacity="1.0" fill-opacity="1.0" stroke="rgb(0,0,0)" stroke-width="0.0" fill="rgb(255,0,0)" stroke-linecap="butt" stroke-miterlimit="10.0"><defs><clipPath id="martamyClip26"><path d="M 452.0000,460.0000 l -0.0000,-400.0000 h -400.0000 l -0.0000,400.0000 Z"/></clipPath></defs><g clip-path="url(#martamyClip26)"><path d="M 67.3846,460.0000 l -0.0000,-400.0000 h -15.3846 l -0.0000,400.0000 Z"/></g></g><g stroke-linejoin="miter" stroke-opacity="1.0" fill-opacity="1.0" font-size="11.0px" stroke="rgb(0,0,0)" stroke-width="2.147817496902379" fill="rgb(0,0,0)" stroke-linecap="butt" stroke-miterlimit="10.0"><text dominant-baseline="middle" transform="matrix(1.0000,0.0000,0.0000,1.0000,504.0000,125.2848)" stroke="none" text-anchor="start">50.0</text></g><g stroke-linejoin="miter" stroke-opacity="1.0" fill-opacity="1.0" font-size="11.0px" stroke="rgb(0,0,0)" stroke-width="2.147817496902379" fill="rgb(0,0,0)" stroke-linecap="butt" stroke-miterlimit="10.0"><text dominant-baseline="middle" transform="matrix(1.0000,0.0000,0.0000,1.0000,504.0000,192.5993)" stroke="none" text-anchor="start">40.0</text></g><g stroke-linejoin="miter" stroke-opacity="1.0" fill-opacity="1.0" font-size="11.0px" stroke="rgb(0,0,0)" stroke-width="2.147817496902379" fill="rgb(0,0,0)" stroke-linecap="butt" stroke-miterlimit="10.0"><text dominant-baseline="middle" transform="matrix(1.0000,0.0000,0.0000,1.0000,504.0000,259.9137)" stroke="none" text-anchor="start">30.0</text></g><g stroke-linejoin="miter" stroke-opacity="1.0" fill-opacity="1.0" font-size="11.0px" stroke="rgb(0,0,0)" stroke-width="2.147817496902379" fill="rgb(0,0,0)" stroke-linecap="butt" stroke-miterlimit="10.0"><text dominant-baseline="middle" transform="matrix(1.0000,0.0000,0.0000,1.0000,504.0000,327.2281)" stroke="none" text-anchor="start">20.0</text></g><g stroke-linejoin="miter" stroke-opacity="1.0" fill-opacity="1.0" font-size="11.0px" stroke="rgb(0,0,0)" stroke-width="2.147817496902379" fill="rgb(0,0,0)" stroke-linecap="butt" stroke-miterlimit="10.0"><text dominant-baseline="middle" transform="matrix(1.0000,0.0000,0.0000,1.0000,504.0000,394.5425)" stroke="none" text-anchor="start">10.0</text></g><defs><linearGradient x2="0.5000" y1="0.0000" gradientUnits="userSpaceOnUse" spreadMethod="pad" gradientTransform="matrix(-0.0000,-400.0000,-20.0000,-0.0000,482.0000,260.0000)" id="gradient86" y2="0.0000" x1="-0.5000"><stop stop-opacity="1.0000" offset="0.0000" stop-color="rgb(255,255,255)"/><stop stop-opacity="1.0000" offset="1.0000" stop-color="rgb(255,0,0)"/></linearGradient></defs><g stroke-linejoin="miter" stroke-opacity="1.0" fill-opacity="1" stroke="rgb(0,0,0)" stroke-width="0.0" fill="url(#gradient86)" stroke-linecap="butt" stroke-miterlimit="10.0"><path d="M 492.0000,60.0000 l -20.0000,0.0000 v 400.0000 l 20.0000,0.0000 Z"/></g><g stroke-linejoin="miter" stroke-opacity="1.0" fill-opacity="0.0" stroke="rgb(0,0,0)" stroke-width="0.8" fill="rgb(0,0,0)" stroke-linecap="butt" stroke-miterlimit="10.0"><path d="M 492.0000,394.5425 h -20.0000 M 492.0000,327.2281 h -20.0000 M 492.0000,259.9137 h -20.0000 M 492.0000,192.5993 h -20.0000 M 492.0000,125.2848 h -20.0000 "/></g><g stroke-linejoin="miter" stroke-opacity="1.0" fill-opacity="0.0" stroke="rgb(0,0,0)" stroke-width="0.4" fill="rgb(0,0,0)" stroke-linecap="butt" stroke-miterlimit="10.0"><path d="M 497.0000,125.2848 h -10.0000 "/></g><g stroke-linejoin="miter" stroke-opacity="1.0" fill-opacity="0.0" stroke="rgb(0,0,0)" stroke-width="0.4" fill="rgb(0,0,0)" stroke-linecap="butt" stroke-miterlimit="10.0"><path d="M 497.0000,192.5993 h -10.0000 "/></g><g stroke-linejoin="miter" stroke-opacity="1.0" fill-opacity="0.0" stroke="rgb(0,0,0)" stroke-width="0.4" fill="rgb(0,0,0)" stroke-linecap="butt" stroke-miterlimit="10.0"><path d="M 497.0000,259.9137 h -10.0000 "/></g><g stroke-linejoin="miter" stroke-opacity="1.0" fill-opacity="0.0" stroke="rgb(0,0,0)" stroke-width="0.4" fill="rgb(0,0,0)" stroke-linecap="butt" stroke-miterlimit="10.0"><path d="M 497.0000,327.2281 h -10.0000 "/></g><g stroke-linejoin="miter" stroke-opacity="1.0" fill-opacity="0.0" stroke="rgb(0,0,0)" stroke-width="0.4" fill="rgb(0,0,0)" stroke-linecap="butt" stroke-miterlimit="10.0"><path d="M 497.0000,394.5425 h -10.0000 "/></g><g stroke-linejoin="miter" stroke-opacity="1.0" fill-opacity="0.0" stroke="rgb(0,0,0)" stroke-width="2.147817496902379" fill="rgb(0,0,0)" stroke-linecap="butt" stroke-miterlimit="10.0"><path d="M 492.0000,60.0000 l -20.0000,0.0000 v 400.0000 l 20.0000,0.0000 Z"/></g><g stroke-linejoin="miter" stroke-opacity="1.0" fill-opacity="1.0" font-size="11.0px" stroke="rgb(0,0,0)" stroke-width="2.147817496902379" fill="rgb(0,0,0)" stroke-linecap="butt" stroke-miterlimit="10.0"><text dominant-baseline="text-after-edge" transform="matrix(1.0000,0.0000,0.0000,1.0000,252.0000,40.0000)" stroke="none" text-anchor="middle"></text></g></svg>