<?xml version="1.0" encoding="UTF-8"?>
<!DOCTYPE svg PUBLIC "-//W3C//DTD SVG 1.1//EN"
    "http://www.w3.org/Graphics/SVG/1.1/DTD/svg11.dtd"><svg xmlns="http://www.w3.org/2000/svg" height="530.0000" stroke-opacity="1" viewBox="0.0 0.0 544.0 530.0" font-size="1" width="544.0000" xmlns:xlink="http://www.w3.org/1999/xlink" stroke="rgb(0,0,0)" version="1.1"><defs></defs><g stroke-linejoin="miter" stroke-opacity="1.0" fill-opacity="0.0" stroke="rgb(0,0,0)" stroke-width="0.8" fill="rgb(0,0,0)" stroke-linecap="butt" stroke-miterlimit="10.0"><path d="M 52.0000,460.0000 h 400.0000 M 52.0000,393.3333 h 400.0000 M 52.0000,326.6667 h 400.0000 M 52.0000,260.0000 h 400.0000 M 52.0000,193.3333 h 400.0000 M 52.0000,126.6667 h 400.0000 M 52.0000,60.0000 h 400.0000 "/></g><g stroke-linejoin="miter" stroke-opacity="1.0" fill-opacity="0.0" stroke="rgb(0,0,0)" stroke-width="2.147817496902379" fill="rgb(0,0,0)" stroke-linecap="square" stroke-miterlimit="10.0"><path d="M 52.0000,460.0000 v -400.0000 M 452.0000,460.0000 v -400.0000 "/></g><g stroke-linejoin="miter" stroke-opacity="1.0" fill-opacity="1.0" font-size="11.0px" stroke="rgb(0,0,0)" stroke-width="2.147817496902379" fill="rgb(0,0,0)" stroke-linecap="butt" stroke-miterlimit="10.0"><text dominant-baseline="middle" transform="matrix(1.0000,0.0000,0.0000,1.0000,40.0000,126.6667)" stroke="none" text-anchor="end">Complex3</text></g><g stroke-linejoin="miter" stroke-opacity="1.0" fill-opacity="1.0" font-size="11.0px" stroke="rgb(0,0,0)" stroke-width="2.147817496902379" fill="rgb(0,0,0)" stroke-linecap="butt" stroke-miterlimit="10.0"><text dominant-baseline="middle" transform="matrix(1.0000,0.0000,0.0000,1.0000,40.0000,260.0000)" stroke="none" text-anchor="end">technologist</text></g><g stroke-linejoin="miter" stroke-opacity="1.0" fill-opacity="1.0" font-size="11.0px" stroke="rgb(0,0,0)" stroke-width="2.147817496902379" fill="rgb(0,0,0)" stroke-linecap="butt" stroke-miterlimit="10.0"><text dominant-baseline="middle" transform="matrix(1.0000,0.0000,0.0000,1.0000,40.0000,393.3333)" stroke="none" text-anchor="end">technician</text></g><g stroke-linejoin="miter" stroke-opacity="1.0" fill-opacity="0.0" stroke="rgb(0,0,0)" stroke-width="0.8" fill="rgb(0,0,0)" stroke-linecap="butt" stroke-miterlimit="10.0"><path d="M 52.0000,460.0000 v -400.0000 M 128.9231,460.0000 v -400.0000 M 205.8462,460.0000 v -400.0000 M 282.7692,460.0000 v -400.0000 M 359.6923,460.0000 v -400.0000 M 436.6154,460.0000 v -400.0000 "/></g><g stroke-linejoin="miter" stroke-opacity="1.0" fill-opacity="0.0" stroke="rgb(0,0,0)" stroke-width="2.147817496902379" fill="rgb(0,0,0)" stroke-linecap="square" stroke-miterlimit="10.0"><path d="M 52.0000,460.0000 h 400.0000 M 52.0000,60.0000 h 400.0000 "/></g><g stroke-linejoin="miter" stroke-opacity="1.0" fill-opacity="1.0" font-size="11.0px" stroke="rgb(0,0,0)" stroke-width="2.147817496902379" fill="rgb(0,0,0)" stroke-linecap="butt" stroke-miterlimit="10.0"><text dominant-baseline="text-before-edge" transform="matrix(1.0000,0.0000,0.0000,1.0000,252.0000,490.0000)" stroke="none" text-anchor="middle">Participating sleeper</text></g><g stroke-linejoin="miter" stroke-opacity="1.0" fill-opacity="1.0" font-size="11.0px" stroke="rgb(0,0,0)" stroke-width="2.147817496902379" fill="rgb(0,0,0)" stroke-linecap="butt" stroke-miterlimit="10.0"><text dominant-baseline="text-before-edge" transform="matrix(1.0000,0.0000,0.0000,1.0000,444.3077,472.0000)" stroke="none" text-anchor="middle">#26</text></g><g stroke-linejoin="miter" stroke-opacity="1.0" fill-opacity="1.0" font-size="11.0px" stroke="rgb(0,0,0)" stroke-width="2.147817496902379" fill="rgb(0,0,0)" stroke-linecap="butt" stroke-miterlimit="10.0"><text dominant-baseline="text-before-edge" transform="matrix(1.0000,0.0000,0.0000,1.0000,367.3846,472.0000)" stroke="none" text-anchor="middle">#21</text></g><g stroke-linejoin="miter" stroke-opacity="1.0" fill-opacity="1.0" font-size="11.0px" stroke="rgb(0,0,0)" stroke-width="2.147817496902379" fill="rgb(0,0,0)" stroke-linecap="butt" stroke-miterlimit="10.0"><text dominant-baseline="text-before-edge" transform="matrix(1.0000,0.0000,0.0000,1.0000,290.4615,472.0000)" stroke="none" text-anchor="middle">#16</text></g><g stroke-linejoin="miter" stroke-opacity="1.0" fill-opacity="1.0" font-size="11.0px" stroke="rgb(0,0,0)" stroke-width="2.147817496902379" fill="rgb(0,0,0)" stroke-linecap="butt" stroke-miterlimit="10.0"><text dominant-baseline="text-before-edge" transform="matrix(1.0000,0.0000,0.0000,1.0000,213.5385,472.0000)" stroke="none" text-anchor="middle">#11</text></g><g stroke-linejoin="miter" stroke-opacity="1.0" fill-opacity="1.0" font-size="11.0px" stroke="rgb(0,0,0)" stroke-width="2.147817496902379" fill="rgb(0,0,0)" stroke-linecap="butt" stroke-miterlimit="10.0"><text dominant-baseline="text-before-edge" transform="matrix(1.0000,0.0000,0.0000,1.0000,136.6154,472.0000)" stroke="none" text-anchor="middle">#6</text></g><g stroke-linejoin="miter" stroke-opacity="1.0" fill-opacity="1.0" font-size="11.0px" stroke="rgb(0,0,0)" stroke-width="2.147817496902379" fill="rgb(0,0,0)" stroke-linecap="butt" stroke-miterlimit="10.0"><text dominant-baseline="text-before-edge" transform="matrix(1.0000,0.0000,0.0000,1.0000,59.6923,472.0000)" stroke="none" text-anchor="middle">#1</text></g><g stroke-linejoin="miter" stroke-opacity="1.0" fill-opacity="1.0" stroke="rgb(0,0,0)" stroke-width="0.0" fill="rgb(255,255,255)" stroke-linecap="butt" stroke-miterlimit="10.0"><defs><clipPath id="rawmyClip1"><path d="M 452.0000,460.0000 l -0.0000,-400.0000 h -400.0000 l -0.0000,400.0000 Z"/></clipPath></defs><g clip-path="url(#rawmyClip1)"><path d="M 452.0000,260.0000 l -0.0000,-200.0000 h -23.0769 l -0.0000,200.0000 Z"/></g></g><g stroke-linejoin="miter" stroke-opacity="1.0" fill-opacity="1.0" stroke="rgb(0,0,0)" stroke-width="0.0" fill="rgb(255,253,253)" stroke-linecap="butt" stroke-miterlimit="10.0"><defs><clipPath id="rawmyClip2"><path d="M 452.0000,460.0000 l -0.0000,-400.0000 h -400.0000 l -0.0000,400.0000 Z"/></clipPath></defs><g clip-path="url(#rawmyClip2)"><path d="M 436.6154,260.0000 l -0.0000,-200.0000 h -23.0769 l -0.0000,200.0000 Z"/></g></g><g stroke-linejoin="miter" stroke-opacity="1.0" fill-opacity="1.0" stroke="rgb(0,0,0)" stroke-width="0.0" fill="rgb(255,254,254)" stroke-linecap="butt" stroke-miterlimit="10.0"><defs><clipPath id="rawmyClip3"><path d="M 452.0000,460.0000 l -0.0000,-400.0000 h -400.0000 l -0.0000,400.0000 Z"/></clipPath></defs><g clip-path="url(#rawmyClip3)"><path d="M 421.2308,260.0000 l -0.0000,-200.0000 h -23.0769 l -0.0000,200.0000 Z"/></g></g><g stroke-linejoin="miter" stroke-opacity="1.0" fill-opacity="1.0" stroke="rgb(0,0,0)" stroke-width="0.0" fill="rgb(255,255,255)" stroke-linecap="butt" stroke-miterlimit="10.0"><defs><clipPath id="rawmyClip4"><path d="M 452.0000,460.0000 l -0.0000,-400.0000 h -400.0000 l -0.0000,400.0000 Z"/></clipPath></defs><g clip-path="url(#rawmyClip4)"><path d="M 405.8462,260.0000 l -0.0000,-200.0000 h -23.0769 l -0.0000,200.0000 Z"/></g></g><g stroke-linejoin="miter" stroke-opacity="1.0" fill-opacity="1.0" stroke="rgb(0,0,0)" stroke-width="0.0" fill="rgb(255,253,253)" stroke-linecap="butt" stroke-miterlimit="10.0"><defs><clipPath id="rawmyClip5"><path d="M 452.0000,460.0000 l -0.0000,-400.0000 h -400.0000 l -0.0000,400.0000 Z"/></clipPath></defs><g clip-path="url(#rawmyClip5)"><path d="M 390.4615,260.0000 l -0.0000,-200.0000 h -23.0769 l -0.0000,200.0000 Z"/></g></g><g stroke-linejoin="miter" stroke-opacity="1.0" fill-opacity="1.0" stroke="rgb(0,0,0)" stroke-width="0.0" fill="rgb(255,254,254)" stroke-linecap="butt" stroke-miterlimit="10.0"><defs><clipPath id="rawmyClip6"><path d="M 452.0000,460.0000 l -0.0000,-400.0000 h -400.0000 l -0.0000,400.0000 Z"/></clipPath></defs><g clip-path="url(#rawmyClip6)"><path d="M 375.0769,260.0000 l -0.0000,-200.0000 h -23.0769 l -0.0000,200.0000 Z"/></g></g><g stroke-linejoin="miter" stroke-opacity="1.0" fill-opacity="1.0" stroke="rgb(0,0,0)" stroke-width="0.0" fill="rgb(255,255,255)" stroke-linecap="butt" stroke-miterlimit="10.0"><defs><clipPath id="rawmyClip7"><path d="M 452.0000,460.0000 l -0.0000,-400.0000 h -400.0000 l -0.0000,400.0000 Z"/></clipPath></defs><g clip-path="url(#rawmyClip7)"><path d="M 359.6923,260.0000 l -0.0000,-200.0000 h -23.0769 l -0.0000,200.0000 Z"/></g></g><g stroke-linejoin="miter" stroke-opacity="1.0" fill-opacity="1.0" stroke="rgb(0,0,0)" stroke-width="0.0" fill="rgb(255,252,252)" stroke-linecap="butt" stroke-miterlimit="10.0"><defs><clipPath id="rawmyClip8"><path d="M 452.0000,460.0000 l -0.0000,-400.0000 h -400.0000 l -0.0000,400.0000 Z"/></clipPath></defs><g clip-path="url(#rawmyClip8)"><path d="M 344.3077,260.0000 l -0.0000,-200.0000 h -23.0769 l -0.0000,200.0000 Z"/></g></g><g stroke-linejoin="miter" stroke-opacity="1.0" fill-opacity="1.0" stroke="rgb(0,0,0)" stroke-width="0.0" fill="rgb(255,255,255)" stroke-linecap="butt" stroke-miterlimit="10.0"><defs><clipPath id="rawmyClip9"><path d="M 452.0000,460.0000 l -0.0000,-400.0000 h -400.0000 l -0.0000,400.0000 Z"/></clipPath></defs><g clip-path="url(#rawmyClip9)"><path d="M 328.9231,260.0000 l -0.0000,-200.0000 h -23.0769 l -0.0000,200.0000 Z"/></g></g><g stroke-linejoin="miter" stroke-opacity="1.0" fill-opacity="1.0" stroke="rgb(0,0,0)" stroke-width="0.0" fill="rgb(255,251,251)" stroke-linecap="butt" stroke-miterlimit="10.0"><defs><clipPath id="rawmyClip10"><path d="M 452.0000,460.0000 l -0.0000,-400.0000 h -400.0000 l -0.0000,400.0000 Z"/></clipPath></defs><g clip-path="url(#rawmyClip10)"><path d="M 313.5385,260.0000 l -0.0000,-200.0000 h -23.0769 l -0.0000,200.0000 Z"/></g></g><g stroke-linejoin="miter" stroke-opacity="1.0" fill-opacity="1.0" stroke="rgb(0,0,0)" stroke-width="0.0" fill="rgb(255,255,255)" stroke-linecap="butt" stroke-miterlimit="10.0"><defs><clipPath id="rawmyClip11"><path d="M 452.0000,460.0000 l -0.0000,-400.0000 h -400.0000 l -0.0000,400.0000 Z"/></clipPath></defs><g clip-path="url(#rawmyClip11)"><path d="M 298.1538,260.0000 l -0.0000,-200.0000 h -23.0769 l -0.0000,200.0000 Z"/></g></g><g stroke-linejoin="miter" stroke-opacity="1.0" fill-opacity="1.0" stroke="rgb(0,0,0)" stroke-width="0.0" fill="rgb(255,255,255)" stroke-linecap="butt" stroke-miterlimit="10.0"><defs><clipPath id="rawmyClip12"><path d="M 452.0000,460.0000 l -0.0000,-400.0000 h -400.0000 l -0.0000,400.0000 Z"/></clipPath></defs><g clip-path="url(#rawmyClip12)"><path d="M 282.7692,260.0000 l -0.0000,-200.0000 h -23.0769 l -0.0000,200.0000 Z"/></g></g><g stroke-linejoin="miter" stroke-opacity="1.0" fill-opacity="1.0" stroke="rgb(0,0,0)" stroke-width="0.0" fill="rgb(255,254,254)" stroke-linecap="butt" stroke-miterlimit="10.0"><defs><clipPath id="rawmyClip13"><path d="M 452.0000,460.0000 l -0.0000,-400.0000 h -400.0000 l -0.0000,400.0000 Z"/></clipPath></defs><g clip-path="url(#rawmyClip13)"><path d="M 267.3846,260.0000 l -0.0000,-200.0000 h -23.0769 l -0.0000,200.0000 Z"/></g></g><g stroke-linejoin="miter" stroke-opacity="1.0" fill-opacity="1.0" stroke="rgb(0,0,0)" stroke-width="0.0" fill="rgb(255,255,255)" stroke-linecap="butt" stroke-miterlimit="10.0"><defs><clipPath id="rawmyClip14"><path d="M 452.0000,460.0000 l -0.0000,-400.0000 h -400.0000 l -0.0000,400.0000 Z"/></clipPath></defs><g clip-path="url(#rawmyClip14)"><path d="M 252.0000,260.0000 l -0.0000,-200.0000 h -23.0769 l -0.0000,200.0000 Z"/></g></g><g stroke-linejoin="miter" stroke-opacity="1.0" fill-opacity="1.0" stroke="rgb(0,0,0)" stroke-width="0.0" fill="rgb(255,254,254)" stroke-linecap="butt" stroke-miterlimit="10.0"><defs><clipPath id="rawmyClip15"><path d="M 452.0000,460.0000 l -0.0000,-400.0000 h -400.0000 l -0.0000,400.0000 Z"/></clipPath></defs><g clip-path="url(#rawmyClip15)"><path d="M 236.6154,260.0000 l -0.0000,-200.0000 h -23.0769 l -0.0000,200.0000 Z"/></g></g><g stroke-linejoin="miter" stroke-opacity="1.0" fill-opacity="1.0" stroke="rgb(0,0,0)" stroke-width="0.0" fill="rgb(255,254,254)" stroke-linecap="butt" stroke-miterlimit="10.0"><defs><clipPath id="rawmyClip16"><path d="M 452.0000,460.0000 l -0.0000,-400.0000 h -400.0000 l -0.0000,400.0000 Z"/></clipPath></defs><g clip-path="url(#rawmyClip16)"><path d="M 221.2308,260.0000 l -0.0000,-200.0000 h -23.0769 l -0.0000,200.0000 Z"/></g></g><g stroke-linejoin="miter" stroke-opacity="1.0" fill-opacity="1.0" stroke="rgb(0,0,0)" stroke-width="0.0" fill="rgb(255,252,252)" stroke-linecap="butt" stroke-miterlimit="10.0"><defs><clipPath id="rawmyClip17"><path d="M 452.0000,460.0000 l -0.0000,-400.0000 h -400.0000 l -0.0000,400.0000 Z"/></clipPath></defs><g clip-path="url(#rawmyClip17)"><path d="M 205.8462,260.0000 l -0.0000,-200.0000 h -23.0769 l -0.0000,200.0000 Z"/></g></g><g stroke-linejoin="miter" stroke-opacity="1.0" fill-opacity="1.0" stroke="rgb(0,0,0)" stroke-width="0.0" fill="rgb(255,250,250)" stroke-linecap="butt" stroke-miterlimit="10.0"><defs><clipPath id="rawmyClip18"><path d="M 452.0000,460.0000 l -0.0000,-400.0000 h -400.0000 l -0.0000,400.0000 Z"/></clipPath></defs><g clip-path="url(#rawmyClip18)"><path d="M 190.4615,260.0000 l -0.0000,-200.0000 h -23.0769 l -0.0000,200.0000 Z"/></g></g><g stroke-linejoin="miter" stroke-opacity="1.0" fill-opacity="1.0" stroke="rgb(0,0,0)" stroke-width="0.0" fill="rgb(255,255,255)" stroke-linecap="butt" stroke-miterlimit="10.0"><defs><clipPath id="rawmyClip19"><path d="M 452.0000,460.0000 l -0.0000,-400.0000 h -400.0000 l -0.0000,400.0000 Z"/></clipPath></defs><g clip-path="url(#rawmyClip19)"><path d="M 175.0769,260.0000 l -0.0000,-200.0000 h -23.0769 l -0.0000,200.0000 Z"/></g></g><g stroke-linejoin="miter" stroke-opacity="1.0" fill-opacity="1.0" stroke="rgb(0,0,0)" stroke-width="0.0" fill="rgb(255,254,254)" stroke-linecap="butt" stroke-miterlimit="10.0"><defs><clipPath id="rawmyClip20"><path d="M 452.0000,460.0000 l -0.0000,-400.0000 h -400.0000 l -0.0000,400.0000 Z"/></clipPath></defs><g clip-path="url(#rawmyClip20)"><path d="M 159.6923,260.0000 l -0.0000,-200.0000 h -23.0769 l -0.0000,200.0000 Z"/></g></g><g stroke-linejoin="miter" stroke-opacity="1.0" fill-opacity="1.0" stroke="rgb(0,0,0)" stroke-width="0.0" fill="rgb(255,250,250)" stroke-linecap="butt" stroke-miterlimit="10.0"><defs><clipPath id="rawmyClip21"><path d="M 452.0000,460.0000 l -0.0000,-400.0000 h -400.0000 l -0.0000,400.0000 Z"/></clipPath></defs><g clip-path="url(#rawmyClip21)"><path d="M 144.3077,260.0000 l -0.0000,-200.0000 h -23.0769 l -0.0000,200.0000 Z"/></g></g><g stroke-linejoin="miter" stroke-opacity="1.0" fill-opacity="1.0" stroke="rgb(0,0,0)" stroke-width="0.0" fill="rgb(255,255,255)" stroke-linecap="butt" stroke-miterlimit="10.0"><defs><clipPath id="rawmyClip22"><path d="M 452.0000,460.0000 l -0.0000,-400.0000 h -400.0000 l -0.0000,400.0000 Z"/></clipPath></defs><g clip-path="url(#rawmyClip22)"><path d="M 128.9231,260.0000 l -0.0000,-200.0000 h -23.0769 l -0.0000,200.0000 Z"/></g></g><g stroke-linejoin="miter" stroke-opacity="1.0" fill-opacity="1.0" stroke="rgb(0,0,0)" stroke-width="0.0" fill="rgb(255,249,249)" stroke-linecap="butt" stroke-miterlimit="10.0"><defs><clipPath id="rawmyClip23"><path d="M 452.0000,460.0000 l -0.0000,-400.0000 h -400.0000 l -0.0000,400.0000 Z"/></clipPath></defs><g clip-path="url(#rawmyClip23)"><path d="M 113.5385,260.0000 l -0.0000,-200.0000 h -23.0769 l -0.0000,200.0000 Z"/></g></g><g stroke-linejoin="miter" stroke-opacity="1.0" fill-opacity="1.0" stroke="rgb(0,0,0)" stroke-width="0.0" fill="rgb(255,252,252)" stroke-linecap="butt" stroke-miterlimit="10.0"><defs><clipPath id="rawmyClip24"><path d="M 452.0000,460.0000 l -0.0000,-400.0000 h -400.0000 l -0.0000,400.0000 Z"/></clipPath></defs><g clip-path="url(#rawmyClip24)"><path d="M 98.1538,260.0000 l -0.0000,-200.0000 h -23.0769 l -0.0000,200.0000 Z"/></g></g><g stroke-linejoin="miter" stroke-opacity="1.0" fill-opacity="1.0" stroke="rgb(0,0,0)" stroke-width="0.0" fill="rgb(255,255,255)" stroke-linecap="butt" stroke-miterlimit="10.0"><defs><clipPath id="rawmyClip25"><path d="M 452.0000,460.0000 l -0.0000,-400.0000 h -400.0000 l -0.0000,400.0000 Z"/></clipPath></defs><g clip-path="url(#rawmyClip25)"><path d="M 82.7692,260.0000 l -0.0000,-200.0000 h -23.0769 l -0.0000,200.0000 Z"/></g></g><g stroke-linejoin="miter" stroke-opacity="1.0" fill-opacity="1.0" stroke="rgb(0,0,0)" stroke-width="0.0" fill="rgb(255,249,249)" stroke-linecap="butt" stroke-miterlimit="10.0"><defs><clipPath id="rawmyClip26"><path d="M 452.0000,460.0000 l -0.0000,-400.0000 h -400.0000 l -0.0000,400.0000 Z"/></clipPath></defs><g clip-path="url(#rawmyClip26)"><path d="M 67.3846,260.0000 l -0.0000,-200.0000 h -15.3846 l -0.0000,200.0000 Z"/></g></g><g stroke-linejoin="miter" stroke-opacity="1.0" fill-opacity="1.0" stroke="rgb(0,0,0)" stroke-width="0.0" fill="rgb(255,254,254)" stroke-linecap="butt" stroke-miterlimit="10.0"><defs><clipPath id="rawmyClip27"><path d="M 452.0000,460.0000 l -0.0000,-400.0000 h -400.0000 l -0.0000,400.0000 Z"/></clipPath></defs><g clip-path="url(#rawmyClip27)"><path d="M 452.0000,393.3333 l -0.0000,-200.0000 h -23.0769 l -0.0000,200.0000 Z"/></g></g><g stroke-linejoin="miter" stroke-opacity="1.0" fill-opacity="1.0" stroke="rgb(0,0,0)" stroke-width="0.0" fill="rgb(255,255,255)" stroke-linecap="butt" stroke-miterlimit="10.0"><defs><clipPath id="rawmyClip28"><path d="M 452.0000,460.0000 l -0.0000,-400.0000 h -400.0000 l -0.0000,400.0000 Z"/></clipPath></defs><g clip-path="url(#rawmyClip28)"><path d="M 436.6154,393.3333 l -0.0000,-200.0000 h -23.0769 l -0.0000,200.0000 Z"/></g></g><g stroke-linejoin="miter" stroke-opacity="1.0" fill-opacity="1.0" stroke="rgb(0,0,0)" stroke-width="0.0" fill="rgb(255,250,250)" stroke-linecap="butt" stroke-miterlimit="10.0"><defs><clipPath id="rawmyClip29"><path d="M 452.0000,460.0000 l -0.0000,-400.0000 h -400.0000 l -0.0000,400.0000 Z"/></clipPath></defs><g clip-path="url(#rawmyClip29)"><path d="M 421.2308,393.3333 l -0.0000,-200.0000 h -23.0769 l -0.0000,200.0000 Z"/></g></g><g stroke-linejoin="miter" stroke-opacity="1.0" fill-opacity="1.0" stroke="rgb(0,0,0)" stroke-width="0.0" fill="rgb(255,245,245)" stroke-linecap="butt" stroke-miterlimit="10.0"><defs><clipPath id="rawmyClip30"><path d="M 452.0000,460.0000 l -0.0000,-400.0000 h -400.0000 l -0.0000,400.0000 Z"/></clipPath></defs><g clip-path="url(#rawmyClip30)"><path d="M 405.8462,393.3333 l -0.0000,-200.0000 h -23.0769 l -0.0000,200.0000 Z"/></g></g><g stroke-linejoin="miter" stroke-opacity="1.0" fill-opacity="1.0" stroke="rgb(0,0,0)" stroke-width="0.0" fill="rgb(255,255,255)" stroke-linecap="butt" stroke-miterlimit="10.0"><defs><clipPath id="rawmyClip31"><path d="M 452.0000,460.0000 l -0.0000,-400.0000 h -400.0000 l -0.0000,400.0000 Z"/></clipPath></defs><g clip-path="url(#rawmyClip31)"><path d="M 390.4615,393.3333 l -0.0000,-200.0000 h -23.0769 l -0.0000,200.0000 Z"/></g></g><g stroke-linejoin="miter" stroke-opacity="1.0" fill-opacity="1.0" stroke="rgb(0,0,0)" stroke-width="0.0" fill="rgb(255,249,249)" stroke-linecap="butt" stroke-miterlimit="10.0"><defs><clipPath id="rawmyClip32"><path d="M 452.0000,460.0000 l -0.0000,-400.0000 h -400.0000 l -0.0000,400.0000 Z"/></clipPath></defs><g clip-path="url(#rawmyClip32)"><path d="M 375.0769,393.3333 l -0.0000,-200.0000 h -23.0769 l -0.0000,200.0000 Z"/></g></g><g stroke-linejoin="miter" stroke-opacity="1.0" fill-opacity="1.0" stroke="rgb(0,0,0)" stroke-width="0.0" fill="rgb(255,244,244)" stroke-linecap="butt" stroke-miterlimit="10.0"><defs><clipPath id="rawmyClip33"><path d="M 452.0000,460.0000 l -0.0000,-400.0000 h -400.0000 l -0.0000,400.0000 Z"/></clipPath></defs><g clip-path="url(#rawmyClip33)"><path d="M 359.6923,393.3333 l -0.0000,-200.0000 h -23.0769 l -0.0000,200.0000 Z"/></g></g><g stroke-linejoin="miter" stroke-opacity="1.0" fill-opacity="1.0" stroke="rgb(0,0,0)" stroke-width="0.0" fill="rgb(255,245,245)" stroke-linecap="butt" stroke-miterlimit="10.0"><defs><clipPath id="rawmyClip34"><path d="M 452.0000,460.0000 l -0.0000,-400.0000 h -400.0000 l -0.0000,400.0000 Z"/></clipPath></defs><g clip-path="url(#rawmyClip34)"><path d="M 344.3077,393.3333 l -0.0000,-200.0000 h -23.0769 l -0.0000,200.0000 Z"/></g></g><g stroke-linejoin="miter" stroke-opacity="1.0" fill-opacity="1.0" stroke="rgb(0,0,0)" stroke-width="0.0" fill="rgb(255,235,235)" stroke-linecap="butt" stroke-miterlimit="10.0"><defs><clipPath id="rawmyClip35"><path d="M 452.0000,460.0000 l -0.0000,-400.0000 h -400.0000 l -0.0000,400.0000 Z"/></clipPath></defs><g clip-path="url(#rawmyClip35)"><path d="M 328.9231,393.3333 l -0.0000,-200.0000 h -23.0769 l -0.0000,200.0000 Z"/></g></g><g stroke-linejoin="miter" stroke-opacity="1.0" fill-opacity="1.0" stroke="rgb(0,0,0)" stroke-width="0.0" fill="rgb(255,249,249)" stroke-linecap="butt" stroke-miterlimit="10.0"><defs><clipPath id="rawmyClip36"><path d="M 452.0000,460.0000 l -0.0000,-400.0000 h -400.0000 l -0.0000,400.0000 Z"/></clipPath></defs><g clip-path="url(#rawmyClip36)"><path d="M 313.5385,393.3333 l -0.0000,-200.0000 h -23.0769 l -0.0000,200.0000 Z"/></g></g><g stroke-linejoin="miter" stroke-opacity="1.0" fill-opacity="1.0" stroke="rgb(0,0,0)" stroke-width="0.0" fill="rgb(255,247,247)" stroke-linecap="butt" stroke-miterlimit="10.0"><defs><clipPath id="rawmyClip37"><path d="M 452.0000,460.0000 l -0.0000,-400.0000 h -400.0000 l -0.0000,400.0000 Z"/></clipPath></defs><g clip-path="url(#rawmyClip37)"><path d="M 298.1538,393.3333 l -0.0000,-200.0000 h -23.0769 l -0.0000,200.0000 Z"/></g></g><g stroke-linejoin="miter" stroke-opacity="1.0" fill-opacity="1.0" stroke="rgb(0,0,0)" stroke-width="0.0" fill="rgb(255,251,251)" stroke-linecap="butt" stroke-miterlimit="10.0"><defs><clipPath id="rawmyClip38"><path d="M 452.0000,460.0000 l -0.0000,-400.0000 h -400.0000 l -0.0000,400.0000 Z"/></clipPath></defs><g clip-path="url(#rawmyClip38)"><path d="M 282.7692,393.3333 l -0.0000,-200.0000 h -23.0769 l -0.0000,200.0000 Z"/></g></g><g stroke-linejoin="miter" stroke-opacity="1.0" fill-opacity="1.0" stroke="rgb(0,0,0)" stroke-width="0.0" fill="rgb(255,235,235)" stroke-linecap="butt" stroke-miterlimit="10.0"><defs><clipPath id="rawmyClip39"><path d="M 452.0000,460.0000 l -0.0000,-400.0000 h -400.0000 l -0.0000,400.0000 Z"/></clipPath></defs><g clip-path="url(#rawmyClip39)"><path d="M 267.3846,393.3333 l -0.0000,-200.0000 h -23.0769 l -0.0000,200.0000 Z"/></g></g><g stroke-linejoin="miter" stroke-opacity="1.0" fill-opacity="1.0" stroke="rgb(0,0,0)" stroke-width="0.0" fill="rgb(255,235,235)" stroke-linecap="butt" stroke-miterlimit="10.0"><defs><clipPath id="rawmyClip40"><path d="M 452.0000,460.0000 l -0.0000,-400.0000 h -400.0000 l -0.0000,400.0000 Z"/></clipPath></defs><g clip-path="url(#rawmyClip40)"><path d="M 252.0000,393.3333 l -0.0000,-200.0000 h -23.0769 l -0.0000,200.0000 Z"/></g></g><g stroke-linejoin="miter" stroke-opacity="1.0" fill-opacity="1.0" stroke="rgb(0,0,0)" stroke-width="0.0" fill="rgb(255,235,235)" stroke-linecap="butt" stroke-miterlimit="10.0"><defs><clipPath id="rawmyClip41"><path d="M 452.0000,460.0000 l -0.0000,-400.0000 h -400.0000 l -0.0000,400.0000 Z"/></clipPath></defs><g clip-path="url(#rawmyClip41)"><path d="M 236.6154,393.3333 l -0.0000,-200.0000 h -23.0769 l -0.0000,200.0000 Z"/></g></g><g stroke-linejoin="miter" stroke-opacity="1.0" fill-opacity="1.0" stroke="rgb(0,0,0)" stroke-width="0.0" fill="rgb(255,251,251)" stroke-linecap="butt" stroke-miterlimit="10.0"><defs><clipPath id="rawmyClip42"><path d="M 452.0000,460.0000 l -0.0000,-400.0000 h -400.0000 l -0.0000,400.0000 Z"/></clipPath></defs><g clip-path="url(#rawmyClip42)"><path d="M 221.2308,393.3333 l -0.0000,-200.0000 h -23.0769 l -0.0000,200.0000 Z"/></g></g><g stroke-linejoin="miter" stroke-opacity="1.0" fill-opacity="1.0" stroke="rgb(0,0,0)" stroke-width="0.0" fill="rgb(255,233,233)" stroke-linecap="butt" stroke-miterlimit="10.0"><defs><clipPath id="rawmyClip43"><path d="M 452.0000,460.0000 l -0.0000,-400.0000 h -400.0000 l -0.0000,400.0000 Z"/></clipPath></defs><g clip-path="url(#rawmyClip43)"><path d="M 205.8462,393.3333 l -0.0000,-200.0000 h -23.0769 l -0.0000,200.0000 Z"/></g></g><g stroke-linejoin="miter" stroke-opacity="1.0" fill-opacity="1.0" stroke="rgb(0,0,0)" stroke-width="0.0" fill="rgb(255,236,236)" stroke-linecap="butt" stroke-miterlimit="10.0"><defs><clipPath id="rawmyClip44"><path d="M 452.0000,460.0000 l -0.0000,-400.0000 h -400.0000 l -0.0000,400.0000 Z"/></clipPath></defs><g clip-path="url(#rawmyClip44)"><path d="M 190.4615,393.3333 l -0.0000,-200.0000 h -23.0769 l -0.0000,200.0000 Z"/></g></g><g stroke-linejoin="miter" stroke-opacity="1.0" fill-opacity="1.0" stroke="rgb(0,0,0)" stroke-width="0.0" fill="rgb(255,225,225)" stroke-linecap="butt" stroke-miterlimit="10.0"><defs><clipPath id="rawmyClip45"><path d="M 452.0000,460.0000 l -0.0000,-400.0000 h -400.0000 l -0.0000,400.0000 Z"/></clipPath></defs><g clip-path="url(#rawmyClip45)"><path d="M 175.0769,393.3333 l -0.0000,-200.0000 h -23.0769 l -0.0000,200.0000 Z"/></g></g><g stroke-linejoin="miter" stroke-opacity="1.0" fill-opacity="1.0" stroke="rgb(0,0,0)" stroke-width="0.0" fill="rgb(255,234,234)" stroke-linecap="butt" stroke-miterlimit="10.0"><defs><clipPath id="rawmyClip46"><path d="M 452.0000,460.0000 l -0.0000,-400.0000 h -400.0000 l -0.0000,400.0000 Z"/></clipPath></defs><g clip-path="url(#rawmyClip46)"><path d="M 159.6923,393.3333 l -0.0000,-200.0000 h -23.0769 l -0.0000,200.0000 Z"/></g></g><g stroke-linejoin="miter" stroke-opacity="1.0" fill-opacity="1.0" stroke="rgb(0,0,0)" stroke-width="0.0" fill="rgb(255,237,237)" stroke-linecap="butt" stroke-miterlimit="10.0"><defs><clipPath id="rawmyClip47"><path d="M 452.0000,460.0000 l -0.0000,-400.0000 h -400.0000 l -0.0000,400.0000 Z"/></clipPath></defs><g clip-path="url(#rawmyClip47)"><path d="M 144.3077,393.3333 l -0.0000,-200.0000 h -23.0769 l -0.0000,200.0000 Z"/></g></g><g stroke-linejoin="miter" stroke-opacity="1.0" fill-opacity="1.0" stroke="rgb(0,0,0)" stroke-width="0.0" fill="rgb(255,204,204)" stroke-linecap="butt" stroke-miterlimit="10.0"><defs><clipPath id="rawmyClip48"><path d="M 452.0000,460.0000 l -0.0000,-400.0000 h -400.0000 l -0.0000,400.0000 Z"/></clipPath></defs><g clip-path="url(#rawmyClip48)"><path d="M 128.9231,393.3333 l -0.0000,-200.0000 h -23.0769 l -0.0000,200.0000 Z"/></g></g><g stroke-linejoin="miter" stroke-opacity="1.0" fill-opacity="1.0" stroke="rgb(0,0,0)" stroke-width="0.0" fill="rgb(255,219,219)" stroke-linecap="butt" stroke-miterlimit="10.0"><defs><clipPath id="rawmyClip49"><path d="M 452.0000,460.0000 l -0.0000,-400.0000 h -400.0000 l -0.0000,400.0000 Z"/></clipPath></defs><g clip-path="url(#rawmyClip49)"><path d="M 113.5385,393.3333 l -0.0000,-200.0000 h -23.0769 l -0.0000,200.0000 Z"/></g></g><g stroke-linejoin="miter" stroke-opacity="1.0" fill-opacity="1.0" stroke="rgb(0,0,0)" stroke-width="0.0" fill="rgb(255,229,229)" stroke-linecap="butt" stroke-miterlimit="10.0"><defs><clipPath id="rawmyClip50"><path d="M 452.0000,460.0000 l -0.0000,-400.0000 h -400.0000 l -0.0000,400.0000 Z"/></clipPath></defs><g clip-path="url(#rawmyClip50)"><path d="M 98.1538,393.3333 l -0.0000,-200.0000 h -23.0769 l -0.0000,200.0000 Z"/></g></g><g stroke-linejoin="miter" stroke-opacity="1.0" fill-opacity="1.0" stroke="rgb(0,0,0)" stroke-width="0.0" fill="rgb(255,181,181)" stroke-linecap="butt" stroke-miterlimit="10.0"><defs><clipPath id="rawmyClip51"><path d="M 452.0000,460.0000 l -0.0000,-400.0000 h -400.0000 l -0.0000,400.0000 Z"/></clipPath></defs><g clip-path="url(#rawmyClip51)"><path d="M 82.7692,393.3333 l -0.0000,-200.0000 h -23.0769 l -0.0000,200.0000 Z"/></g></g><g stroke-linejoin="miter" stroke-opacity="1.0" fill-opacity="1.0" stroke="rgb(0,0,0)" stroke-width="0.0" fill="rgb(255,204,204)" stroke-linecap="butt" stroke-miterlimit="10.0"><defs><clipPath id="rawmyClip52"><path d="M 452.0000,460.0000 l -0.0000,-400.0000 h -400.0000 l -0.0000,400.0000 Z"/></clipPath></defs><g clip-path="url(#rawmyClip52)"><path d="M 67.3846,393.3333 l -0.0000,-200.0000 h -15.3846 l -0.0000,200.0000 Z"/></g></g><g stroke-linejoin="miter" stroke-opacity="1.0" fill-opacity="1.0" stroke="rgb(0,0,0)" stroke-width="0.0" fill="rgb(255,254,254)" stroke-linecap="butt" stroke-miterlimit="10.0"><defs><clipPath id="rawmyClip53"><path d="M 452.0000,460.0000 l -0.0000,-400.0000 h -400.0000 l -0.0000,400.0000 Z"/></clipPath></defs><g clip-path="url(#rawmyClip53)"><path d="M 452.0000,460.0000 l -0.0000,-133.3333 h -23.0769 l -0.0000,133.3333 Z"/></g></g><g stroke-linejoin="miter" stroke-opacity="1.0" fill-opacity="1.0" stroke="rgb(0,0,0)" stroke-width="0.0" fill="rgb(255,244,244)" stroke-linecap="butt" stroke-miterlimit="10.0"><defs><clipPath id="rawmyClip54"><path d="M 452.0000,460.0000 l -0.0000,-400.0000 h -400.0000 l -0.0000,400.0000 Z"/></clipPath></defs><g clip-path="url(#rawmyClip54)"><path d="M 436.6154,460.0000 l -0.0000,-133.3333 h -23.0769 l -0.0000,133.3333 Z"/></g></g><g stroke-linejoin="miter" stroke-opacity="1.0" fill-opacity="1.0" stroke="rgb(0,0,0)" stroke-width="0.0" fill="rgb(255,246,246)" stroke-linecap="butt" stroke-miterlimit="10.0"><defs><clipPath id="rawmyClip55"><path d="M 452.0000,460.0000 l -0.0000,-400.0000 h -400.0000 l -0.0000,400.0000 Z"/></clipPath></defs><g clip-path="url(#rawmyClip55)"><path d="M 421.2308,460.0000 l -0.0000,-133.3333 h -23.0769 l -0.0000,133.3333 Z"/></g></g><g stroke-linejoin="miter" stroke-opacity="1.0" fill-opacity="1.0" stroke="rgb(0,0,0)" stroke-width="0.0" fill="rgb(255,249,249)" stroke-linecap="butt" stroke-miterlimit="10.0"><defs><clipPath id="rawmyClip56"><path d="M 452.0000,460.0000 l -0.0000,-400.0000 h -400.0000 l -0.0000,400.0000 Z"/></clipPath></defs><g clip-path="url(#rawmyClip56)"><path d="M 405.8462,460.0000 l -0.0000,-133.3333 h -23.0769 l -0.0000,133.3333 Z"/></g></g><g stroke-linejoin="miter" stroke-opacity="1.0" fill-opacity="1.0" stroke="rgb(0,0,0)" stroke-width="0.0" fill="rgb(255,237,237)" stroke-linecap="butt" stroke-miterlimit="10.0"><defs><clipPath id="rawmyClip57"><path d="M 452.0000,460.0000 l -0.0000,-400.0000 h -400.0000 l -0.0000,400.0000 Z"/></clipPath></defs><g clip-path="url(#rawmyClip57)"><path d="M 390.4615,460.0000 l -0.0000,-133.3333 h -23.0769 l -0.0000,133.3333 Z"/></g></g><g stroke-linejoin="miter" stroke-opacity="1.0" fill-opacity="1.0" stroke="rgb(0,0,0)" stroke-width="0.0" fill="rgb(255,239,239)" stroke-linecap="butt" stroke-miterlimit="10.0"><defs><clipPath id="rawmyClip58"><path d="M 452.0000,460.0000 l -0.0000,-400.0000 h -400.0000 l -0.0000,400.0000 Z"/></clipPath></defs><g clip-path="url(#rawmyClip58)"><path d="M 375.0769,460.0000 l -0.0000,-133.3333 h -23.0769 l -0.0000,133.3333 Z"/></g></g><g stroke-linejoin="miter" stroke-opacity="1.0" fill-opacity="1.0" stroke="rgb(0,0,0)" stroke-width="0.0" fill="rgb(255,242,242)" stroke-linecap="butt" stroke-miterlimit="10.0"><defs><clipPath id="rawmyClip59"><path d="M 452.0000,460.0000 l -0.0000,-400.0000 h -400.0000 l -0.0000,400.0000 Z"/></clipPath></defs><g clip-path="url(#rawmyClip59)"><path d="M 359.6923,460.0000 l -0.0000,-133.3333 h -23.0769 l -0.0000,133.3333 Z"/></g></g><g stroke-linejoin="miter" stroke-opacity="1.0" fill-opacity="1.0" stroke="rgb(0,0,0)" stroke-width="0.0" fill="rgb(255,239,239)" stroke-linecap="butt" stroke-miterlimit="10.0"><defs><clipPath id="rawmyClip60"><path d="M 452.0000,460.0000 l -0.0000,-400.0000 h -400.0000 l -0.0000,400.0000 Z"/></clipPath></defs><g clip-path="url(#rawmyClip60)"><path d="M 344.3077,460.0000 l -0.0000,-133.3333 h -23.0769 l -0.0000,133.3333 Z"/></g></g><g stroke-linejoin="miter" stroke-opacity="1.0" fill-opacity="1.0" stroke="rgb(0,0,0)" stroke-width="0.0" fill="rgb(255,244,244)" stroke-linecap="butt" stroke-miterlimit="10.0"><defs><clipPath id="rawmyClip61"><path d="M 452.0000,460.0000 l -0.0000,-400.0000 h -400.0000 l -0.0000,400.0000 Z"/></clipPath></defs><g clip-path="url(#rawmyClip61)"><path d="M 328.9231,460.0000 l -0.0000,-133.3333 h -23.0769 l -0.0000,133.3333 Z"/></g></g><g stroke-linejoin="miter" stroke-opacity="1.0" fill-opacity="1.0" stroke="rgb(0,0,0)" stroke-width="0.0" fill="rgb(255,233,233)" stroke-linecap="butt" stroke-miterlimit="10.0"><defs><clipPath id="rawmyClip62"><path d="M 452.0000,460.0000 l -0.0000,-400.0000 h -400.0000 l -0.0000,400.0000 Z"/></clipPath></defs><g clip-path="url(#rawmyClip62)"><path d="M 313.5385,460.0000 l -0.0000,-133.3333 h -23.0769 l -0.0000,133.3333 Z"/></g></g><g stroke-linejoin="miter" stroke-opacity="1.0" fill-opacity="1.0" stroke="rgb(0,0,0)" stroke-width="0.0" fill="rgb(255,227,227)" stroke-linecap="butt" stroke-miterlimit="10.0"><defs><clipPath id="rawmyClip63"><path d="M 452.0000,460.0000 l -0.0000,-400.0000 h -400.0000 l -0.0000,400.0000 Z"/></clipPath></defs><g clip-path="url(#rawmyClip63)"><path d="M 298.1538,460.0000 l -0.0000,-133.3333 h -23.0769 l -0.0000,133.3333 Z"/></g></g><g stroke-linejoin="miter" stroke-opacity="1.0" fill-opacity="1.0" stroke="rgb(0,0,0)" stroke-width="0.0" fill="rgb(255,218,218)" stroke-linecap="butt" stroke-miterlimit="10.0"><defs><clipPath id="rawmyClip64"><path d="M 452.0000,460.0000 l -0.0000,-400.0000 h -400.0000 l -0.0000,400.0000 Z"/></clipPath></defs><g clip-path="url(#rawmyClip64)"><path d="M 282.7692,460.0000 l -0.0000,-133.3333 h -23.0769 l -0.0000,133.3333 Z"/></g></g><g stroke-linejoin="miter" stroke-opacity="1.0" fill-opacity="1.0" stroke="rgb(0,0,0)" stroke-width="0.0" fill="rgb(255,237,237)" stroke-linecap="butt" stroke-miterlimit="10.0"><defs><clipPath id="rawmyClip65"><path d="M 452.0000,460.0000 l -0.0000,-400.0000 h -400.0000 l -0.0000,400.0000 Z"/></clipPath></defs><g clip-path="url(#rawmyClip65)"><path d="M 267.3846,460.0000 l -0.0000,-133.3333 h -23.0769 l -0.0000,133.3333 Z"/></g></g><g stroke-linejoin="miter" stroke-opacity="1.0" fill-opacity="1.0" stroke="rgb(0,0,0)" stroke-width="0.0" fill="rgb(255,233,233)" stroke-linecap="butt" stroke-miterlimit="10.0"><defs><clipPath id="rawmyClip66"><path d="M 452.0000,460.0000 l -0.0000,-400.0000 h -400.0000 l -0.0000,400.0000 Z"/></clipPath></defs><g clip-path="url(#rawmyClip66)"><path d="M 252.0000,460.0000 l -0.0000,-133.3333 h -23.0769 l -0.0000,133.3333 Z"/></g></g><g stroke-linejoin="miter" stroke-opacity="1.0" fill-opacity="1.0" stroke="rgb(0,0,0)" stroke-width="0.0" fill="rgb(255,227,227)" stroke-linecap="butt" stroke-miterlimit="10.0"><defs><clipPath id="rawmyClip67"><path d="M 452.0000,460.0000 l -0.0000,-400.0000 h -400.0000 l -0.0000,400.0000 Z"/></clipPath></defs><g clip-path="url(#rawmyClip67)"><path d="M 236.6154,460.0000 l -0.0000,-133.3333 h -23.0769 l -0.0000,133.3333 Z"/></g></g><g stroke-linejoin="miter" stroke-opacity="1.0" fill-opacity="1.0" stroke="rgb(0,0,0)" stroke-width="0.0" fill="rgb(255,209,209)" stroke-linecap="butt" stroke-miterlimit="10.0"><defs><clipPath id="rawmyClip68"><path d="M 452.0000,460.0000 l -0.0000,-400.0000 h -400.0000 l -0.0000,400.0000 Z"/></clipPath></defs><g clip-path="url(#rawmyClip68)"><path d="M 221.2308,460.0000 l -0.0000,-133.3333 h -23.0769 l -0.0000,133.3333 Z"/></g></g><g stroke-linejoin="miter" stroke-opacity="1.0" fill-opacity="1.0" stroke="rgb(0,0,0)" stroke-width="0.0" fill="rgb(255,230,230)" stroke-linecap="butt" stroke-miterlimit="10.0"><defs><clipPath id="rawmyClip69"><path d="M 452.0000,460.0000 l -0.0000,-400.0000 h -400.0000 l -0.0000,400.0000 Z"/></clipPath></defs><g clip-path="url(#rawmyClip69)"><path d="M 205.8462,460.0000 l -0.0000,-133.3333 h -23.0769 l -0.0000,133.3333 Z"/></g></g><g stroke-linejoin="miter" stroke-opacity="1.0" fill-opacity="1.0" stroke="rgb(0,0,0)" stroke-width="0.0" fill="rgb(255,226,226)" stroke-linecap="butt" stroke-miterlimit="10.0"><defs><clipPath id="rawmyClip70"><path d="M 452.0000,460.0000 l -0.0000,-400.0000 h -400.0000 l -0.0000,400.0000 Z"/></clipPath></defs><g clip-path="url(#rawmyClip70)"><path d="M 190.4615,460.0000 l -0.0000,-133.3333 h -23.0769 l -0.0000,133.3333 Z"/></g></g><g stroke-linejoin="miter" stroke-opacity="1.0" fill-opacity="1.0" stroke="rgb(0,0,0)" stroke-width="0.0" fill="rgb(255,218,218)" stroke-linecap="butt" stroke-miterlimit="10.0"><defs><clipPath id="rawmyClip71"><path d="M 452.0000,460.0000 l -0.0000,-400.0000 h -400.0000 l -0.0000,400.0000 Z"/></clipPath></defs><g clip-path="url(#rawmyClip71)"><path d="M 175.0769,460.0000 l -0.0000,-133.3333 h -23.0769 l -0.0000,133.3333 Z"/></g></g><g stroke-linejoin="miter" stroke-opacity="1.0" fill-opacity="1.0" stroke="rgb(0,0,0)" stroke-width="0.0" fill="rgb(255,194,194)" stroke-linecap="butt" stroke-miterlimit="10.0"><defs><clipPath id="rawmyClip72"><path d="M 452.0000,460.0000 l -0.0000,-400.0000 h -400.0000 l -0.0000,400.0000 Z"/></clipPath></defs><g clip-path="url(#rawmyClip72)"><path d="M 159.6923,460.0000 l -0.0000,-133.3333 h -23.0769 l -0.0000,133.3333 Z"/></g></g><g stroke-linejoin="miter" stroke-opacity="1.0" fill-opacity="1.0" stroke="rgb(0,0,0)" stroke-width="0.0" fill="rgb(255,182,182)" stroke-linecap="butt" stroke-miterlimit="10.0"><defs><clipPath id="rawmyClip73"><path d="M 452.0000,460.0000 l -0.0000,-400.0000 h -400.0000 l -0.0000,400.0000 Z"/></clipPath></defs><g clip-path="url(#rawmyClip73)"><path d="M 144.3077,460.0000 l -0.0000,-133.3333 h -23.0769 l -0.0000,133.3333 Z"/></g></g><g stroke-linejoin="miter" stroke-opacity="1.0" fill-opacity="1.0" stroke="rgb(0,0,0)" stroke-width="0.0" fill="rgb(255,205,205)" stroke-linecap="butt" stroke-miterlimit="10.0"><defs><clipPath id="rawmyClip74"><path d="M 452.0000,460.0000 l -0.0000,-400.0000 h -400.0000 l -0.0000,400.0000 Z"/></clipPath></defs><g clip-path="url(#rawmyClip74)"><path d="M 128.9231,460.0000 l -0.0000,-133.3333 h -23.0769 l -0.0000,133.3333 Z"/></g></g><g stroke-linejoin="miter" stroke-opacity="1.0" fill-opacity="1.0" stroke="rgb(0,0,0)" stroke-width="0.0" fill="rgb(255,174,174)" stroke-linecap="butt" stroke-miterlimit="10.0"><defs><clipPath id="rawmyClip75"><path d="M 452.0000,460.0000 l -0.0000,-400.0000 h -400.0000 l -0.0000,400.0000 Z"/></clipPath></defs><g clip-path="url(#rawmyClip75)"><path d="M 113.5385,460.0000 l -0.0000,-133.3333 h -23.0769 l -0.0000,133.3333 Z"/></g></g><g stroke-linejoin="miter" stroke-opacity="1.0" fill-opacity="1.0" stroke="rgb(0,0,0)" stroke-width="0.0" fill="rgb(255,120,120)" stroke-linecap="butt" stroke-miterlimit="10.0"><defs><clipPath id="rawmyClip76"><path d="M 452.0000,460.0000 l -0.0000,-400.0000 h -400.0000 l -0.0000,400.0000 Z"/></clipPath></defs><g clip-path="url(#rawmyClip76)"><path d="M 98.1538,460.0000 l -0.0000,-133.3333 h -23.0769 l -0.0000,133.3333 Z"/></g></g><g stroke-linejoin="miter" stroke-opacity="1.0" fill-opacity="1.0" stroke="rgb(0,0,0)" stroke-width="0.0" fill="rgb(255,181,181)" stroke-linecap="butt" stroke-miterlimit="10.0"><defs><clipPath id="rawmyClip77"><path d="M 452.0000,460.0000 l -0.0000,-400.0000 h -400.0000 l -0.0000,400.0000 Z"/></clipPath></defs><g clip-path="url(#rawmyClip77)"><path d="M 82.7692,460.0000 l -0.0000,-133.3333 h -23.0769 l -0.0000,133.3333 Z"/></g></g><g stroke-linejoin="miter" stroke-opacity="1.0" fill-opacity="1.0" stroke="rgb(0,0,0)" stroke-width="0.0" fill="rgb(255,0,0)" stroke-linecap="butt" stroke-miterlimit="10.0"><defs><clipPath id="rawmyClip78"><path d="M 452.0000,460.0000 l -0.0000,-400.0000 h -400.0000 l -0.0000,400.0000 Z"/></clipPath></defs><g clip-path="url(#rawmyClip78)"><path d="M 67.3846,460.0000 l -0.0000,-133.3333 h -15.3846 l -0.0000,133.3333 Z"/></g></g><g stroke-linejoin="miter" stroke-opacity="1.0" fill-opacity="1.0" font-size="11.0px" stroke="rgb(0,0,0)" stroke-width="2.147817496902379" fill="rgb(0,0,0)" stroke-linecap="butt" stroke-miterlimit="10.0"><text dominant-baseline="middle" transform="matrix(1.0000,0.0000,0.0000,1.0000,504.0000,124.9832)" stroke="none" text-anchor="start">50.0</text></g><g stroke-linejoin="miter" stroke-opacity="1.0" fill-opacity="1.0" font-size="11.0px" stroke="rgb(0,0,0)" stroke-width="2.147817496902379" fill="rgb(0,0,0)" stroke-linecap="butt" stroke-miterlimit="10.0"><text dominant-baseline="middle" transform="matrix(1.0000,0.0000,0.0000,1.0000,504.0000,191.9865)" stroke="none" text-anchor="start">40.0</text></g><g stroke-linejoin="miter" stroke-opacity="1.0" fill-opacity="1.0" font-size="11.0px" stroke="rgb(0,0,0)" stroke-width="2.147817496902379" fill="rgb(0,0,0)" stroke-linecap="butt" stroke-miterlimit="10.0"><text dominant-baseline="middle" transform="matrix(1.0000,0.0000,0.0000,1.0000,504.0000,258.9899)" stroke="none" text-anchor="start">30.0</text></g><g stroke-linejoin="miter" stroke-opacity="1.0" fill-opacity="1.0" font-size="11.0px" stroke="rgb(0,0,0)" stroke-width="2.147817496902379" fill="rgb(0,0,0)" stroke-linecap="butt" stroke-miterlimit="10.0"><text dominant-baseline="middle" transform="matrix(1.0000,0.0000,0.0000,1.0000,504.0000,325.9933)" stroke="none" text-anchor="start">20.0</text></g><g stroke-linejoin="miter" stroke-opacity="1.0" fill-opacity="1.0" font-size="11.0px" stroke="rgb(0,0,0)" stroke-width="2.147817496902379" fill="rgb(0,0,0)" stroke-linecap="butt" stroke-miterlimit="10.0"><text dominant-baseline="middle" transform="matrix(1.0000,0.0000,0.0000,1.0000,504.0000,392.9966)" stroke="none" text-anchor="start">10.0</text></g><g stroke-linejoin="miter" stroke-opacity="1.0" fill-opacity="1.0" font-size="11.0px" stroke="rgb(0,0,0)" stroke-width="2.147817496902379" fill="rgb(0,0,0)" stroke-linecap="butt" stroke-miterlimit="10.0"><text dominant-baseline="middle" transform="matrix(1.0000,0.0000,0.0000,1.0000,504.0000,460.0000)" stroke="none" text-anchor="start">0.0</text></g><defs><linearGradient x2="0.5000" y1="0.0000" gradientUnits="userSpaceOnUse" spreadMethod="pad" gradientTransform="matrix(-0.0000,-400.0000,-20.0000,-0.0000,482.0000,260.0000)" id="gradient196" y2="0.0000" x1="-0.5000"><stop stop-opacity="1.0000" offset="0.0000" stop-color="rgb(255,255,255)"/><stop stop-opacity="1.0000" offset="1.0000" stop-color="rgb(255,0,0)"/></linearGradient></defs><g stroke-linejoin="miter" stroke-opacity="1.0" fill-opacity="1" stroke="rgb(0,0,0)" stroke-width="0.0" fill="url(#gradient196)" stroke-linecap="butt" stroke-miterlimit="10.0"><path d="M 492.0000,60.0000 l -20.0000,0.0000 v 400.0000 l 20.0000,0.0000 Z"/></g><g stroke-linejoin="miter" stroke-opacity="1.0" fill-opacity="0.0" stroke="rgb(0,0,0)" stroke-width="0.8" fill="rgb(0,0,0)" stroke-linecap="butt" stroke-miterlimit="10.0"><path d="M 492.0000,460.0000 h -20.0000 M 492.0000,392.9966 h -20.0000 M 492.0000,325.9933 h -20.0000 M 492.0000,258.9899 h -20.0000 M 492.0000,191.9865 h -20.0000 M 492.0000,124.9832 h -20.0000 "/></g><g stroke-linejoin="miter" stroke-opacity="1.0" fill-opacity="0.0" stroke="rgb(0,0,0)" stroke-width="0.4" fill="rgb(0,0,0)" stroke-linecap="butt" stroke-miterlimit="10.0"><path d="M 497.0000,124.9832 h -10.0000 "/></g><g stroke-linejoin="miter" stroke-opacity="1.0" fill-opacity="0.0" stroke="rgb(0,0,0)" stroke-width="0.4" fill="rgb(0,0,0)" stroke-linecap="butt" stroke-miterlimit="10.0"><path d="M 497.0000,191.9865 h -10.0000 "/></g><g stroke-linejoin="miter" stroke-opacity="1.0" fill-opacity="0.0" stroke="rgb(0,0,0)" stroke-width="0.4" fill="rgb(0,0,0)" stroke-linecap="butt" stroke-miterlimit="10.0"><path d="M 497.0000,258.9899 h -10.0000 "/></g><g stroke-linejoin="miter" stroke-opacity="1.0" fill-opacity="0.0" stroke="rgb(0,0,0)" stroke-width="0.4" fill="rgb(0,0,0)" stroke-linecap="butt" stroke-miterlimit="10.0"><path d="M 497.0000,325.9933 h -10.0000 "/></g><g stroke-linejoin="miter" stroke-opacity="1.0" fill-opacity="0.0" stroke="rgb(0,0,0)" stroke-width="0.4" fill="rgb(0,0,0)" stroke-linecap="butt" stroke-miterlimit="10.0"><path d="M 497.0000,392.9966 h -10.0000 "/></g><g stroke-linejoin="miter" stroke-opacity="1.0" fill-opacity="0.0" stroke="rgb(0,0,0)" stroke-width="0.4" fill="rgb(0,0,0)" stroke-linecap="butt" stroke-miterlimit="10.0"><path d="M 497.0000,460.0000 h -10.0000 "/></g><g stroke-linejoin="miter" stroke-opacity="1.0" fill-opacity="0.0" stroke="rgb(0,0,0)" stroke-width="2.147817496902379" fill="rgb(0,0,0)" stroke-linecap="butt" stroke-miterlimit="10.0"><path d="M 492.0000,60.0000 l -20.0000,0.0000 v 400.0000 l 20.0000,0.0000 Z"/></g><g stroke-linejoin="miter" stroke-opacity="1.0" fill-opacity="1.0" font-size="11.0px" stroke="rgb(0,0,0)" stroke-width="2.147817496902379" fill="rgb(0,0,0)" stroke-linecap="butt" stroke-miterlimit="10.0"><text dominant-baseline="text-after-edge" transform="matrix(1.0000,0.0000,0.0000,1.0000,252.0000,40.0000)" stroke="none" text-anchor="middle"></text></g></svg>