<?xml version="1.0" encoding="UTF-8"?>
<!DOCTYPE svg PUBLIC "-//W3C//DTD SVG 1.1//EN"
    "http://www.w3.org/Graphics/SVG/1.1/DTD/svg11.dtd"><svg xmlns="http://www.w3.org/2000/svg" height="512.0000" stroke-opacity="1" viewBox="0.0 0.0 497.0 512.0" font-size="1" width="497.0000" xmlns:xlink="http://www.w3.org/1999/xlink" stroke="rgb(0,0,0)" version="1.1"><defs></defs><g stroke-linejoin="miter" stroke-opacity="1.0" fill-opacity="0.0" stroke="rgb(0,0,0)" stroke-width="0.8" fill="rgb(0,0,0)" stroke-linecap="butt" stroke-miterlimit="10.0"><path d="M 52.0000,260.0000 h 400.0000 "/></g><g stroke-linejoin="miter" stroke-opacity="1.0" fill-opacity="0.0" stroke="rgb(0,0,0)" stroke-width="2.017776994615609" fill="rgb(0,0,0)" stroke-linecap="square" stroke-miterlimit="10.0"><path d="M 52.0000,460.0000 v -400.0000 M 452.0000,460.0000 v -400.0000 "/></g><g stroke-linejoin="miter" stroke-opacity="1.0" fill-opacity="0.0" stroke="rgb(0,0,0)" stroke-width="0.4" fill="rgb(0,0,0)" stroke-linecap="butt" stroke-miterlimit="10.0"><path d="M 452.0000,260.0000 h 5.0000 "/></g><g stroke-linejoin="miter" stroke-opacity="1.0" fill-opacity="0.0" stroke="rgb(0,0,0)" stroke-width="0.4" fill="rgb(0,0,0)" stroke-linecap="butt" stroke-miterlimit="10.0"><path d="M 47.0000,260.0000 h 5.0000 "/></g><g stroke-linejoin="miter" stroke-opacity="1.0" fill-opacity="1.0" font-size="11.0px" stroke="rgb(0,0,0)" stroke-width="2.017776994615609" fill="rgb(0,0,0)" stroke-linecap="butt" stroke-miterlimit="10.0"><text dominant-baseline="middle" transform="matrix(1.0000,0.0000,0.0000,1.0000,40.0000,260.0000)" stroke="none" text-anchor="end">Medium4 technologist</text></g><g stroke-linejoin="miter" stroke-opacity="1.0" fill-opacity="0.0" stroke="rgb(0,0,0)" stroke-width="0.8" fill="rgb(0,0,0)" stroke-linecap="butt" stroke-miterlimit="10.0"><path d="M 85.3333,460.0000 v -400.0000 M 168.6667,460.0000 v -400.0000 M 252.0000,460.0000 v -400.0000 M 335.3333,460.0000 v -400.0000 M 418.6667,460.0000 v -400.0000 "/></g><g stroke-linejoin="miter" stroke-opacity="1.0" fill-opacity="0.0" stroke="rgb(0,0,0)" stroke-width="2.017776994615609" fill="rgb(0,0,0)" stroke-linecap="square" stroke-miterlimit="10.0"><path d="M 52.0000,460.0000 h 400.0000 M 52.0000,60.0000 h 400.0000 "/></g><g stroke-linejoin="miter" stroke-opacity="1.0" fill-opacity="0.0" stroke="rgb(0,0,0)" stroke-width="0.4" fill="rgb(0,0,0)" stroke-linecap="butt" stroke-miterlimit="10.0"><path d="M 57.5556,60.0000 v -3.0000 M 71.4444,60.0000 v -3.0000 M 99.2222,60.0000 v -3.0000 M 113.1111,60.0000 v -3.0000 M 127.0000,60.0000 v -3.0000 M 140.8889,60.0000 v -3.0000 M 154.7778,60.0000 v -3.0000 M 182.5556,60.0000 v -3.0000 M 196.4444,60.0000 v -3.0000 M 210.3333,60.0000 v -3.0000 M 224.2222,60.0000 v -3.0000 M 238.1111,60.0000 v -3.0000 M 265.8889,60.0000 v -3.0000 M 279.7778,60.0000 v -3.0000 M 293.6667,60.0000 v -3.0000 M 307.5556,60.0000 v -3.0000 M 321.4444,60.0000 v -3.0000 M 349.2222,60.0000 v -3.0000 M 363.1111,60.0000 v -3.0000 M 377.0000,60.0000 v -3.0000 M 390.8889,60.0000 v -3.0000 M 404.7778,60.0000 v -3.0000 M 432.5556,60.0000 v -3.0000 M 446.4444,60.0000 v -3.0000 "/></g><g stroke-linejoin="miter" stroke-opacity="1.0" fill-opacity="0.0" stroke="rgb(0,0,0)" stroke-width="0.4" fill="rgb(0,0,0)" stroke-linecap="butt" stroke-miterlimit="10.0"><path d="M 85.3333,60.0000 v -5.0000 M 168.6667,60.0000 v -5.0000 M 252.0000,60.0000 v -5.0000 M 335.3333,60.0000 v -5.0000 M 418.6667,60.0000 v -5.0000 "/></g><g stroke-linejoin="miter" stroke-opacity="1.0" fill-opacity="0.0" stroke="rgb(0,0,0)" stroke-width="0.4" fill="rgb(0,0,0)" stroke-linecap="butt" stroke-miterlimit="10.0"><path d="M 57.5556,463.0000 v -3.0000 M 71.4444,463.0000 v -3.0000 M 99.2222,463.0000 v -3.0000 M 113.1111,463.0000 v -3.0000 M 127.0000,463.0000 v -3.0000 M 140.8889,463.0000 v -3.0000 M 154.7778,463.0000 v -3.0000 M 182.5556,463.0000 v -3.0000 M 196.4444,463.0000 v -3.0000 M 210.3333,463.0000 v -3.0000 M 224.2222,463.0000 v -3.0000 M 238.1111,463.0000 v -3.0000 M 265.8889,463.0000 v -3.0000 M 279.7778,463.0000 v -3.0000 M 293.6667,463.0000 v -3.0000 M 307.5556,463.0000 v -3.0000 M 321.4444,463.0000 v -3.0000 M 349.2222,463.0000 v -3.0000 M 363.1111,463.0000 v -3.0000 M 377.0000,463.0000 v -3.0000 M 390.8889,463.0000 v -3.0000 M 404.7778,463.0000 v -3.0000 M 432.5556,463.0000 v -3.0000 M 446.4444,463.0000 v -3.0000 "/></g><g stroke-linejoin="miter" stroke-opacity="1.0" fill-opacity="0.0" stroke="rgb(0,0,0)" stroke-width="0.4" fill="rgb(0,0,0)" stroke-linecap="butt" stroke-miterlimit="10.0"><path d="M 85.3333,465.0000 v -5.0000 M 168.6667,465.0000 v -5.0000 M 252.0000,465.0000 v -5.0000 M 335.3333,465.0000 v -5.0000 M 418.6667,465.0000 v -5.0000 "/></g><g stroke-linejoin="miter" stroke-opacity="1.0" fill-opacity="1.0" font-size="11.0px" stroke="rgb(0,0,0)" stroke-width="2.017776994615609" fill="rgb(0,0,0)" stroke-linecap="butt" stroke-miterlimit="10.0"><text dominant-baseline="text-before-edge" transform="matrix(1.0000,0.0000,0.0000,1.0000,418.6667,472.0000)" stroke="none" text-anchor="middle">1.0</text></g><g stroke-linejoin="miter" stroke-opacity="1.0" fill-opacity="1.0" font-size="11.0px" stroke="rgb(0,0,0)" stroke-width="2.017776994615609" fill="rgb(0,0,0)" stroke-linecap="butt" stroke-miterlimit="10.0"><text dominant-baseline="text-before-edge" transform="matrix(1.0000,0.0000,0.0000,1.0000,335.3333,472.0000)" stroke="none" text-anchor="middle">0.75</text></g><g stroke-linejoin="miter" stroke-opacity="1.0" fill-opacity="1.0" font-size="11.0px" stroke="rgb(0,0,0)" stroke-width="2.017776994615609" fill="rgb(0,0,0)" stroke-linecap="butt" stroke-miterlimit="10.0"><text dominant-baseline="text-before-edge" transform="matrix(1.0000,0.0000,0.0000,1.0000,252.0000,472.0000)" stroke="none" text-anchor="middle">0.5</text></g><g stroke-linejoin="miter" stroke-opacity="1.0" fill-opacity="1.0" font-size="11.0px" stroke="rgb(0,0,0)" stroke-width="2.017776994615609" fill="rgb(0,0,0)" stroke-linecap="butt" stroke-miterlimit="10.0"><text dominant-baseline="text-before-edge" transform="matrix(1.0000,0.0000,0.0000,1.0000,168.6667,472.0000)" stroke="none" text-anchor="middle">0.25</text></g><g stroke-linejoin="miter" stroke-opacity="1.0" fill-opacity="1.0" font-size="11.0px" stroke="rgb(0,0,0)" stroke-width="2.017776994615609" fill="rgb(0,0,0)" stroke-linecap="butt" stroke-miterlimit="10.0"><text dominant-baseline="text-before-edge" transform="matrix(1.0000,0.0000,0.0000,1.0000,85.3333,472.0000)" stroke="none" text-anchor="middle">0.0</text></g><g stroke-linejoin="miter" stroke-opacity="1.0" fill-opacity="1.0" stroke="rgb(77,175,74)" stroke-width="1.0" fill="rgb(114,185,112)" stroke-linecap="butt" stroke-miterlimit="10.0"><defs><clipPath id="MediumtechnologistmyClip1"><path d="M 452.0000,460.0000 l -0.0000,-400.0000 h -400.0000 l -0.0000,400.0000 Z"/></clipPath></defs><g clip-path="url(#MediumtechnologistmyClip1)"><path d="M 85.3333,426.6667 v -333.3333 h 249.1050 v 333.3333 Z"/></g></g><g stroke-linejoin="miter" stroke-opacity="1.0" fill-opacity="1.0" stroke="rgb(55,126,184)" stroke-width="1.0" fill="rgb(103,146,193)" stroke-linecap="butt" stroke-miterlimit="10.0"><defs><clipPath id="MediumtechnologistmyClip2"><path d="M 452.0000,460.0000 l -0.0000,-400.0000 h -400.0000 l -0.0000,400.0000 Z"/></clipPath></defs><g clip-path="url(#MediumtechnologistmyClip2)"><path d="M 334.4384,426.6667 v -333.3333 h 18.6770 v 333.3333 Z"/></g></g><g stroke-linejoin="miter" stroke-opacity="1.0" fill-opacity="1.0" stroke="rgb(228,26,28)" stroke-width="1.0" fill="rgb(231,93,93)" stroke-linecap="butt" stroke-miterlimit="10.0"><defs><clipPath id="MediumtechnologistmyClip3"><path d="M 452.0000,460.0000 l -0.0000,-400.0000 h -400.0000 l -0.0000,400.0000 Z"/></clipPath></defs><g clip-path="url(#MediumtechnologistmyClip3)"><path d="M 353.1154,426.6667 v -333.3333 h 65.5513 v 333.3333 Z"/></g></g><g stroke-linejoin="miter" stroke-opacity="1.0" fill-opacity="1.0" font-size="11.0px" stroke="rgb(0,0,0)" stroke-width="2.017776994615609" fill="rgb(0,0,0)" stroke-linecap="butt" stroke-miterlimit="10.0"><text dominant-baseline="text-after-edge" transform="matrix(1.0000,0.0000,0.0000,1.0000,252.0000,40.0000)" stroke="none" text-anchor="middle"></text></g></svg>